STARTFONT 2.1
FONT -Baekmuk-Batang-Medium-R-Normal--12-120-75-75-M-120-ksx1001.1997-0
SIZE 12 75 75
FONTBOUNDINGBOX 12 12 -1 -3
STARTPROPERTIES 18
FOUNDRY "Baekmuk"
FAMILY_NAME "Batang"
WEIGHT_NAME "Medium"
SLANT "R"
SETWIDTH_NAME "Normal"
ADD_STYLE_NAME ""
PIXEL_SIZE 12
POINT_SIZE 120
RESOLUTION_X 75
RESOLUTION_Y 75
SPACING "M"
AVERAGE_WIDTH 120
CHARSET_REGISTRY "ksx1001.1997"
CHARSET_ENCODING "0"
DEFAULT_CHAR 8481
FONT_ASCENT 10
FONT_DESCENT 2
COPYRIGHT "(c)Hwan Design Inc. and Mizi Research Inc."
ENDPROPERTIES
CHARS 8328
STARTCHAR char8481
ENCODING 8481
SWIDTH 1200 0
DWIDTH 12 0
BBX 0 0 0 0
BITMAP
ENDCHAR
STARTCHAR char8482
ENCODING 8482
SWIDTH 1200 0
DWIDTH 12 0
BBX 3 3 8 6
BITMAP
80
60
20
ENDCHAR
STARTCHAR char8483
ENCODING 8483
SWIDTH 1200 0
DWIDTH 12 0
BBX 4 4 7 5
BITMAP
60
90
90
60
ENDCHAR
STARTCHAR char8484
ENCODING 8484
SWIDTH 1200 0
DWIDTH 12 0
BBX 1 1 6 4
BITMAP
80
ENDCHAR
STARTCHAR char8485
ENCODING 8485
SWIDTH 1200 0
DWIDTH 12 0
BBX 7 1 3 4
BITMAP
82
ENDCHAR
STARTCHAR char8486
ENCODING 8486
SWIDTH 1200 0
DWIDTH 12 0
BBX 9 1 2 4
BITMAP
8880
ENDCHAR
STARTCHAR char8487
ENCODING 8487
SWIDTH 1200 0
DWIDTH 12 0
BBX 5 1 4 8
BITMAP
88
ENDCHAR
STARTCHAR char8488
ENCODING 8488
SWIDTH 1200 0
DWIDTH 12 0
BBX 4 4 4 3
BITMAP
50
50
A0
A0
ENDCHAR
STARTCHAR char8489
ENCODING 8489
SWIDTH 1200 0
DWIDTH 12 0
BBX 5 1 4 4
BITMAP
F8
ENDCHAR
STARTCHAR char8490
ENCODING 8490
SWIDTH 1200 0
DWIDTH 12 0
BBX 12 1 0 4
BITMAP
FFF0
ENDCHAR
STARTCHAR char8491
ENCODING 8491
SWIDTH 1200 0
DWIDTH 12 0
BBX 4 9 4 0
BITMAP
90
90
90
90
90
90
90
90
90
ENDCHAR
STARTCHAR char8492
ENCODING 8492
SWIDTH 1200 0
DWIDTH 12 0
BBX 10 10 1 -1
BITMAP
8000
4000
2000
1000
0800
0400
0200
0100
0080
0040
ENDCHAR
STARTCHAR char8493
ENCODING 8493
SWIDTH 1200 0
DWIDTH 12 0
BBX 8 2 2 4
BITMAP
71
8E
ENDCHAR
STARTCHAR char8494
ENCODING 8494
SWIDTH 1200 0
DWIDTH 12 0
BBX 2 3 10 7
BITMAP
40
80
C0
ENDCHAR
STARTCHAR char8495
ENCODING 8495
SWIDTH 1200 0
DWIDTH 12 0
BBX 2 3 1 6
BITMAP
C0
40
80
ENDCHAR
STARTCHAR char8496
ENCODING 8496
SWIDTH 1200 0
DWIDTH 12 0
BBX 5 3 7 7
BITMAP
48
90
D8
ENDCHAR
STARTCHAR char8497
ENCODING 8497
SWIDTH 1200 0
DWIDTH 12 0
BBX 5 3 1 6
BITMAP
D8
48
90
ENDCHAR
STARTCHAR char8498
ENCODING 8498
SWIDTH 1200 0
DWIDTH 12 0
BBX 3 11 9 -1
BITMAP
20
40
80
80
80
80
80
80
80
40
20
ENDCHAR
STARTCHAR char8499
ENCODING 8499
SWIDTH 1200 0
DWIDTH 12 0
BBX 3 11 1 -1
BITMAP
80
40
20
20
20
20
20
20
20
40
80
ENDCHAR
STARTCHAR char8500
ENCODING 8500
SWIDTH 1200 0
DWIDTH 12 0
BBX 6 11 6 -1
BITMAP
04
08
10
20
40
80
40
20
10
08
04
ENDCHAR
STARTCHAR char8501
ENCODING 8501
SWIDTH 1200 0
DWIDTH 12 0
BBX 6 11 1 -1
BITMAP
80
40
20
10
08
04
08
10
20
40
80
ENDCHAR
STARTCHAR char8502
ENCODING 8502
SWIDTH 1200 0
DWIDTH 12 0
BBX 7 9 5 0
BITMAP
0A
14
28
50
A0
50
28
14
0A
ENDCHAR
STARTCHAR char8503
ENCODING 8503
SWIDTH 1200 0
DWIDTH 12 0
BBX 7 9 1 0
BITMAP
A0
50
28
14
0A
14
28
50
A0
ENDCHAR
STARTCHAR char8504
ENCODING 8504
SWIDTH 1200 0
DWIDTH 12 0
BBX 4 6 8 4
BITMAP
F0
80
80
80
80
80
ENDCHAR
STARTCHAR char8505
ENCODING 8505
SWIDTH 1200 0
DWIDTH 12 0
BBX 4 6 1 -1
BITMAP
10
10
10
10
10
F0
ENDCHAR
STARTCHAR char8506
ENCODING 8506
SWIDTH 1200 0
DWIDTH 12 0
BBX 5 6 7 4
BITMAP
F8
88
B8
A0
A0
E0
ENDCHAR
STARTCHAR char8507
ENCODING 8507
SWIDTH 1200 0
DWIDTH 12 0
BBX 5 6 1 -1
BITMAP
38
28
28
E8
88
F8
ENDCHAR
STARTCHAR char8508
ENCODING 8508
SWIDTH 1200 0
DWIDTH 12 0
BBX 3 11 9 -1
BITMAP
E0
C0
C0
80
80
80
80
80
C0
C0
E0
ENDCHAR
STARTCHAR char8509
ENCODING 8509
SWIDTH 1200 0
DWIDTH 12 0
BBX 3 11 1 -1
BITMAP
E0
60
60
20
20
20
20
20
60
60
E0
ENDCHAR
STARTCHAR char8510
ENCODING 8510
SWIDTH 1200 0
DWIDTH 12 0
BBX 7 9 3 0
BITMAP
10
10
10
FE
10
10
10
00
FE
ENDCHAR
STARTCHAR char8511
ENCODING 8511
SWIDTH 1200 0
DWIDTH 12 0
BBX 5 5 4 2
BITMAP
88
50
20
50
88
ENDCHAR
STARTCHAR char8512
ENCODING 8512
SWIDTH 1200 0
DWIDTH 12 0
BBX 7 7 3 1
BITMAP
10
10
00
FE
00
10
10
ENDCHAR
STARTCHAR char8513
ENCODING 8513
SWIDTH 1200 0
DWIDTH 12 0
BBX 8 7 2 0
BITMAP
40
20
FF
10
FF
04
02
ENDCHAR
STARTCHAR char8514
ENCODING 8514
SWIDTH 1200 0
DWIDTH 12 0
BBX 7 7 3 1
BITMAP
0C
30
C0
30
0C
00
FE
ENDCHAR
STARTCHAR char8515
ENCODING 8515
SWIDTH 1200 0
DWIDTH 12 0
BBX 7 7 2 1
BITMAP
60
18
06
18
60
00
FE
ENDCHAR
STARTCHAR char8516
ENCODING 8516
SWIDTH 1200 0
DWIDTH 12 0
BBX 11 5 1 1
BITMAP
71C0
8A20
8420
8A20
71C0
ENDCHAR
STARTCHAR char8517
ENCODING 8517
SWIDTH 1200 0
DWIDTH 12 0
BBX 7 6 3 2
BITMAP
10
10
00
00
82
82
ENDCHAR
STARTCHAR char8518
ENCODING 8518
SWIDTH 1200 0
DWIDTH 12 0
BBX 4 4 1 5
BITMAP
60
90
90
60
ENDCHAR
STARTCHAR char8519
ENCODING 8519
SWIDTH 1200 0
DWIDTH 12 0
BBX 3 3 1 6
BITMAP
60
40
80
ENDCHAR
STARTCHAR char8520
ENCODING 8520
SWIDTH 1200 0
DWIDTH 12 0
BBX 6 3 1 6
BITMAP
6C
48
90
ENDCHAR
STARTCHAR char8521
ENCODING 8521
SWIDTH 1200 0
DWIDTH 12 0
BBX 10 10 1 0
BITMAP
4000
A000
4740
08C0
1040
1000
1000
1040
0880
0700
ENDCHAR
STARTCHAR char8522
ENCODING 8522
SWIDTH 1200 0
DWIDTH 12 0
BBX 9 10 2 0
BITMAP
0800
1400
0800
0800
1400
1400
2200
3E00
4100
E380
ENDCHAR
STARTCHAR char8523
ENCODING 8523
SWIDTH 1200 0
DWIDTH 12 0
BBX 7 11 3 -1
BITMAP
04
04
3A
4E
92
90
A0
A2
44
78
80
ENDCHAR
STARTCHAR char8524
ENCODING 8524
SWIDTH 1200 0
DWIDTH 12 0
BBX 8 9 2 0
BITMAP
1C
22
22
20
FE
10
30
51
2E
ENDCHAR
STARTCHAR char8525
ENCODING 8525
SWIDTH 1200 0
DWIDTH 12 0
BBX 9 9 2 0
BITMAP
E380
4100
2200
1400
7F00
0800
7F00
0800
1C00
ENDCHAR
STARTCHAR char8526
ENCODING 8526
SWIDTH 1200 0
DWIDTH 12 0
BBX 7 11 3 -1
BITMAP
10
38
54
92
10
10
10
38
44
44
38
ENDCHAR
STARTCHAR char8527
ENCODING 8527
SWIDTH 1200 0
DWIDTH 12 0
BBX 7 11 3 -1
BITMAP
38
44
44
38
10
10
FE
10
10
10
10
ENDCHAR
STARTCHAR char8528
ENCODING 8528
SWIDTH 1200 0
DWIDTH 12 0
BBX 9 8 1 0
BITMAP
0100
0200
0400
0800
1000
2000
4000
FF80
ENDCHAR
STARTCHAR char8529
ENCODING 8529
SWIDTH 1200 0
DWIDTH 12 0
BBX 9 8 2 0
BITMAP
0800
0800
0800
0800
0800
0800
0800
FF80
ENDCHAR
STARTCHAR char8530
ENCODING 8530
SWIDTH 1200 0
DWIDTH 12 0
BBX 8 3 2 6
BITMAP
3C
42
81
ENDCHAR
STARTCHAR char8531
ENCODING 8531
SWIDTH 1200 0
DWIDTH 12 0
BBX 5 9 4 0
BITMAP
30
48
88
28
58
88
90
90
60
ENDCHAR
STARTCHAR char8532
ENCODING 8532
SWIDTH 1200 0
DWIDTH 12 0
BBX 11 10 1 -1
BITMAP
FFE0
4040
4040
2080
2080
1100
1100
0A00
0A00
0400
ENDCHAR
STARTCHAR char8533
ENCODING 8533
SWIDTH 1200 0
DWIDTH 12 0
BBX 9 5 2 2
BITMAP
FF80
0000
FF80
0000
FF80
ENDCHAR
STARTCHAR char8534
ENCODING 8534
SWIDTH 1200 0
DWIDTH 12 0
BBX 9 9 2 -1
BITMAP
6000
0000
0000
FF80
0000
FF80
0000
0000
0300
ENDCHAR
STARTCHAR char8535
ENCODING 8535
SWIDTH 1200 0
DWIDTH 12 0
BBX 5 10 4 -1
BITMAP
70
88
80
70
88
88
70
08
88
70
ENDCHAR
STARTCHAR char8536
ENCODING 8536
SWIDTH 1200 0
DWIDTH 12 0
BBX 9 9 2 0
BITMAP
8880
4900
2200
1400
C980
1400
2200
4900
8880
ENDCHAR
STARTCHAR char8537
ENCODING 8537
SWIDTH 1200 0
DWIDTH 12 0
BBX 11 11 1 -1
BITMAP
0400
0400
0A00
0A00
F1E0
4040
2080
1500
2A80
3180
4040
ENDCHAR
STARTCHAR char8538
ENCODING 8538
SWIDTH 1200 0
DWIDTH 12 0
BBX 11 11 1 -1
BITMAP
0400
0400
0E00
0E00
FFE0
7FC0
3F80
1F00
3B80
3180
4040
ENDCHAR
STARTCHAR char8539
ENCODING 8539
SWIDTH 1200 0
DWIDTH 12 0
BBX 10 10 2 -1
BITMAP
1E00
2100
4080
8040
8040
8040
8040
4080
2100
1E00
ENDCHAR
STARTCHAR char8540
ENCODING 8540
SWIDTH 1200 0
DWIDTH 12 0
BBX 10 10 2 -1
BITMAP
1E00
3F00
7F80
FFC0
FFC0
FFC0
FFC0
7F80
3F00
1E00
ENDCHAR
STARTCHAR char8541
ENCODING 8541
SWIDTH 1200 0
DWIDTH 12 0
BBX 10 10 2 -1
BITMAP
1E00
2100
4C80
9240
A140
A140
9240
4C80
2100
1E00
ENDCHAR
STARTCHAR char8542
ENCODING 8542
SWIDTH 1200 0
DWIDTH 12 0
BBX 11 11 1 -1
BITMAP
0400
0A00
1100
2080
4040
8020
4040
2080
1100
0A00
0400
ENDCHAR
STARTCHAR char8543
ENCODING 8543
SWIDTH 1200 0
DWIDTH 12 0
BBX 11 11 1 -1
BITMAP
0400
0E00
1F00
3F80
7FC0
FFE0
7FC0
3F80
1F00
0E00
0400
ENDCHAR
STARTCHAR char8544
ENCODING 8544
SWIDTH 1200 0
DWIDTH 12 0
BBX 10 10 1 -1
BITMAP
FFC0
8040
8040
8040
8040
8040
8040
8040
8040
FFC0
ENDCHAR
STARTCHAR char8545
ENCODING 8545
SWIDTH 1200 0
DWIDTH 12 0
BBX 10 10 1 -1
BITMAP
FFC0
FFC0
FFC0
FFC0
FFC0
FFC0
FFC0
FFC0
FFC0
FFC0
ENDCHAR
STARTCHAR char8546
ENCODING 8546
SWIDTH 1200 0
DWIDTH 12 0
BBX 9 10 2 -1
BITMAP
0800
0800
1400
1400
2200
2200
4100
4100
8080
FF80
ENDCHAR
STARTCHAR char8547
ENCODING 8547
SWIDTH 1200 0
DWIDTH 12 0
BBX 9 10 2 -1
BITMAP
0800
0800
1C00
1C00
3E00
3E00
7F00
7F00
FF80
FF80
ENDCHAR
STARTCHAR char8548
ENCODING 8548
SWIDTH 1200 0
DWIDTH 12 0
BBX 9 10 2 -1
BITMAP
FF80
8080
4100
4100
2200
2200
1400
1400
0800
0800
ENDCHAR
STARTCHAR char8549
ENCODING 8549
SWIDTH 1200 0
DWIDTH 12 0
BBX 9 10 2 -1
BITMAP
FF80
FF80
7F00
7F00
3E00
3E00
1C00
1C00
0800
0800
ENDCHAR
STARTCHAR char8550
ENCODING 8550
SWIDTH 1200 0
DWIDTH 12 0
BBX 10 5 1 2
BITMAP
0100
0080
FFC0
0080
0100
ENDCHAR
STARTCHAR char8551
ENCODING 8551
SWIDTH 1200 0
DWIDTH 12 0
BBX 10 5 1 2
BITMAP
2000
4000
FFC0
4000
2000
ENDCHAR
STARTCHAR char8552
ENCODING 8552
SWIDTH 1200 0
DWIDTH 12 0
BBX 5 10 4 0
BITMAP
20
70
A8
20
20
20
20
20
20
20
ENDCHAR
STARTCHAR char8553
ENCODING 8553
SWIDTH 1200 0
DWIDTH 12 0
BBX 5 10 4 -1
BITMAP
20
20
20
20
20
20
20
A8
70
20
ENDCHAR
STARTCHAR char8554
ENCODING 8554
SWIDTH 1200 0
DWIDTH 12 0
BBX 11 5 1 2
BITMAP
2080
4040
FFE0
4040
2080
ENDCHAR
STARTCHAR char8555
ENCODING 8555
SWIDTH 1200 0
DWIDTH 12 0
BBX 12 4 0 2
BITMAP
FFF0
0000
0000
FFF0
ENDCHAR
STARTCHAR char8556
ENCODING 8556
SWIDTH 1200 0
DWIDTH 12 0
BBX 10 7 2 1
BITMAP
0300
0CC0
3300
CC00
3300
0CC0
0300
ENDCHAR
STARTCHAR char8557
ENCODING 8557
SWIDTH 1200 0
DWIDTH 12 0
BBX 10 7 1 1
BITMAP
3000
CC00
3300
0CC0
3300
CC00
3000
ENDCHAR
STARTCHAR char8558
ENCODING 8558
SWIDTH 1200 0
DWIDTH 12 0
BBX 11 11 1 -1
BITMAP
07E0
0400
0400
0400
0800
2800
6800
A800
1000
1000
1000
ENDCHAR
STARTCHAR char8559
ENCODING 8559
SWIDTH 1200 0
DWIDTH 12 0
BBX 9 5 2 2
BITMAP
6300
8480
8880
9080
6300
ENDCHAR
STARTCHAR char8560
ENCODING 8560
SWIDTH 1200 0
DWIDTH 12 0
BBX 9 5 2 2
BITMAP
6380
9400
8800
9400
6380
ENDCHAR
STARTCHAR char8561
ENCODING 8561
SWIDTH 1200 0
DWIDTH 12 0
BBX 7 6 3 1
BITMAP
82
82
00
00
10
10
ENDCHAR
STARTCHAR char8562
ENCODING 8562
SWIDTH 1200 0
DWIDTH 12 0
BBX 4 11 4 -1
BITMAP
20
50
40
40
40
20
20
20
20
A0
40
ENDCHAR
STARTCHAR char8563
ENCODING 8563
SWIDTH 1200 0
DWIDTH 12 0
BBX 7 11 3 -1
BITMAP
24
5A
48
48
48
24
24
24
24
B4
48
ENDCHAR
STARTCHAR char8564
ENCODING 8564
SWIDTH 1200 0
DWIDTH 12 0
BBX 8 7 2 1
BITMAP
3F
40
80
FF
80
40
3F
ENDCHAR
STARTCHAR char8565
ENCODING 8565
SWIDTH 1200 0
DWIDTH 12 0
BBX 8 7 2 1
BITMAP
FC
02
01
FF
01
02
FC
ENDCHAR
STARTCHAR char8566
ENCODING 8566
SWIDTH 1200 0
DWIDTH 12 0
BBX 8 9 2 0
BITMAP
3F
40
80
80
40
3F
00
00
FF
ENDCHAR
STARTCHAR char8567
ENCODING 8567
SWIDTH 1200 0
DWIDTH 12 0
BBX 8 9 2 0
BITMAP
FC
02
01
01
02
FC
00
00
FF
ENDCHAR
STARTCHAR char8568
ENCODING 8568
SWIDTH 1200 0
DWIDTH 12 0
BBX 8 7 2 1
BITMAP
3F
40
80
80
80
40
3F
ENDCHAR
STARTCHAR char8569
ENCODING 8569
SWIDTH 1200 0
DWIDTH 12 0
BBX 8 7 2 1
BITMAP
FC
02
01
01
01
02
FC
ENDCHAR
STARTCHAR char8570
ENCODING 8570
SWIDTH 1200 0
DWIDTH 12 0
BBX 7 8 3 0
BITMAP
82
82
82
82
82
82
44
38
ENDCHAR
STARTCHAR char8571
ENCODING 8571
SWIDTH 1200 0
DWIDTH 12 0
BBX 7 8 3 0
BITMAP
38
44
82
82
82
82
82
82
ENDCHAR
STARTCHAR char8572
ENCODING 8572
SWIDTH 1200 0
DWIDTH 12 0
BBX 7 8 3 0
BITMAP
10
10
28
28
44
44
82
82
ENDCHAR
STARTCHAR char8573
ENCODING 8573
SWIDTH 1200 0
DWIDTH 12 0
BBX 7 8 3 0
BITMAP
82
82
44
44
28
28
10
10
ENDCHAR
STARTCHAR char8574
ENCODING 8574
SWIDTH 1200 0
DWIDTH 12 0
BBX 9 4 2 5
BITMAP
FF80
0080
0080
0080
ENDCHAR
STARTCHAR char8737
ENCODING 8737
SWIDTH 1200 0
DWIDTH 12 0
BBX 11 7 1 0
BITMAP
0100
0080
FFC0
0020
FFC0
0080
0100
ENDCHAR
STARTCHAR char8738
ENCODING 8738
SWIDTH 1200 0
DWIDTH 12 0
BBX 11 7 1 0
BITMAP
1100
2080
7FC0
8020
7FC0
2080
1100
ENDCHAR
STARTCHAR char8739
ENCODING 8739
SWIDTH 1200 0
DWIDTH 12 0
BBX 9 10 2 -1
BITMAP
8080
8080
4100
7F00
2200
2200
1400
1400
0800
0800
ENDCHAR
STARTCHAR char8740
ENCODING 8740
SWIDTH 1200 0
DWIDTH 12 0
BBX 8 9 2 0
BITMAP
FF
01
01
01
FF
01
01
01
FF
ENDCHAR
STARTCHAR char8741
ENCODING 8741
SWIDTH 1200 0
DWIDTH 12 0
BBX 3 3 4 6
BITMAP
60
40
80
ENDCHAR
STARTCHAR char8742
ENCODING 8742
SWIDTH 1200 0
DWIDTH 12 0
BBX 7 2 3 7
BITMAP
62
9C
ENDCHAR
STARTCHAR char8743
ENCODING 8743
SWIDTH 1200 0
DWIDTH 12 0
BBX 5 3 3 7
BITMAP
88
50
20
ENDCHAR
STARTCHAR char8744
ENCODING 8744
SWIDTH 1200 0
DWIDTH 12 0
BBX 5 3 3 7
BITMAP
88
88
70
ENDCHAR
STARTCHAR char8745
ENCODING 8745
SWIDTH 1200 0
DWIDTH 12 0
BBX 6 3 3 6
BITMAP
6C
48
90
ENDCHAR
STARTCHAR char8746
ENCODING 8746
SWIDTH 1200 0
DWIDTH 12 0
BBX 4 4 4 5
BITMAP
60
90
90
60
ENDCHAR
STARTCHAR char8747
ENCODING 8747
SWIDTH 1200 0
DWIDTH 12 0
BBX 2 2 5 7
BITMAP
C0
C0
ENDCHAR
STARTCHAR char8748
ENCODING 8748
SWIDTH 1200 0
DWIDTH 12 0
BBX 4 5 4 -1
BITMAP
20
40
60
10
E0
ENDCHAR
STARTCHAR char8749
ENCODING 8749
SWIDTH 1200 0
DWIDTH 12 0
BBX 3 4 5 -1
BITMAP
40
80
A0
40
ENDCHAR
STARTCHAR char8750
ENCODING 8750
SWIDTH 1200 0
DWIDTH 12 0
BBX 1 10 6 -1
BITMAP
80
80
00
80
80
80
80
80
80
80
ENDCHAR
STARTCHAR char8751
ENCODING 8751
SWIDTH 1200 0
DWIDTH 12 0
BBX 5 10 4 -1
BITMAP
20
20
00
20
20
40
88
88
50
20
ENDCHAR
STARTCHAR char8752
ENCODING 8752
SWIDTH 1200 0
DWIDTH 12 0
BBX 3 8 5 0
BITMAP
E0
40
00
00
00
00
40
E0
ENDCHAR
STARTCHAR char8753
ENCODING 8753
SWIDTH 1200 0
DWIDTH 12 0
BBX 5 11 4 -1
BITMAP
10
28
20
20
70
A8
70
20
20
A0
40
ENDCHAR
STARTCHAR char8754
ENCODING 8754
SWIDTH 1200 0
DWIDTH 12 0
BBX 8 9 2 0
BITMAP
FF
41
21
10
08
10
21
41
FF
ENDCHAR
STARTCHAR char8755
ENCODING 8755
SWIDTH 1200 0
DWIDTH 12 0
BBX 10 10 1 -1
BITMAP
FFC0
2100
2100
2100
2100
2100
2100
2100
2100
7380
ENDCHAR
STARTCHAR char8756
ENCODING 8756
SWIDTH 1200 0
DWIDTH 12 0
BBX 10 10 1 -1
BITMAP
8040
4C80
3300
2100
4080
4080
2100
3300
4C80
8040
ENDCHAR
STARTCHAR char8757
ENCODING 8757
SWIDTH 1200 0
DWIDTH 12 0
BBX 11 10 1 -1
BITMAP
4FC0
A440
A420
4480
0780
0480
0400
0400
0400
0E00
ENDCHAR
STARTCHAR char8758
ENCODING 8758
SWIDTH 1200 0
DWIDTH 12 0
BBX 10 10 1 -1
BITMAP
4100
A200
A400
4800
1000
2000
4880
9540
1540
0880
ENDCHAR
STARTCHAR char8759
ENCODING 8759
SWIDTH 1200 0
DWIDTH 12 0
BBX 10 11 1 -1
BITMAP
0040
01C0
0640
1840
6040
8040
6040
1840
0640
01C0
0040
ENDCHAR
STARTCHAR char8760
ENCODING 8760
SWIDTH 1200 0
DWIDTH 12 0
BBX 10 11 1 -1
BITMAP
0040
01C0
07C0
1FC0
7FC0
FFC0
7FC0
1FC0
07C0
01C0
0040
ENDCHAR
STARTCHAR char8761
ENCODING 8761
SWIDTH 1200 0
DWIDTH 12 0
BBX 10 11 1 -1
BITMAP
8000
E000
9800
8600
8180
8040
8180
8600
9800
E000
8000
ENDCHAR
STARTCHAR char8762
ENCODING 8762
SWIDTH 1200 0
DWIDTH 12 0
BBX 10 11 1 -1
BITMAP
8000
E000
F800
FE00
FF80
FFC0
FF80
FE00
F800
E000
8000
ENDCHAR
STARTCHAR char8763
ENCODING 8763
SWIDTH 1200 0
DWIDTH 12 0
BBX 11 11 1 -1
BITMAP
0400
0A00
1100
2080
4040
8020
8420
4E40
3580
0400
0E00
ENDCHAR
STARTCHAR char8764
ENCODING 8764
SWIDTH 1200 0
DWIDTH 12 0
BBX 11 11 1 -1
BITMAP
0400
0E00
1F00
3F80
7FC0
FFE0
FFE0
7FC0
3580
0400
0E00
ENDCHAR
STARTCHAR char8765
ENCODING 8765
SWIDTH 1200 0
DWIDTH 12 0
BBX 11 11 1 -1
BITMAP
3180
4A40
8420
8020
8020
4040
4040
2080
1100
0A00
0400
ENDCHAR
STARTCHAR char8766
ENCODING 8766
SWIDTH 1200 0
DWIDTH 12 0
BBX 11 11 1 -1
BITMAP
3180
7BC0
FFE0
FFE0
FFE0
7FC0
7FC0
3F80
1F00
0E00
0400
ENDCHAR
STARTCHAR char8767
ENCODING 8767
SWIDTH 1200 0
DWIDTH 12 0
BBX 11 11 1 -1
BITMAP
0E00
1100
1100
1100
0A00
7BC0
8020
8A20
75C0
0400
0E00
ENDCHAR
STARTCHAR char8768
ENCODING 8768
SWIDTH 1200 0
DWIDTH 12 0
BBX 11 11 1 -1
BITMAP
0E00
1F00
1F00
1F00
0E00
75C0
FFE0
FFE0
75C0
0400
0E00
ENDCHAR
STARTCHAR char8769
ENCODING 8769
SWIDTH 1200 0
DWIDTH 12 0
BBX 10 10 2 -1
BITMAP
1E00
2100
4080
8C40
9E40
9E40
8C40
4080
2100
1E00
ENDCHAR
STARTCHAR char8770
ENCODING 8770
SWIDTH 1200 0
DWIDTH 12 0
BBX 11 11 1 -1
BITMAP
0400
0A00
1500
2E80
5F40
BFA0
5F40
2E80
1500
0A00
0400
ENDCHAR
STARTCHAR char8771
ENCODING 8771
SWIDTH 1200 0
DWIDTH 12 0
BBX 10 10 1 -1
BITMAP
FFC0
8040
8040
9E40
9E40
9E40
9E40
8040
8040
FFC0
ENDCHAR
STARTCHAR char8772
ENCODING 8772
SWIDTH 1200 0
DWIDTH 12 0
BBX 10 10 1 -1
BITMAP
1E00
3900
7880
F840
F840
F840
F840
7880
3900
1E00
ENDCHAR
STARTCHAR char8773
ENCODING 8773
SWIDTH 1200 0
DWIDTH 12 0
BBX 10 10 1 -1
BITMAP
1E00
2700
4780
87C0
87C0
87C0
87C0
4780
2700
1E00
ENDCHAR
STARTCHAR char8774
ENCODING 8774
SWIDTH 1200 0
DWIDTH 12 0
BBX 10 10 1 -1
BITMAP
FFC0
9240
8040
A4C0
8040
9240
8040
A4C0
8040
FFC0
ENDCHAR
STARTCHAR char8775
ENCODING 8775
SWIDTH 1200 0
DWIDTH 12 0
BBX 10 10 1 -1
BITMAP
FFC0
8040
8040
FFC0
8040
8040
FFC0
8040
8040
FFC0
ENDCHAR
STARTCHAR char8776
ENCODING 8776
SWIDTH 1200 0
DWIDTH 12 0
BBX 10 10 1 -1
BITMAP
FFC0
9240
9240
9240
9240
9240
9240
9240
9240
FFC0
ENDCHAR
STARTCHAR char8777
ENCODING 8777
SWIDTH 1200 0
DWIDTH 12 0
BBX 10 10 1 -1
BITMAP
FFC0
88C0
9140
A240
C440
88C0
9140
A240
C440
FFC0
ENDCHAR
STARTCHAR char8778
ENCODING 8778
SWIDTH 1200 0
DWIDTH 12 0
BBX 10 10 1 -1
BITMAP
FFC0
C440
A240
9140
88C0
C440
A240
9140
88C0
FFC0
ENDCHAR
STARTCHAR char8779
ENCODING 8779
SWIDTH 1200 0
DWIDTH 12 0
BBX 10 10 1 -1
BITMAP
FFC0
9240
9240
FFC0
9240
9240
FFC0
9240
9240
FFC0
ENDCHAR
STARTCHAR char8780
ENCODING 8780
SWIDTH 1200 0
DWIDTH 12 0
BBX 10 10 1 -1
BITMAP
FFC0
AAC0
9140
AAC0
C440
AAC0
9140
AAC0
C440
FFC0
ENDCHAR
STARTCHAR char8781
ENCODING 8781
SWIDTH 1200 0
DWIDTH 12 0
BBX 11 11 1 -1
BITMAP
1500
2A00
2A00
2A00
1500
5540
AA20
8020
E0E0
7FC0
1F00
ENDCHAR
STARTCHAR char8782
ENCODING 8782
SWIDTH 1200 0
DWIDTH 12 0
BBX 11 10 1 -1
BITMAP
3F80
4040
9F20
9120
E4E0
2A80
4A40
4440
4040
7FC0
ENDCHAR
STARTCHAR char8783
ENCODING 8783
SWIDTH 1200 0
DWIDTH 12 0
BBX 11 10 1 -1
BITMAP
3F80
7FC0
F1E0
FFE0
EEE0
3B80
71C0
71C0
7BC0
7FC0
ENDCHAR
STARTCHAR char8784
ENCODING 8784
SWIDTH 1200 0
DWIDTH 12 0
BBX 11 9 1 0
BITMAP
7FA0
8060
7C60
2060
1C60
2060
1C60
2060
1FA0
ENDCHAR
STARTCHAR char8785
ENCODING 8785
SWIDTH 1200 0
DWIDTH 12 0
BBX 11 9 1 0
BITMAP
BFC0
C020
C7C0
C080
C700
C080
C700
C080
BF00
ENDCHAR
STARTCHAR char8786
ENCODING 8786
SWIDTH 1200 0
DWIDTH 12 0
BBX 9 11 1 -1
BITMAP
3F80
4A00
8A00
8A00
4A00
3A00
0A00
0A00
0A00
0A00
3B80
ENDCHAR
STARTCHAR char8787
ENCODING 8787
SWIDTH 1200 0
DWIDTH 12 0
BBX 9 11 2 -1
BITMAP
0800
0800
0800
FF80
0800
0800
0800
0800
0800
0800
0800
ENDCHAR
STARTCHAR char8788
ENCODING 8788
SWIDTH 1200 0
DWIDTH 12 0
BBX 9 11 2 -1
BITMAP
0800
0800
FF80
0800
0800
7F00
0800
0800
0800
0800
0800
ENDCHAR
STARTCHAR char8789
ENCODING 8789
SWIDTH 1200 0
DWIDTH 12 0
BBX 5 11 4 -1
BITMAP
20
70
A8
20
20
20
20
20
A8
70
20
ENDCHAR
STARTCHAR char8790
ENCODING 8790
SWIDTH 1200 0
DWIDTH 12 0
BBX 9 9 2 0
BITMAP
0F80
0180
0280
0480
0880
1000
2000
4000
8000
ENDCHAR
STARTCHAR char8791
ENCODING 8791
SWIDTH 1200 0
DWIDTH 12 0
BBX 9 9 2 0
BITMAP
0080
0100
0200
0400
8800
9000
A000
C000
F000
ENDCHAR
STARTCHAR char8792
ENCODING 8792
SWIDTH 1200 0
DWIDTH 12 0
BBX 9 9 2 -1
BITMAP
F800
C000
A000
9000
8800
0400
0200
0100
0080
ENDCHAR
STARTCHAR char8793
ENCODING 8793
SWIDTH 1200 0
DWIDTH 12 0
BBX 9 9 2 -1
BITMAP
8000
4000
2000
1000
0880
0480
0280
0180
0F80
ENDCHAR
STARTCHAR char8794
ENCODING 8794
SWIDTH 1200 0
DWIDTH 12 0
BBX 5 11 4 -1
BITMAP
80
80
80
80
B0
C8
88
88
90
A0
C0
ENDCHAR
STARTCHAR char8795
ENCODING 8795
SWIDTH 1200 0
DWIDTH 12 0
BBX 3 11 4 -1
BITMAP
20
20
20
20
20
20
20
20
60
E0
C0
ENDCHAR
STARTCHAR char8796
ENCODING 8796
SWIDTH 1200 0
DWIDTH 12 0
BBX 7 11 4 -1
BITMAP
20
30
28
24
22
22
24
28
60
E0
C0
ENDCHAR
STARTCHAR char8797
ENCODING 8797
SWIDTH 1200 0
DWIDTH 12 0
BBX 9 11 1 -1
BITMAP
0380
0C80
3080
2380
2C80
3080
2080
2180
6380
E300
C000
ENDCHAR
STARTCHAR char8798
ENCODING 8798
SWIDTH 1200 0
DWIDTH 12 0
BBX 11 11 1 -1
BITMAP
0E00
3180
4040
9B20
8A00
ECE0
0A20
9B20
4040
3180
0E00
ENDCHAR
STARTCHAR char8799
ENCODING 8799
SWIDTH 1200 0
DWIDTH 12 0
BBX 11 11 1 -1
BITMAP
2080
4040
5F40
8620
8920
B0A0
BFA0
8420
4440
4440
2480
ENDCHAR
STARTCHAR char8800
ENCODING 8800
SWIDTH 1200 0
DWIDTH 12 0
BBX 11 9 1 0
BITMAP
DC00
4800
6800
6800
5980
5A40
4A40
4A40
E9A0
ENDCHAR
STARTCHAR char8801
ENCODING 8801
SWIDTH 1200 0
DWIDTH 12 0
BBX 11 9 1 0
BITMAP
2800
5800
8800
8000
8180
8240
8240
4A40
31A0
ENDCHAR
STARTCHAR char8802
ENCODING 8802
SWIDTH 1200 0
DWIDTH 12 0
BBX 11 6 1 4
BITMAP
FE20
AB60
AB60
22A0
2220
7760
ENDCHAR
STARTCHAR char8803
ENCODING 8803
SWIDTH 1200 0
DWIDTH 12 0
BBX 11 6 1 0
BITMAP
6E80
9540
7540
9540
9540
6D60
ENDCHAR
STARTCHAR char8804
ENCODING 8804
SWIDTH 1200 0
DWIDTH 12 0
BBX 11 7 1 -1
BITMAP
EE80
9540
9540
9540
E540
9560
8000
ENDCHAR
STARTCHAR char8805
ENCODING 8805
SWIDTH 1200 0
DWIDTH 12 0
BBX 11 9 1 0
BITMAP
F8C0
A840
A840
2640
2940
2F40
2840
2940
76E0
ENDCHAR
STARTCHAR char8806
ENCODING 8806
SWIDTH 1200 0
DWIDTH 12 0
BBX 0 0 0 0
BITMAP
ENDCHAR
STARTCHAR char8807
ENCODING 8807
SWIDTH 1200 0
DWIDTH 12 0
BBX 0 0 0 0
BITMAP
ENDCHAR
STARTCHAR char8808
ENCODING 8808
SWIDTH 1200 0
DWIDTH 12 0
BBX 0 0 0 0
BITMAP
ENDCHAR
STARTCHAR char8809
ENCODING 8809
SWIDTH 1200 0
DWIDTH 12 0
BBX 0 0 0 0
BITMAP
ENDCHAR
STARTCHAR char8810
ENCODING 8810
SWIDTH 1200 0
DWIDTH 12 0
BBX 0 0 0 0
BITMAP
ENDCHAR
STARTCHAR char8811
ENCODING 8811
SWIDTH 1200 0
DWIDTH 12 0
BBX 0 0 0 0
BITMAP
ENDCHAR
STARTCHAR char8812
ENCODING 8812
SWIDTH 1200 0
DWIDTH 12 0
BBX 0 0 0 0
BITMAP
ENDCHAR
STARTCHAR char8813
ENCODING 8813
SWIDTH 1200 0
DWIDTH 12 0
BBX 0 0 0 0
BITMAP
ENDCHAR
STARTCHAR char8814
ENCODING 8814
SWIDTH 1200 0
DWIDTH 12 0
BBX 0 0 0 0
BITMAP
ENDCHAR
STARTCHAR char8815
ENCODING 8815
SWIDTH 1200 0
DWIDTH 12 0
BBX 0 0 0 0
BITMAP
ENDCHAR
STARTCHAR char8816
ENCODING 8816
SWIDTH 1200 0
DWIDTH 12 0
BBX 0 0 0 0
BITMAP
ENDCHAR
STARTCHAR char8817
ENCODING 8817
SWIDTH 1200 0
DWIDTH 12 0
BBX 0 0 0 0
BITMAP
ENDCHAR
STARTCHAR char8818
ENCODING 8818
SWIDTH 1200 0
DWIDTH 12 0
BBX 0 0 0 0
BITMAP
ENDCHAR
STARTCHAR char8819
ENCODING 8819
SWIDTH 1200 0
DWIDTH 12 0
BBX 0 0 0 0
BITMAP
ENDCHAR
STARTCHAR char8820
ENCODING 8820
SWIDTH 1200 0
DWIDTH 12 0
BBX 0 0 0 0
BITMAP
ENDCHAR
STARTCHAR char8821
ENCODING 8821
SWIDTH 1200 0
DWIDTH 12 0
BBX 0 0 0 0
BITMAP
ENDCHAR
STARTCHAR char8822
ENCODING 8822
SWIDTH 1200 0
DWIDTH 12 0
BBX 0 0 0 0
BITMAP
ENDCHAR
STARTCHAR char8823
ENCODING 8823
SWIDTH 1200 0
DWIDTH 12 0
BBX 0 0 0 0
BITMAP
ENDCHAR
STARTCHAR char8824
ENCODING 8824
SWIDTH 1200 0
DWIDTH 12 0
BBX 0 0 0 0
BITMAP
ENDCHAR
STARTCHAR char8825
ENCODING 8825
SWIDTH 1200 0
DWIDTH 12 0
BBX 0 0 0 0
BITMAP
ENDCHAR
STARTCHAR char8826
ENCODING 8826
SWIDTH 1200 0
DWIDTH 12 0
BBX 0 0 0 0
BITMAP
ENDCHAR
STARTCHAR char8827
ENCODING 8827
SWIDTH 1200 0
DWIDTH 12 0
BBX 0 0 0 0
BITMAP
ENDCHAR
STARTCHAR char8828
ENCODING 8828
SWIDTH 1200 0
DWIDTH 12 0
BBX 0 0 0 0
BITMAP
ENDCHAR
STARTCHAR char8829
ENCODING 8829
SWIDTH 1200 0
DWIDTH 12 0
BBX 0 0 0 0
BITMAP
ENDCHAR
STARTCHAR char8830
ENCODING 8830
SWIDTH 1200 0
DWIDTH 12 0
BBX 0 0 0 0
BITMAP
ENDCHAR
STARTCHAR char8993
ENCODING 8993
SWIDTH 1200 0
DWIDTH 12 0
BBX 1 9 5 0
BITMAP
80
80
80
80
80
80
00
80
80
ENDCHAR
STARTCHAR char8994
ENCODING 8994
SWIDTH 1200 0
DWIDTH 12 0
BBX 4 3 4 6
BITMAP
90
90
90
ENDCHAR
STARTCHAR char8995
ENCODING 8995
SWIDTH 1200 0
DWIDTH 12 0
BBX 8 9 2 0
BITMAP
24
24
FF
24
24
24
FF
24
24
ENDCHAR
STARTCHAR char8996
ENCODING 8996
SWIDTH 1200 0
DWIDTH 12 0
BBX 5 11 4 -1
BITMAP
20
78
A8
A0
60
30
28
A8
F0
20
20
ENDCHAR
STARTCHAR char8997
ENCODING 8997
SWIDTH 1200 0
DWIDTH 12 0
BBX 10 10 1 0
BITMAP
6000
9080
9100
9200
6400
0980
1240
2240
4240
8180
ENDCHAR
STARTCHAR char8998
ENCODING 8998
SWIDTH 1200 0
DWIDTH 12 0
BBX 8 10 3 0
BITMAP
30
48
48
30
27
52
92
8C
8C
73
ENDCHAR
STARTCHAR char8999
ENCODING 8999
SWIDTH 1200 0
DWIDTH 12 0
BBX 1 2 6 7
BITMAP
80
80
ENDCHAR
STARTCHAR char9000
ENCODING 9000
SWIDTH 1200 0
DWIDTH 12 0
BBX 3 11 9 -1
BITMAP
20
40
40
80
80
80
80
80
40
40
20
ENDCHAR
STARTCHAR char9001
ENCODING 9001
SWIDTH 1200 0
DWIDTH 12 0
BBX 3 11 1 -1
BITMAP
80
40
40
20
20
20
20
20
40
40
80
ENDCHAR
STARTCHAR char9002
ENCODING 9002
SWIDTH 1200 0
DWIDTH 12 0
BBX 5 6 4 1
BITMAP
20
A8
70
70
A8
20
ENDCHAR
STARTCHAR char9003
ENCODING 9003
SWIDTH 1200 0
DWIDTH 12 0
BBX 7 7 3 1
BITMAP
10
10
10
FE
10
10
10
ENDCHAR
STARTCHAR char9004
ENCODING 9004
SWIDTH 1200 0
DWIDTH 12 0
BBX 2 3 1 -1
BITMAP
40
40
80
ENDCHAR
STARTCHAR char9005
ENCODING 9005
SWIDTH 1200 0
DWIDTH 12 0
BBX 7 1 3 4
BITMAP
FE
ENDCHAR
STARTCHAR char9006
ENCODING 9006
SWIDTH 1200 0
DWIDTH 12 0
BBX 1 2 2 -1
BITMAP
80
80
ENDCHAR
STARTCHAR char9007
ENCODING 9007
SWIDTH 1200 0
DWIDTH 12 0
BBX 5 10 4 -1
BITMAP
08
08
10
10
20
20
40
40
80
80
ENDCHAR
STARTCHAR char9008
ENCODING 9008
SWIDTH 1200 0
DWIDTH 12 0
BBX 6 9 3 0
BITMAP
30
48
84
84
84
84
84
48
30
ENDCHAR
STARTCHAR char9009
ENCODING 9009
SWIDTH 1200 0
DWIDTH 12 0
BBX 3 9 5 0
BITMAP
40
C0
40
40
40
40
40
40
E0
ENDCHAR
STARTCHAR char9010
ENCODING 9010
SWIDTH 1200 0
DWIDTH 12 0
BBX 5 9 3 0
BITMAP
70
88
88
08
10
20
40
88
F8
ENDCHAR
STARTCHAR char9011
ENCODING 9011
SWIDTH 1200 0
DWIDTH 12 0
BBX 5 9 3 0
BITMAP
70
88
08
08
70
08
08
88
70
ENDCHAR
STARTCHAR char9012
ENCODING 9012
SWIDTH 1200 0
DWIDTH 12 0
BBX 5 9 3 0
BITMAP
10
30
30
50
50
90
F8
10
38
ENDCHAR
STARTCHAR char9013
ENCODING 9013
SWIDTH 1200 0
DWIDTH 12 0
BBX 5 9 3 0
BITMAP
F8
80
80
F0
88
08
08
88
70
ENDCHAR
STARTCHAR char9014
ENCODING 9014
SWIDTH 1200 0
DWIDTH 12 0
BBX 5 9 3 0
BITMAP
70
88
80
80
F0
88
88
88
70
ENDCHAR
STARTCHAR char9015
ENCODING 9015
SWIDTH 1200 0
DWIDTH 12 0
BBX 5 9 3 0
BITMAP
F8
88
88
10
10
10
20
20
20
ENDCHAR
STARTCHAR char9016
ENCODING 9016
SWIDTH 1200 0
DWIDTH 12 0
BBX 5 9 3 0
BITMAP
70
88
88
88
70
88
88
88
70
ENDCHAR
STARTCHAR char9017
ENCODING 9017
SWIDTH 1200 0
DWIDTH 12 0
BBX 5 9 3 0
BITMAP
70
88
88
88
78
08
08
88
70
ENDCHAR
STARTCHAR char9018
ENCODING 9018
SWIDTH 1200 0
DWIDTH 12 0
BBX 1 7 6 1
BITMAP
80
80
00
00
00
80
80
ENDCHAR
STARTCHAR char9019
ENCODING 9019
SWIDTH 1200 0
DWIDTH 12 0
BBX 2 8 5 0
BITMAP
40
40
00
00
00
40
40
80
ENDCHAR
STARTCHAR char9020
ENCODING 9020
SWIDTH 1200 0
DWIDTH 12 0
BBX 8 7 2 1
BITMAP
03
0C
30
C0
30
0C
03
ENDCHAR
STARTCHAR char9021
ENCODING 9021
SWIDTH 1200 0
DWIDTH 12 0
BBX 6 4 3 2
BITMAP
FC
00
00
FC
ENDCHAR
STARTCHAR char9022
ENCODING 9022
SWIDTH 1200 0
DWIDTH 12 0
BBX 8 7 2 1
BITMAP
C0
30
0C
03
0C
30
C0
ENDCHAR
STARTCHAR char9023
ENCODING 9023
SWIDTH 1200 0
DWIDTH 12 0
BBX 5 9 3 0
BITMAP
70
88
88
08
10
20
20
00
20
ENDCHAR
STARTCHAR char9024
ENCODING 9024
SWIDTH 1200 0
DWIDTH 12 0
BBX 9 9 1 0
BITMAP
3E00
4100
9A80
A680
A280
A480
9B00
4000
3F00
ENDCHAR
STARTCHAR char9025
ENCODING 9025
SWIDTH 1200 0
DWIDTH 12 0
BBX 9 9 2 0
BITMAP
0800
0800
1400
1400
2200
3E00
4100
4100
E380
ENDCHAR
STARTCHAR char9026
ENCODING 9026
SWIDTH 1200 0
DWIDTH 12 0
BBX 7 9 3 0
BITMAP
FC
42
42
42
7C
42
42
42
FC
ENDCHAR
STARTCHAR char9027
ENCODING 9027
SWIDTH 1200 0
DWIDTH 12 0
BBX 7 9 3 0
BITMAP
3A
46
82
80
80
80
80
42
3C
ENDCHAR
STARTCHAR char9028
ENCODING 9028
SWIDTH 1200 0
DWIDTH 12 0
BBX 7 9 3 0
BITMAP
F8
44
42
42
42
42
42
44
F8
ENDCHAR
STARTCHAR char9029
ENCODING 9029
SWIDTH 1200 0
DWIDTH 12 0
BBX 7 9 3 0
BITMAP
FE
42
42
48
78
48
42
42
FE
ENDCHAR
STARTCHAR char9030
ENCODING 9030
SWIDTH 1200 0
DWIDTH 12 0
BBX 7 9 3 0
BITMAP
FE
42
42
48
78
48
40
40
E0
ENDCHAR
STARTCHAR char9031
ENCODING 9031
SWIDTH 1200 0
DWIDTH 12 0
BBX 8 9 2 0
BITMAP
3A
46
82
80
8F
82
82
46
3A
ENDCHAR
STARTCHAR char9032
ENCODING 9032
SWIDTH 1200 0
DWIDTH 12 0
BBX 8 9 2 0
BITMAP
E7
42
42
42
7E
42
42
42
E7
ENDCHAR
STARTCHAR char9033
ENCODING 9033
SWIDTH 1200 0
DWIDTH 12 0
BBX 3 9 5 0
BITMAP
E0
40
40
40
40
40
40
40
E0
ENDCHAR
STARTCHAR char9034
ENCODING 9034
SWIDTH 1200 0
DWIDTH 12 0
BBX 5 9 3 0
BITMAP
38
10
10
10
10
10
10
90
60
ENDCHAR
STARTCHAR char9035
ENCODING 9035
SWIDTH 1200 0
DWIDTH 12 0
BBX 7 9 3 0
BITMAP
EE
44
48
50
60
50
48
44
EE
ENDCHAR
STARTCHAR char9036
ENCODING 9036
SWIDTH 1200 0
DWIDTH 12 0
BBX 7 9 3 0
BITMAP
E0
40
40
40
40
40
42
42
FE
ENDCHAR
STARTCHAR char9037
ENCODING 9037
SWIDTH 1200 0
DWIDTH 12 0
BBX 9 9 2 0
BITMAP
C180
6300
6300
5500
5500
4900
4900
4100
E380
ENDCHAR
STARTCHAR char9038
ENCODING 9038
SWIDTH 1200 0
DWIDTH 12 0
BBX 8 9 2 0
BITMAP
C7
62
62
52
52
4A
4A
46
E6
ENDCHAR
STARTCHAR char9039
ENCODING 9039
SWIDTH 1200 0
DWIDTH 12 0
BBX 7 9 3 0
BITMAP
38
44
82
82
82
82
82
44
38
ENDCHAR
STARTCHAR char9040
ENCODING 9040
SWIDTH 1200 0
DWIDTH 12 0
BBX 7 9 3 0
BITMAP
FC
42
42
42
7C
40
40
40
E0
ENDCHAR
STARTCHAR char9041
ENCODING 9041
SWIDTH 1200 0
DWIDTH 12 0
BBX 8 9 3 0
BITMAP
38
44
82
82
82
82
BA
44
3B
ENDCHAR
STARTCHAR char9042
ENCODING 9042
SWIDTH 1200 0
DWIDTH 12 0
BBX 8 9 3 0
BITMAP
FC
42
42
42
7C
44
42
42
E7
ENDCHAR
STARTCHAR char9043
ENCODING 9043
SWIDTH 1200 0
DWIDTH 12 0
BBX 6 9 3 0
BITMAP
74
8C
84
40
30
08
84
C4
B8
ENDCHAR
STARTCHAR char9044
ENCODING 9044
SWIDTH 1200 0
DWIDTH 12 0
BBX 7 9 3 0
BITMAP
FE
92
92
10
10
10
10
10
38
ENDCHAR
STARTCHAR char9045
ENCODING 9045
SWIDTH 1200 0
DWIDTH 12 0
BBX 9 9 2 0
BITMAP
E380
4100
4100
4100
4100
4100
4100
2200
1C00
ENDCHAR
STARTCHAR char9046
ENCODING 9046
SWIDTH 1200 0
DWIDTH 12 0
BBX 9 9 2 0
BITMAP
E380
4100
4100
2200
2200
1400
1400
0800
0800
ENDCHAR
STARTCHAR char9047
ENCODING 9047
SWIDTH 1200 0
DWIDTH 12 0
BBX 11 9 1 0
BITMAP
EEE0
4440
4440
2A80
2A80
2A80
1100
1100
1100
ENDCHAR
STARTCHAR char9048
ENCODING 9048
SWIDTH 1200 0
DWIDTH 12 0
BBX 9 9 2 0
BITMAP
E380
4100
2200
1400
0800
1400
2200
4100
E380
ENDCHAR
STARTCHAR char9049
ENCODING 9049
SWIDTH 1200 0
DWIDTH 12 0
BBX 9 9 2 0
BITMAP
E380
4100
2200
1400
0800
0800
0800
0800
1C00
ENDCHAR
STARTCHAR char9050
ENCODING 9050
SWIDTH 1200 0
DWIDTH 12 0
BBX 6 9 3 0
BITMAP
FC
84
08
10
20
20
40
84
FC
ENDCHAR
STARTCHAR char9051
ENCODING 9051
SWIDTH 1200 0
DWIDTH 12 0
BBX 3 11 9 -1
BITMAP
E0
80
80
80
80
80
80
80
80
80
E0
ENDCHAR
STARTCHAR char9052
ENCODING 9052
SWIDTH 1200 0
DWIDTH 12 0
BBX 11 9 1 0
BITMAP
EEE0
4440
4440
FFE0
2A80
2A80
1100
1100
1100
ENDCHAR
STARTCHAR char9053
ENCODING 9053
SWIDTH 1200 0
DWIDTH 12 0
BBX 3 11 1 -1
BITMAP
E0
20
20
20
20
20
20
20
20
20
E0
ENDCHAR
STARTCHAR char9054
ENCODING 9054
SWIDTH 1200 0
DWIDTH 12 0
BBX 5 3 4 7
BITMAP
20
50
88
ENDCHAR
STARTCHAR char9055
ENCODING 9055
SWIDTH 1200 0
DWIDTH 12 0
BBX 10 1 1 -1
BITMAP
FFC0
ENDCHAR
STARTCHAR char9056
ENCODING 9056
SWIDTH 1200 0
DWIDTH 12 0
BBX 3 3 4 6
BITMAP
C0
40
20
ENDCHAR
STARTCHAR char9057
ENCODING 9057
SWIDTH 1200 0
DWIDTH 12 0
BBX 6 6 3 0
BITMAP
70
88
78
88
88
74
ENDCHAR
STARTCHAR char9058
ENCODING 9058
SWIDTH 1200 0
DWIDTH 12 0
BBX 6 9 3 0
BITMAP
C0
40
40
78
44
44
44
44
78
ENDCHAR
STARTCHAR char9059
ENCODING 9059
SWIDTH 1200 0
DWIDTH 12 0
BBX 5 6 3 0
BITMAP
70
88
80
80
88
70
ENDCHAR
STARTCHAR char9060
ENCODING 9060
SWIDTH 1200 0
DWIDTH 12 0
BBX 6 9 3 0
BITMAP
18
08
08
78
88
88
88
88
7C
ENDCHAR
STARTCHAR char9061
ENCODING 9061
SWIDTH 1200 0
DWIDTH 12 0
BBX 5 6 3 0
BITMAP
70
88
F8
80
88
70
ENDCHAR
STARTCHAR char9062
ENCODING 9062
SWIDTH 1200 0
DWIDTH 12 0
BBX 5 9 3 0
BITMAP
10
28
20
F8
20
20
20
20
70
ENDCHAR
STARTCHAR char9063
ENCODING 9063
SWIDTH 1200 0
DWIDTH 12 0
BBX 6 7 3 -1
BITMAP
74
88
70
80
78
84
78
ENDCHAR
STARTCHAR char9064
ENCODING 9064
SWIDTH 1200 0
DWIDTH 12 0
BBX 7 9 3 0
BITMAP
C0
40
40
78
44
44
44
44
EE
ENDCHAR
STARTCHAR char9065
ENCODING 9065
SWIDTH 1200 0
DWIDTH 12 0
BBX 3 9 5 0
BITMAP
40
00
00
C0
40
40
40
40
E0
ENDCHAR
STARTCHAR char9066
ENCODING 9066
SWIDTH 1200 0
DWIDTH 12 0
BBX 4 10 3 -1
BITMAP
10
00
00
30
10
10
10
10
90
60
ENDCHAR
STARTCHAR char9067
ENCODING 9067
SWIDTH 1200 0
DWIDTH 12 0
BBX 7 9 3 0
BITMAP
C0
40
40
5C
48
70
48
44
EE
ENDCHAR
STARTCHAR char9068
ENCODING 9068
SWIDTH 1200 0
DWIDTH 12 0
BBX 3 9 5 0
BITMAP
C0
40
40
40
40
40
40
40
E0
ENDCHAR
STARTCHAR char9069
ENCODING 9069
SWIDTH 1200 0
DWIDTH 12 0
BBX 9 6 2 0
BITMAP
F600
4900
4900
4900
4900
DD80
ENDCHAR
STARTCHAR char9070
ENCODING 9070
SWIDTH 1200 0
DWIDTH 12 0
BBX 7 6 3 0
BITMAP
F8
44
44
44
44
EE
ENDCHAR
STARTCHAR char9071
ENCODING 9071
SWIDTH 1200 0
DWIDTH 12 0
BBX 5 6 3 0
BITMAP
70
88
88
88
88
70
ENDCHAR
STARTCHAR char9072
ENCODING 9072
SWIDTH 1200 0
DWIDTH 12 0
BBX 6 7 3 -1
BITMAP
F8
44
44
44
78
40
E0
ENDCHAR
STARTCHAR char9073
ENCODING 9073
SWIDTH 1200 0
DWIDTH 12 0
BBX 6 7 3 -1
BITMAP
78
88
88
88
78
08
1C
ENDCHAR
STARTCHAR char9074
ENCODING 9074
SWIDTH 1200 0
DWIDTH 12 0
BBX 5 6 3 0
BITMAP
D8
60
40
40
40
E0
ENDCHAR
STARTCHAR char9075
ENCODING 9075
SWIDTH 1200 0
DWIDTH 12 0
BBX 5 6 3 0
BITMAP
78
88
60
10
88
F0
ENDCHAR
STARTCHAR char9076
ENCODING 9076
SWIDTH 1200 0
DWIDTH 12 0
BBX 5 9 4 0
BITMAP
40
40
40
F0
40
40
40
48
30
ENDCHAR
STARTCHAR char9077
ENCODING 9077
SWIDTH 1200 0
DWIDTH 12 0
BBX 7 6 2 0
BITMAP
CC
44
44
44
44
3A
ENDCHAR
STARTCHAR char9078
ENCODING 9078
SWIDTH 1200 0
DWIDTH 12 0
BBX 7 6 3 0
BITMAP
EE
44
28
28
10
10
ENDCHAR
STARTCHAR char9079
ENCODING 9079
SWIDTH 1200 0
DWIDTH 12 0
BBX 9 6 2 0
BITMAP
EB80
4900
4900
3600
2200
2200
ENDCHAR
STARTCHAR char9080
ENCODING 9080
SWIDTH 1200 0
DWIDTH 12 0
BBX 6 6 3 0
BITMAP
CC
48
30
30
48
CC
ENDCHAR
STARTCHAR char9081
ENCODING 9081
SWIDTH 1200 0
DWIDTH 12 0
BBX 7 7 3 -1
BITMAP
EE
44
24
28
18
90
60
ENDCHAR
STARTCHAR char9082
ENCODING 9082
SWIDTH 1200 0
DWIDTH 12 0
BBX 5 6 3 0
BITMAP
F8
90
20
40
88
F8
ENDCHAR
STARTCHAR char9083
ENCODING 9083
SWIDTH 1200 0
DWIDTH 12 0
BBX 4 11 8 -1
BITMAP
10
20
20
20
20
C0
20
20
20
20
10
ENDCHAR
STARTCHAR char9084
ENCODING 9084
SWIDTH 1200 0
DWIDTH 12 0
BBX 1 11 6 -1
BITMAP
80
80
80
80
80
80
80
80
80
80
80
ENDCHAR
STARTCHAR char9085
ENCODING 9085
SWIDTH 1200 0
DWIDTH 12 0
BBX 4 11 1 -1
BITMAP
80
40
40
40
40
30
40
40
40
40
80
ENDCHAR
STARTCHAR char9086
ENCODING 9086
SWIDTH 1200 0
DWIDTH 12 0
BBX 11 1 1 8
BITMAP
FFE0
ENDCHAR
STARTCHAR char9249
ENCODING 9249
SWIDTH 1200 0
DWIDTH 12 0
BBX 6 6 3 1
BITMAP
FC
04
04
04
04
04
ENDCHAR
STARTCHAR char9250
ENCODING 9250
SWIDTH 1200 0
DWIDTH 12 0
BBX 8 6 2 1
BITMAP
FF
11
11
11
11
11
ENDCHAR
STARTCHAR char9251
ENCODING 9251
SWIDTH 1200 0
DWIDTH 12 0
BBX 9 6 2 1
BITMAP
F600
1200
1500
1500
1880
1080
ENDCHAR
STARTCHAR char9252
ENCODING 9252
SWIDTH 1200 0
DWIDTH 12 0
BBX 7 6 3 1
BITMAP
C0
40
40
40
40
7E
ENDCHAR
STARTCHAR char9253
ENCODING 9253
SWIDTH 1200 0
DWIDTH 12 0
BBX 9 6 2 1
BITMAP
CF80
4100
4200
4200
4500
7880
ENDCHAR
STARTCHAR char9254
ENCODING 9254
SWIDTH 1200 0
DWIDTH 12 0
BBX 10 7 1 1
BITMAP
0600
C100
4FC0
4300
4480
4480
7300
ENDCHAR
STARTCHAR char9255
ENCODING 9255
SWIDTH 1200 0
DWIDTH 12 0
BBX 7 6 3 1
BITMAP
FE
40
40
40
40
7E
ENDCHAR
STARTCHAR char9256
ENCODING 9256
SWIDTH 1200 0
DWIDTH 12 0
BBX 8 6 2 1
BITMAP
FF
48
48
48
48
7F
ENDCHAR
STARTCHAR char9257
ENCODING 9257
SWIDTH 1200 0
DWIDTH 12 0
BBX 7 6 3 1
BITMAP
FE
02
FE
40
40
7E
ENDCHAR
STARTCHAR char9258
ENCODING 9258
SWIDTH 1200 0
DWIDTH 12 0
BBX 9 6 2 1
BITMAP
FF80
0880
F880
4080
4480
7880
ENDCHAR
STARTCHAR char9259
ENCODING 9259
SWIDTH 1200 0
DWIDTH 12 0
BBX 9 6 2 1
BITMAP
F780
1480
F480
4480
4C80
7780
ENDCHAR
STARTCHAR char9260
ENCODING 9260
SWIDTH 1200 0
DWIDTH 12 0
BBX 9 6 2 1
BITMAP
F180
1C80
F780
4480
4480
7780
ENDCHAR
STARTCHAR char9261
ENCODING 9261
SWIDTH 1200 0
DWIDTH 12 0
BBX 9 6 2 1
BITMAP
F600
1200
F200
4500
4500
7880
ENDCHAR
STARTCHAR char9262
ENCODING 9262
SWIDTH 1200 0
DWIDTH 12 0
BBX 9 6 2 1
BITMAP
FF80
1400
F780
4400
4400
7380
ENDCHAR
STARTCHAR char9263
ENCODING 9263
SWIDTH 1200 0
DWIDTH 12 0
BBX 10 6 1 1
BITMAP
FFC0
1080
F680
4280
4280
7FC0
ENDCHAR
STARTCHAR char9264
ENCODING 9264
SWIDTH 1200 0
DWIDTH 12 0
BBX 10 7 1 1
BITMAP
0400
F300
1FC0
F300
4480
4480
7300
ENDCHAR
STARTCHAR char9265
ENCODING 9265
SWIDTH 1200 0
DWIDTH 12 0
BBX 7 6 3 1
BITMAP
FE
42
42
42
42
7E
ENDCHAR
STARTCHAR char9266
ENCODING 9266
SWIDTH 1200 0
DWIDTH 12 0
BBX 7 7 3 1
BITMAP
06
C2
42
7E
42
7E
42
ENDCHAR
STARTCHAR char9267
ENCODING 9267
SWIDTH 1200 0
DWIDTH 12 0
BBX 8 7 2 1
BITMAP
03
1D
D5
77
55
77
55
ENDCHAR
STARTCHAR char9268
ENCODING 9268
SWIDTH 1200 0
DWIDTH 12 0
BBX 9 6 2 1
BITMAP
3600
D200
7200
5500
7480
4880
ENDCHAR
STARTCHAR char9269
ENCODING 9269
SWIDTH 1200 0
DWIDTH 12 0
BBX 7 6 3 1
BITMAP
30
10
10
28
44
82
ENDCHAR
STARTCHAR char9270
ENCODING 9270
SWIDTH 1200 0
DWIDTH 12 0
BBX 9 6 2 1
BITMAP
3600
1200
1200
2A00
C500
1880
ENDCHAR
STARTCHAR char9271
ENCODING 9271
SWIDTH 1200 0
DWIDTH 12 0
BBX 7 6 3 1
BITMAP
38
44
82
82
44
38
ENDCHAR
STARTCHAR char9272
ENCODING 9272
SWIDTH 1200 0
DWIDTH 12 0
BBX 7 6 3 1
BITMAP
7E
04
08
18
24
C2
ENDCHAR
STARTCHAR char9273
ENCODING 9273
SWIDTH 1200 0
DWIDTH 12 0
BBX 9 6 2 1
BITMAP
7F00
1200
1200
2A00
C500
1880
ENDCHAR
STARTCHAR char9274
ENCODING 9274
SWIDTH 1200 0
DWIDTH 12 0
BBX 7 8 3 1
BITMAP
20
18
00
7E
10
18
24
C2
ENDCHAR
STARTCHAR char9275
ENCODING 9275
SWIDTH 1200 0
DWIDTH 12 0
BBX 6 6 3 1
BITMAP
FC
04
FC
04
04
04
ENDCHAR
STARTCHAR char9276
ENCODING 9276
SWIDTH 1200 0
DWIDTH 12 0
BBX 7 6 3 1
BITMAP
FE
40
7E
40
40
7E
ENDCHAR
STARTCHAR char9277
ENCODING 9277
SWIDTH 1200 0
DWIDTH 12 0
BBX 7 6 3 1
BITMAP
FE
04
64
24
28
FE
ENDCHAR
STARTCHAR char9278
ENCODING 9278
SWIDTH 1200 0
DWIDTH 12 0
BBX 8 8 2 1
BITMAP
20
18
00
FF
18
24
24
18
ENDCHAR
STARTCHAR char9279
ENCODING 9279
SWIDTH 1200 0
DWIDTH 12 0
BBX 5 10 5 -1
BITMAP
C0
40
40
40
40
78
40
40
40
40
ENDCHAR
STARTCHAR char9280
ENCODING 9280
SWIDTH 1200 0
DWIDTH 12 0
BBX 5 10 4 -1
BITMAP
18
C8
48
48
48
78
48
48
48
08
ENDCHAR
STARTCHAR char9281
ENCODING 9281
SWIDTH 1200 0
DWIDTH 12 0
BBX 5 10 5 -1
BITMAP
C0
40
40
78
40
40
78
40
40
40
ENDCHAR
STARTCHAR char9282
ENCODING 9282
SWIDTH 1200 0
DWIDTH 12 0
BBX 5 10 4 -1
BITMAP
18
C8
48
78
48
48
78
48
48
08
ENDCHAR
STARTCHAR char9283
ENCODING 9283
SWIDTH 1200 0
DWIDTH 12 0
BBX 4 10 4 -1
BITMAP
30
10
10
10
F0
10
10
10
10
10
ENDCHAR
STARTCHAR char9284
ENCODING 9284
SWIDTH 1200 0
DWIDTH 12 0
BBX 6 10 3 -1
BITMAP
0C
64
24
24
24
E4
24
24
24
04
ENDCHAR
STARTCHAR char9285
ENCODING 9285
SWIDTH 1200 0
DWIDTH 12 0
BBX 4 10 4 -1
BITMAP
30
10
10
F0
10
10
F0
10
10
10
ENDCHAR
STARTCHAR char9286
ENCODING 9286
SWIDTH 1200 0
DWIDTH 12 0
BBX 6 10 3 -1
BITMAP
0C
64
24
24
E4
24
E4
24
24
04
ENDCHAR
STARTCHAR char9287
ENCODING 9287
SWIDTH 1200 0
DWIDTH 12 0
BBX 9 5 2 1
BITMAP
1800
0800
0800
0800
FF80
ENDCHAR
STARTCHAR char9288
ENCODING 9288
SWIDTH 1200 0
DWIDTH 12 0
BBX 10 10 1 -1
BITMAP
0300
0100
0100
0100
3100
11C0
1F00
F100
0100
0100
ENDCHAR
STARTCHAR char9289
ENCODING 9289
SWIDTH 1200 0
DWIDTH 12 0
BBX 9 10 1 -1
BITMAP
0180
0680
0280
0280
3280
1380
1E80
F280
0280
0080
ENDCHAR
STARTCHAR char9290
ENCODING 9290
SWIDTH 1200 0
DWIDTH 12 0
BBX 8 10 1 -1
BITMAP
03
01
01
01
31
11
1F
F1
01
01
ENDCHAR
STARTCHAR char9291
ENCODING 9291
SWIDTH 1200 0
DWIDTH 12 0
BBX 10 5 1 1
BITMAP
0600
3200
1200
1200
FFC0
ENDCHAR
STARTCHAR char9292
ENCODING 9292
SWIDTH 1200 0
DWIDTH 12 0
BBX 9 6 2 -1
BITMAP
FF80
0800
0800
0800
0800
0800
ENDCHAR
STARTCHAR char9293
ENCODING 9293
SWIDTH 1200 0
DWIDTH 12 0
BBX 9 10 1 -1
BITMAP
0180
0080
0080
0080
FE80
1080
1780
1080
1080
0080
ENDCHAR
STARTCHAR char9294
ENCODING 9294
SWIDTH 1200 0
DWIDTH 12 0
BBX 10 10 1 -1
BITMAP
00C0
0640
0240
0240
FA40
2240
2E40
2240
0240
0040
ENDCHAR
STARTCHAR char9295
ENCODING 9295
SWIDTH 1200 0
DWIDTH 12 0
BBX 9 10 1 -1
BITMAP
0180
0080
0080
0080
FF80
1080
1080
1080
1080
0080
ENDCHAR
STARTCHAR char9296
ENCODING 9296
SWIDTH 1200 0
DWIDTH 12 0
BBX 10 6 1 -1
BITMAP
FFC0
1200
1200
1200
1200
1200
ENDCHAR
STARTCHAR char9297
ENCODING 9297
SWIDTH 1200 0
DWIDTH 12 0
BBX 10 1 1 3
BITMAP
FFC0
ENDCHAR
STARTCHAR char9298
ENCODING 9298
SWIDTH 1200 0
DWIDTH 12 0
BBX 8 10 1 -1
BITMAP
03
01
01
01
01
07
F9
01
01
01
ENDCHAR
STARTCHAR char9299
ENCODING 9299
SWIDTH 1200 0
DWIDTH 12 0
BBX 2 10 5 -1
BITMAP
C0
40
40
40
40
40
40
40
40
40
ENDCHAR
STARTCHAR char9300
ENCODING 9300
SWIDTH 1200 0
DWIDTH 12 0
BBX 0 0 0 0
BITMAP
ENDCHAR
STARTCHAR char9301
ENCODING 9301
SWIDTH 1200 0
DWIDTH 12 0
BBX 9 6 2 1
BITMAP
CC00
4400
4400
4400
4400
7780
ENDCHAR
STARTCHAR char9302
ENCODING 9302
SWIDTH 1200 0
DWIDTH 12 0
BBX 9 6 2 1
BITMAP
CF80
4400
4400
4400
4400
7780
ENDCHAR
STARTCHAR char9303
ENCODING 9303
SWIDTH 1200 0
DWIDTH 12 0
BBX 9 6 2 1
BITMAP
C600
4200
4200
4200
4500
7880
ENDCHAR
STARTCHAR char9304
ENCODING 9304
SWIDTH 1200 0
DWIDTH 12 0
BBX 9 6 2 1
BITMAP
C600
4200
4500
4500
4880
7F80
ENDCHAR
STARTCHAR char9305
ENCODING 9305
SWIDTH 1200 0
DWIDTH 12 0
BBX 11 6 1 1
BITMAP
FD80
2480
E480
4480
4540
7620
ENDCHAR
STARTCHAR char9306
ENCODING 9306
SWIDTH 1200 0
DWIDTH 12 0
BBX 9 6 2 1
BITMAP
FF80
1400
F400
4400
4400
7780
ENDCHAR
STARTCHAR char9307
ENCODING 9307
SWIDTH 1200 0
DWIDTH 12 0
BBX 11 6 1 1
BITMAP
E6C0
3A40
EE40
4A40
4AA0
7F20
ENDCHAR
STARTCHAR char9308
ENCODING 9308
SWIDTH 1200 0
DWIDTH 12 0
BBX 10 6 1 1
BITMAP
F300
1100
F280
4280
4440
7FC0
ENDCHAR
STARTCHAR char9309
ENCODING 9309
SWIDTH 1200 0
DWIDTH 12 0
BBX 9 6 2 1
BITMAP
F780
1000
F300
4480
4480
7300
ENDCHAR
STARTCHAR char9310
ENCODING 9310
SWIDTH 1200 0
DWIDTH 12 0
BBX 10 7 1 1
BITMAP
00C0
FE40
4A40
4BC0
4A40
4BC0
7A40
ENDCHAR
STARTCHAR char9311
ENCODING 9311
SWIDTH 1200 0
DWIDTH 12 0
BBX 10 6 1 1
BITMAP
FB00
4900
4900
4900
4A80
7C40
ENDCHAR
STARTCHAR char9312
ENCODING 9312
SWIDTH 1200 0
DWIDTH 12 0
BBX 10 6 1 1
BITMAP
FB00
4900
4A80
4A80
4C40
7FC0
ENDCHAR
STARTCHAR char9313
ENCODING 9313
SWIDTH 1200 0
DWIDTH 12 0
BBX 6 8 3 0
BITMAP
FC
44
44
7C
10
38
44
38
ENDCHAR
STARTCHAR char9314
ENCODING 9314
SWIDTH 1200 0
DWIDTH 12 0
BBX 9 6 1 1
BITMAP
1F80
C880
7880
4880
4880
7880
ENDCHAR
STARTCHAR char9315
ENCODING 9315
SWIDTH 1200 0
DWIDTH 12 0
BBX 10 6 1 1
BITMAP
1FC0
CA00
7A00
4A00
4A00
7BC0
ENDCHAR
STARTCHAR char9316
ENCODING 9316
SWIDTH 1200 0
DWIDTH 12 0
BBX 11 6 1 1
BITMAP
36E0
D220
7220
5220
5520
78A0
ENDCHAR
STARTCHAR char9317
ENCODING 9317
SWIDTH 1200 0
DWIDTH 12 0
BBX 11 6 1 1
BITMAP
36E0
D240
7240
5240
5540
78E0
ENDCHAR
STARTCHAR char9318
ENCODING 9318
SWIDTH 1200 0
DWIDTH 12 0
BBX 10 6 1 1
BITMAP
1FC0
C900
7900
4900
4A80
7C40
ENDCHAR
STARTCHAR char9319
ENCODING 9319
SWIDTH 1200 0
DWIDTH 12 0
BBX 10 6 1 1
BITMAP
1FC0
CA00
7BC0
4A00
4A00
7BC0
ENDCHAR
STARTCHAR char9320
ENCODING 9320
SWIDTH 1200 0
DWIDTH 12 0
BBX 6 10 3 -1
BITMAP
0C
C4
7C
44
7C
10
38
44
44
38
ENDCHAR
STARTCHAR char9321
ENCODING 9321
SWIDTH 1200 0
DWIDTH 12 0
BBX 6 10 3 -1
BITMAP
3C
D4
7C
54
7C
10
38
44
44
38
ENDCHAR
STARTCHAR char9322
ENCODING 9322
SWIDTH 1200 0
DWIDTH 12 0
BBX 9 6 1 1
BITMAP
3780
1080
1080
2880
4480
8480
ENDCHAR
STARTCHAR char9323
ENCODING 9323
SWIDTH 1200 0
DWIDTH 12 0
BBX 10 6 1 1
BITMAP
3300
1100
1100
2900
4500
85C0
ENDCHAR
STARTCHAR char9324
ENCODING 9324
SWIDTH 1200 0
DWIDTH 12 0
BBX 10 6 1 1
BITMAP
33C0
1100
1100
2900
4500
85C0
ENDCHAR
STARTCHAR char9325
ENCODING 9325
SWIDTH 1200 0
DWIDTH 12 0
BBX 10 7 1 1
BITMAP
00C0
3640
1240
13C0
2A40
4640
87C0
ENDCHAR
STARTCHAR char9326
ENCODING 9326
SWIDTH 1200 0
DWIDTH 12 0
BBX 10 6 1 1
BITMAP
67C0
2080
2100
2100
5280
8C40
ENDCHAR
STARTCHAR char9327
ENCODING 9327
SWIDTH 1200 0
DWIDTH 12 0
BBX 7 7 3 1
BITMAP
10
28
28
44
44
82
FE
ENDCHAR
STARTCHAR char9328
ENCODING 9328
SWIDTH 1200 0
DWIDTH 12 0
BBX 11 7 1 1
BITMAP
2080
2080
71C0
8A20
8A20
8A20
71C0
ENDCHAR
STARTCHAR char9329
ENCODING 9329
SWIDTH 1200 0
DWIDTH 12 0
BBX 5 7 4 1
BITMAP
20
20
70
88
88
88
70
ENDCHAR
STARTCHAR char9330
ENCODING 9330
SWIDTH 1200 0
DWIDTH 12 0
BBX 10 7 1 1
BITMAP
2300
2100
7100
8A80
8A80
8C40
7840
ENDCHAR
STARTCHAR char9331
ENCODING 9331
SWIDTH 1200 0
DWIDTH 12 0
BBX 10 7 1 1
BITMAP
2100
2100
7280
8A80
8C40
8C40
77C0
ENDCHAR
STARTCHAR char9332
ENCODING 9332
SWIDTH 1200 0
DWIDTH 12 0
BBX 7 9 3 -1
BITMAP
FE
48
28
FE
10
38
44
44
38
ENDCHAR
STARTCHAR char9333
ENCODING 9333
SWIDTH 1200 0
DWIDTH 12 0
BBX 11 8 1 1
BITMAP
4200
3180
0000
FFE0
3180
4A40
4A40
3180
ENDCHAR
STARTCHAR char9334
ENCODING 9334
SWIDTH 1200 0
DWIDTH 12 0
BBX 9 6 2 1
BITMAP
FF80
0000
1C00
2200
2200
1C00
ENDCHAR
STARTCHAR char9335
ENCODING 9335
SWIDTH 1200 0
DWIDTH 12 0
BBX 10 10 1 -1
BITMAP
0300
0100
0100
0900
29C0
2900
2FC0
F900
0100
0100
ENDCHAR
STARTCHAR char9336
ENCODING 9336
SWIDTH 1200 0
DWIDTH 12 0
BBX 10 10 1 -1
BITMAP
00C0
0340
0140
0940
29C0
2940
2FC0
F140
0140
0040
ENDCHAR
STARTCHAR char9337
ENCODING 9337
SWIDTH 1200 0
DWIDTH 12 0
BBX 8 10 1 -1
BITMAP
03
01
01
09
29
29
2F
F9
01
01
ENDCHAR
STARTCHAR char9338
ENCODING 9338
SWIDTH 1200 0
DWIDTH 12 0
BBX 8 10 2 -1
BITMAP
03
01
01
FD
51
57
51
57
51
01
ENDCHAR
STARTCHAR char9339
ENCODING 9339
SWIDTH 1200 0
DWIDTH 12 0
BBX 10 10 1 -1
BITMAP
00C0
0640
0240
FA40
5240
5640
5240
5640
5240
0040
ENDCHAR
STARTCHAR char9340
ENCODING 9340
SWIDTH 1200 0
DWIDTH 12 0
BBX 8 10 2 -1
BITMAP
03
01
01
FF
29
29
29
29
29
01
ENDCHAR
STARTCHAR char9341
ENCODING 9341
SWIDTH 1200 0
DWIDTH 12 0
BBX 1 2 5 3
BITMAP
80
80
ENDCHAR
STARTCHAR char9342
ENCODING 9342
SWIDTH 1200 0
DWIDTH 12 0
BBX 5 10 4 -1
BITMAP
18
08
08
08
88
88
08
08
08
08
ENDCHAR
STARTCHAR char9505
ENCODING 9505
SWIDTH 1200 0
DWIDTH 12 0
BBX 3 9 5 0
BITMAP
40
40
00
C0
40
40
40
40
E0
ENDCHAR
STARTCHAR char9506
ENCODING 9506
SWIDTH 1200 0
DWIDTH 12 0
BBX 7 9 3 0
BITMAP
44
44
00
CC
44
44
44
44
EE
ENDCHAR
STARTCHAR char9507
ENCODING 9507
SWIDTH 1200 0
DWIDTH 12 0
BBX 9 9 2 0
BITMAP
4900
4900
0000
DB00
4900
4900
4900
4900
FF80
ENDCHAR
STARTCHAR char9508
ENCODING 9508
SWIDTH 1200 0
DWIDTH 12 0
BBX 10 9 2 0
BITMAP
4000
4000
0000
DDC0
4880
4500
4500
4200
E200
ENDCHAR
STARTCHAR char9509
ENCODING 9509
SWIDTH 1200 0
DWIDTH 12 0
BBX 7 6 3 0
BITMAP
EE
44
28
28
10
10
ENDCHAR
STARTCHAR char9510
ENCODING 9510
SWIDTH 1200 0
DWIDTH 12 0
BBX 10 9 1 0
BITMAP
0080
0080
0000
EF80
4480
2880
2880
1080
11C0
ENDCHAR
STARTCHAR char9511
ENCODING 9511
SWIDTH 1200 0
DWIDTH 12 0
BBX 11 9 1 0
BITMAP
0240
0240
0000
DEC0
5240
5240
2240
2240
27E0
ENDCHAR
STARTCHAR char9512
ENCODING 9512
SWIDTH 1200 0
DWIDTH 12 0
BBX 11 9 1 0
BITMAP
0540
0540
0000
DFC0
5540
5540
2540
2540
2FE0
ENDCHAR
STARTCHAR char9513
ENCODING 9513
SWIDTH 1200 0
DWIDTH 12 0
BBX 10 9 2 0
BITMAP
4000
4000
0000
DDC0
4500
4200
4500
4880
FDC0
ENDCHAR
STARTCHAR char9514
ENCODING 9514
SWIDTH 1200 0
DWIDTH 12 0
BBX 7 6 3 0
BITMAP
EE
28
10
28
44
EE
ENDCHAR
STARTCHAR char9515
ENCODING 9515
SWIDTH 1200 0
DWIDTH 12 0
BBX 0 0 0 0
BITMAP
ENDCHAR
STARTCHAR char9516
ENCODING 9516
SWIDTH 1200 0
DWIDTH 12 0
BBX 0 0 0 0
BITMAP
ENDCHAR
STARTCHAR char9517
ENCODING 9517
SWIDTH 1200 0
DWIDTH 12 0
BBX 0 0 0 0
BITMAP
ENDCHAR
STARTCHAR char9518
ENCODING 9518
SWIDTH 1200 0
DWIDTH 12 0
BBX 0 0 0 0
BITMAP
ENDCHAR
STARTCHAR char9519
ENCODING 9519
SWIDTH 1200 0
DWIDTH 12 0
BBX 0 0 0 0
BITMAP
ENDCHAR
STARTCHAR char9520
ENCODING 9520
SWIDTH 1200 0
DWIDTH 12 0
BBX 5 9 4 0
BITMAP
F8
20
20
20
20
20
20
20
F8
ENDCHAR
STARTCHAR char9521
ENCODING 9521
SWIDTH 1200 0
DWIDTH 12 0
BBX 8 9 2 0
BITMAP
FF
24
24
24
24
24
24
24
FF
ENDCHAR
STARTCHAR char9522
ENCODING 9522
SWIDTH 1200 0
DWIDTH 12 0
BBX 9 9 2 0
BITMAP
FF80
2A00
2A00
2A00
2A00
2A00
2A00
2A00
FF80
ENDCHAR
STARTCHAR char9523
ENCODING 9523
SWIDTH 1200 0
DWIDTH 12 0
BBX 10 9 2 0
BITMAP
FDC0
4880
4880
4500
4500
4500
4200
4200
E200
ENDCHAR
STARTCHAR char9524
ENCODING 9524
SWIDTH 1200 0
DWIDTH 12 0
BBX 9 10 2 -1
BITMAP
E380
4100
4100
2200
2200
1400
1400
0800
0800
0800
ENDCHAR
STARTCHAR char9525
ENCODING 9525
SWIDTH 1200 0
DWIDTH 12 0
BBX 10 9 1 0
BITMAP
EFC0
4480
4480
2880
2880
2880
1080
1080
11C0
ENDCHAR
STARTCHAR char9526
ENCODING 9526
SWIDTH 1200 0
DWIDTH 12 0
BBX 11 9 1 0
BITMAP
EFE0
4540
4540
2940
2940
2940
1140
1140
13E0
ENDCHAR
STARTCHAR char9527
ENCODING 9527
SWIDTH 1200 0
DWIDTH 12 0
BBX 11 9 1 0
BITMAP
DFE0
5540
5540
5540
5540
5540
2540
2540
2FE0
ENDCHAR
STARTCHAR char9528
ENCODING 9528
SWIDTH 1200 0
DWIDTH 12 0
BBX 10 9 2 0
BITMAP
F8C0
4880
4500
4500
4200
4500
4500
4880
F8C0
ENDCHAR
STARTCHAR char9529
ENCODING 9529
SWIDTH 1200 0
DWIDTH 12 0
BBX 9 9 2 0
BITMAP
E380
4100
2200
1400
0800
1400
2200
4100
E380
ENDCHAR
STARTCHAR char9530
ENCODING 9530
SWIDTH 1200 0
DWIDTH 12 0
BBX 0 0 0 0
BITMAP
ENDCHAR
STARTCHAR char9531
ENCODING 9531
SWIDTH 1200 0
DWIDTH 12 0
BBX 0 0 0 0
BITMAP
ENDCHAR
STARTCHAR char9532
ENCODING 9532
SWIDTH 1200 0
DWIDTH 12 0
BBX 0 0 0 0
BITMAP
ENDCHAR
STARTCHAR char9533
ENCODING 9533
SWIDTH 1200 0
DWIDTH 12 0
BBX 0 0 0 0
BITMAP
ENDCHAR
STARTCHAR char9534
ENCODING 9534
SWIDTH 1200 0
DWIDTH 12 0
BBX 0 0 0 0
BITMAP
ENDCHAR
STARTCHAR char9535
ENCODING 9535
SWIDTH 1200 0
DWIDTH 12 0
BBX 0 0 0 0
BITMAP
ENDCHAR
STARTCHAR char9536
ENCODING 9536
SWIDTH 1200 0
DWIDTH 12 0
BBX 0 0 0 0
BITMAP
ENDCHAR
STARTCHAR char9537
ENCODING 9537
SWIDTH 1200 0
DWIDTH 12 0
BBX 9 9 2 0
BITMAP
0300
0500
0500
0900
1100
1F00
2100
4100
E380
ENDCHAR
STARTCHAR char9538
ENCODING 9538
SWIDTH 1200 0
DWIDTH 12 0
BBX 8 9 2 0
BITMAP
3E
11
11
22
3E
21
41
42
FC
ENDCHAR
STARTCHAR char9539
ENCODING 9539
SWIDTH 1200 0
DWIDTH 12 0
BBX 9 9 2 0
BITMAP
3F80
1080
1080
2100
2000
2000
4000
4000
E000
ENDCHAR
STARTCHAR char9540
ENCODING 9540
SWIDTH 1200 0
DWIDTH 12 0
BBX 7 9 3 0
BITMAP
06
0A
0A
12
22
22
42
82
FE
ENDCHAR
STARTCHAR char9541
ENCODING 9541
SWIDTH 1200 0
DWIDTH 12 0
BBX 9 9 2 0
BITMAP
3F80
1080
1000
2200
3E00
2200
4000
4200
FE00
ENDCHAR
STARTCHAR char9542
ENCODING 9542
SWIDTH 1200 0
DWIDTH 12 0
BBX 8 9 2 0
BITMAP
3F
21
42
04
08
10
21
42
FE
ENDCHAR
STARTCHAR char9543
ENCODING 9543
SWIDTH 1200 0
DWIDTH 12 0
BBX 10 9 1 0
BITMAP
39C0
1080
1080
2100
3F00
2100
4200
4200
E700
ENDCHAR
STARTCHAR char9544
ENCODING 9544
SWIDTH 1200 0
DWIDTH 12 0
BBX 9 10 2 -1
BITMAP
1E00
2100
4080
5280
9E80
A480
8100
8100
4200
3C00
ENDCHAR
STARTCHAR char9545
ENCODING 9545
SWIDTH 1200 0
DWIDTH 12 0
BBX 7 9 3 0
BITMAP
3E
08
08
10
10
10
20
20
F8
ENDCHAR
STARTCHAR char9546
ENCODING 9546
SWIDTH 1200 0
DWIDTH 12 0
BBX 9 9 1 0
BITMAP
3B80
1100
1200
2400
3800
2800
4400
4200
E700
ENDCHAR
STARTCHAR char9547
ENCODING 9547
SWIDTH 1200 0
DWIDTH 12 0
BBX 9 9 2 0
BITMAP
0300
0500
0500
0900
1100
1100
2100
4100
E380
ENDCHAR
STARTCHAR char9548
ENCODING 9548
SWIDTH 1200 0
DWIDTH 12 0
BBX 11 9 1 0
BITMAP
38E0
18C0
1940
2940
2A40
2680
4480
4080
E1C0
ENDCHAR
STARTCHAR char9549
ENCODING 9549
SWIDTH 1200 0
DWIDTH 12 0
BBX 10 9 1 0
BITMAP
61C0
3080
3080
2880
4900
4500
4500
4300
E300
ENDCHAR
STARTCHAR char9550
ENCODING 9550
SWIDTH 1200 0
DWIDTH 12 0
BBX 9 9 2 0
BITMAP
7F80
4080
0000
1200
1E00
2400
0000
8100
FF00
ENDCHAR
STARTCHAR char9551
ENCODING 9551
SWIDTH 1200 0
DWIDTH 12 0
BBX 9 9 2 0
BITMAP
1E00
2100
4080
4080
8080
8100
8100
4200
3C00
ENDCHAR
STARTCHAR char9552
ENCODING 9552
SWIDTH 1200 0
DWIDTH 12 0
BBX 11 9 1 0
BITMAP
7FE0
1080
1080
2100
2100
2100
4200
4200
E700
ENDCHAR
STARTCHAR char9553
ENCODING 9553
SWIDTH 1200 0
DWIDTH 12 0
BBX 10 9 1 0
BITMAP
3F80
0840
0840
1040
1F80
1000
2000
2000
F000
ENDCHAR
STARTCHAR char9554
ENCODING 9554
SWIDTH 1200 0
DWIDTH 12 0
BBX 9 9 2 0
BITMAP
7F80
2080
1080
0800
0800
1000
2100
4100
FF00
ENDCHAR
STARTCHAR char9555
ENCODING 9555
SWIDTH 1200 0
DWIDTH 12 0
BBX 10 9 1 0
BITMAP
7FC0
4440
8480
0800
0800
0800
1000
1000
3800
ENDCHAR
STARTCHAR char9556
ENCODING 9556
SWIDTH 1200 0
DWIDTH 12 0
BBX 8 9 2 0
BITMAP
62
95
18
10
10
20
20
20
F8
ENDCHAR
STARTCHAR char9557
ENCODING 9557
SWIDTH 1200 0
DWIDTH 12 0
BBX 8 9 2 0
BITMAP
3E
08
3E
49
89
92
7C
10
7C
ENDCHAR
STARTCHAR char9558
ENCODING 9558
SWIDTH 1200 0
DWIDTH 12 0
BBX 9 9 2 0
BITMAP
7380
2100
1200
1400
0800
1400
2400
4200
E700
ENDCHAR
STARTCHAR char9559
ENCODING 9559
SWIDTH 1200 0
DWIDTH 12 0
BBX 11 9 1 0
BITMAP
4E60
A4A0
2480
4880
4900
3E00
0800
0800
3E00
ENDCHAR
STARTCHAR char9560
ENCODING 9560
SWIDTH 1200 0
DWIDTH 12 0
BBX 9 9 2 0
BITMAP
0E00
1100
2080
4080
4080
4100
2200
9480
F780
ENDCHAR
STARTCHAR char9561
ENCODING 9561
SWIDTH 1200 0
DWIDTH 12 0
BBX 0 0 0 0
BITMAP
ENDCHAR
STARTCHAR char9562
ENCODING 9562
SWIDTH 1200 0
DWIDTH 12 0
BBX 0 0 0 0
BITMAP
ENDCHAR
STARTCHAR char9563
ENCODING 9563
SWIDTH 1200 0
DWIDTH 12 0
BBX 0 0 0 0
BITMAP
ENDCHAR
STARTCHAR char9564
ENCODING 9564
SWIDTH 1200 0
DWIDTH 12 0
BBX 0 0 0 0
BITMAP
ENDCHAR
STARTCHAR char9565
ENCODING 9565
SWIDTH 1200 0
DWIDTH 12 0
BBX 0 0 0 0
BITMAP
ENDCHAR
STARTCHAR char9566
ENCODING 9566
SWIDTH 1200 0
DWIDTH 12 0
BBX 0 0 0 0
BITMAP
ENDCHAR
STARTCHAR char9567
ENCODING 9567
SWIDTH 1200 0
DWIDTH 12 0
BBX 0 0 0 0
BITMAP
ENDCHAR
STARTCHAR char9568
ENCODING 9568
SWIDTH 1200 0
DWIDTH 12 0
BBX 0 0 0 0
BITMAP
ENDCHAR
STARTCHAR char9569
ENCODING 9569
SWIDTH 1200 0
DWIDTH 12 0
BBX 7 6 3 0
BITMAP
32
4C
88
88
9A
64
ENDCHAR
STARTCHAR char9570
ENCODING 9570
SWIDTH 1200 0
DWIDTH 12 0
BBX 7 10 2 -1
BITMAP
0C
12
12
22
2C
42
42
44
B8
80
ENDCHAR
STARTCHAR char9571
ENCODING 9571
SWIDTH 1200 0
DWIDTH 12 0
BBX 7 7 2 -1
BITMAP
66
98
10
20
20
40
40
ENDCHAR
STARTCHAR char9572
ENCODING 9572
SWIDTH 1200 0
DWIDTH 12 0
BBX 6 9 3 0
BITMAP
38
44
24
30
48
88
88
90
60
ENDCHAR
STARTCHAR char9573
ENCODING 9573
SWIDTH 1200 0
DWIDTH 12 0
BBX 6 6 4 0
BITMAP
38
44
70
80
88
70
ENDCHAR
STARTCHAR char9574
ENCODING 9574
SWIDTH 1200 0
DWIDTH 12 0
BBX 5 10 4 -1
BITMAP
40
88
90
60
80
80
60
10
10
E0
ENDCHAR
STARTCHAR char9575
ENCODING 9575
SWIDTH 1200 0
DWIDTH 12 0
BBX 6 7 3 -1
BITMAP
B8
44
44
88
88
10
10
ENDCHAR
STARTCHAR char9576
ENCODING 9576
SWIDTH 1200 0
DWIDTH 12 0
BBX 7 9 3 0
BITMAP
1C
22
42
42
FE
84
84
88
70
ENDCHAR
STARTCHAR char9577
ENCODING 9577
SWIDTH 1200 0
DWIDTH 12 0
BBX 3 6 5 0
BITMAP
40
40
80
80
A0
40
ENDCHAR
STARTCHAR char9578
ENCODING 9578
SWIDTH 1200 0
DWIDTH 12 0
BBX 6 6 3 0
BITMAP
48
50
60
60
94
88
ENDCHAR
STARTCHAR char9579
ENCODING 9579
SWIDTH 1200 0
DWIDTH 12 0
BBX 6 9 3 0
BITMAP
20
10
10
10
28
28
48
48
84
ENDCHAR
STARTCHAR char9580
ENCODING 9580
SWIDTH 1200 0
DWIDTH 12 0
BBX 8 7 2 -1
BITMAP
22
22
44
44
45
BA
80
ENDCHAR
STARTCHAR char9581
ENCODING 9581
SWIDTH 1200 0
DWIDTH 12 0
BBX 6 6 3 0
BITMAP
84
44
48
50
60
40
ENDCHAR
STARTCHAR char9582
ENCODING 9582
SWIDTH 1200 0
DWIDTH 12 0
BBX 6 10 3 -1
BITMAP
18
20
3C
40
7C
80
80
60
10
60
ENDCHAR
STARTCHAR char9583
ENCODING 9583
SWIDTH 1200 0
DWIDTH 12 0
BBX 6 6 3 0
BITMAP
38
44
84
84
88
70
ENDCHAR
STARTCHAR char9584
ENCODING 9584
SWIDTH 1200 0
DWIDTH 12 0
BBX 8 7 2 0
BITMAP
01
7E
94
14
28
2A
44
ENDCHAR
STARTCHAR char9585
ENCODING 9585
SWIDTH 1200 0
DWIDTH 12 0
BBX 6 7 3 -1
BITMAP
38
44
44
44
B8
80
80
ENDCHAR
STARTCHAR char9586
ENCODING 9586
SWIDTH 1200 0
DWIDTH 12 0
BBX 7 7 3 0
BITMAP
02
3C
50
88
88
88
70
ENDCHAR
STARTCHAR char9587
ENCODING 9587
SWIDTH 1200 0
DWIDTH 12 0
BBX 7 7 2 0
BITMAP
02
7C
90
10
20
28
10
ENDCHAR
STARTCHAR char9588
ENCODING 9588
SWIDTH 1200 0
DWIDTH 12 0
BBX 6 6 3 0
BITMAP
88
44
44
48
48
30
ENDCHAR
STARTCHAR char9589
ENCODING 9589
SWIDTH 1200 0
DWIDTH 12 0
BBX 7 7 2 -1
BITMAP
4C
92
92
54
38
20
20
ENDCHAR
STARTCHAR char9590
ENCODING 9590
SWIDTH 1200 0
DWIDTH 12 0
BBX 7 7 2 -1
BITMAP
62
14
18
10
30
52
8C
ENDCHAR
STARTCHAR char9591
ENCODING 9591
SWIDTH 1200 0
DWIDTH 12 0
BBX 6 10 3 -1
BITMAP
10
10
10
54
94
A4
A8
70
20
20
ENDCHAR
STARTCHAR char9592
ENCODING 9592
SWIDTH 1200 0
DWIDTH 12 0
BBX 8 6 2 0
BITMAP
22
49
89
91
52
2C
ENDCHAR
STARTCHAR char9761
ENCODING 9761
SWIDTH 1200 0
DWIDTH 12 0
BBX 12 1 0 4
BITMAP
FFF0
ENDCHAR
STARTCHAR char9762
ENCODING 9762
SWIDTH 1200 0
DWIDTH 12 0
BBX 1 12 6 -2
BITMAP
80
80
80
80
80
80
80
80
80
80
80
80
ENDCHAR
STARTCHAR char9763
ENCODING 9763
SWIDTH 1200 0
DWIDTH 12 0
BBX 6 7 6 -2
BITMAP
FC
80
80
80
80
80
80
ENDCHAR
STARTCHAR char9764
ENCODING 9764
SWIDTH 1200 0
DWIDTH 12 0
BBX 7 7 0 -2
BITMAP
FE
02
02
02
02
02
02
ENDCHAR
STARTCHAR char9765
ENCODING 9765
SWIDTH 1200 0
DWIDTH 12 0
BBX 7 6 0 4
BITMAP
02
02
02
02
02
FE
ENDCHAR
STARTCHAR char9766
ENCODING 9766
SWIDTH 1200 0
DWIDTH 12 0
BBX 6 6 6 4
BITMAP
80
80
80
80
80
FC
ENDCHAR
STARTCHAR char9767
ENCODING 9767
SWIDTH 1200 0
DWIDTH 12 0
BBX 6 12 6 -2
BITMAP
80
80
80
80
80
FC
80
80
80
80
80
80
ENDCHAR
STARTCHAR char9768
ENCODING 9768
SWIDTH 1200 0
DWIDTH 12 0
BBX 12 7 0 -2
BITMAP
FFF0
0200
0200
0200
0200
0200
0200
ENDCHAR
STARTCHAR char9769
ENCODING 9769
SWIDTH 1200 0
DWIDTH 12 0
BBX 7 12 0 -2
BITMAP
02
02
02
02
02
FE
02
02
02
02
02
02
ENDCHAR
STARTCHAR char9770
ENCODING 9770
SWIDTH 1200 0
DWIDTH 12 0
BBX 12 6 0 4
BITMAP
0200
0200
0200
0200
0200
FFF0
ENDCHAR
STARTCHAR char9771
ENCODING 9771
SWIDTH 1200 0
DWIDTH 12 0
BBX 12 12 0 -2
BITMAP
0200
0200
0200
0200
0200
FFF0
0200
0200
0200
0200
0200
0200
ENDCHAR
STARTCHAR char9772
ENCODING 9772
SWIDTH 1200 0
DWIDTH 12 0
BBX 12 2 0 3
BITMAP
FFF0
FFF0
ENDCHAR
STARTCHAR char9773
ENCODING 9773
SWIDTH 1200 0
DWIDTH 12 0
BBX 2 12 5 -2
BITMAP
C0
C0
C0
C0
C0
C0
C0
C0
C0
C0
C0
C0
ENDCHAR
STARTCHAR char9774
ENCODING 9774
SWIDTH 1200 0
DWIDTH 12 0
BBX 7 7 5 -2
BITMAP
FE
FE
C0
C0
C0
C0
C0
ENDCHAR
STARTCHAR char9775
ENCODING 9775
SWIDTH 1200 0
DWIDTH 12 0
BBX 7 7 0 -2
BITMAP
FE
FE
06
06
06
06
06
ENDCHAR
STARTCHAR char9776
ENCODING 9776
SWIDTH 1200 0
DWIDTH 12 0
BBX 7 7 0 3
BITMAP
06
06
06
06
06
FE
FE
ENDCHAR
STARTCHAR char9777
ENCODING 9777
SWIDTH 1200 0
DWIDTH 12 0
BBX 7 7 5 3
BITMAP
C0
C0
C0
C0
C0
FE
FE
ENDCHAR
STARTCHAR char9778
ENCODING 9778
SWIDTH 1200 0
DWIDTH 12 0
BBX 7 12 5 -2
BITMAP
C0
C0
C0
C0
C0
FE
FE
C0
C0
C0
C0
C0
ENDCHAR
STARTCHAR char9779
ENCODING 9779
SWIDTH 1200 0
DWIDTH 12 0
BBX 12 7 0 -2
BITMAP
FFF0
FFF0
0600
0600
0600
0600
0600
ENDCHAR
STARTCHAR char9780
ENCODING 9780
SWIDTH 1200 0
DWIDTH 12 0
BBX 7 12 0 -2
BITMAP
06
06
06
06
06
FE
FE
06
06
06
06
06
ENDCHAR
STARTCHAR char9781
ENCODING 9781
SWIDTH 1200 0
DWIDTH 12 0
BBX 12 7 0 3
BITMAP
0600
0600
0600
0600
0600
FFF0
FFF0
ENDCHAR
STARTCHAR char9782
ENCODING 9782
SWIDTH 1200 0
DWIDTH 12 0
BBX 12 12 0 -2
BITMAP
0600
0600
0600
0600
0600
FFF0
FFF0
0600
0600
0600
0600
0600
ENDCHAR
STARTCHAR char9783
ENCODING 9783
SWIDTH 1200 0
DWIDTH 12 0
BBX 7 12 5 -2
BITMAP
C0
C0
C0
C0
C0
FE
C0
C0
C0
C0
C0
C0
ENDCHAR
STARTCHAR char9784
ENCODING 9784
SWIDTH 1200 0
DWIDTH 12 0
BBX 12 7 0 -2
BITMAP
FFF0
FFF0
0200
0200
0200
0200
0200
ENDCHAR
STARTCHAR char9785
ENCODING 9785
SWIDTH 1200 0
DWIDTH 12 0
BBX 7 12 0 -2
BITMAP
06
06
06
06
06
FE
06
06
06
06
06
06
ENDCHAR
STARTCHAR char9786
ENCODING 9786
SWIDTH 1200 0
DWIDTH 12 0
BBX 12 7 0 3
BITMAP
0200
0200
0200
0200
0200
FFF0
FFF0
ENDCHAR
STARTCHAR char9787
ENCODING 9787
SWIDTH 1200 0
DWIDTH 12 0
BBX 12 12 0 -2
BITMAP
0200
0200
0200
0200
0200
FFF0
FFF0
0200
0200
0200
0200
0200
ENDCHAR
STARTCHAR char9788
ENCODING 9788
SWIDTH 1200 0
DWIDTH 12 0
BBX 6 12 6 -2
BITMAP
80
80
80
80
80
FC
FC
80
80
80
80
80
ENDCHAR
STARTCHAR char9789
ENCODING 9789
SWIDTH 1200 0
DWIDTH 12 0
BBX 12 7 0 -2
BITMAP
FFF0
0600
0600
0600
0600
0600
0600
ENDCHAR
STARTCHAR char9790
ENCODING 9790
SWIDTH 1200 0
DWIDTH 12 0
BBX 7 12 0 -2
BITMAP
02
02
02
02
02
FE
FE
02
02
02
02
02
ENDCHAR
STARTCHAR char9791
ENCODING 9791
SWIDTH 1200 0
DWIDTH 12 0
BBX 12 6 0 4
BITMAP
0600
0600
0600
0600
0600
FFF0
ENDCHAR
STARTCHAR char9792
ENCODING 9792
SWIDTH 1200 0
DWIDTH 12 0
BBX 12 12 0 -2
BITMAP
0600
0600
0600
0600
0600
FFF0
0600
0600
0600
0600
0600
0600
ENDCHAR
STARTCHAR char9793
ENCODING 9793
SWIDTH 1200 0
DWIDTH 12 0
BBX 7 7 0 -2
BITMAP
FE
06
06
06
06
06
06
ENDCHAR
STARTCHAR char9794
ENCODING 9794
SWIDTH 1200 0
DWIDTH 12 0
BBX 7 7 0 -2
BITMAP
FE
FE
02
02
02
02
02
ENDCHAR
STARTCHAR char9795
ENCODING 9795
SWIDTH 1200 0
DWIDTH 12 0
BBX 7 6 0 4
BITMAP
06
06
06
06
06
FE
ENDCHAR
STARTCHAR char9796
ENCODING 9796
SWIDTH 1200 0
DWIDTH 12 0
BBX 7 7 0 3
BITMAP
02
02
02
02
02
FE
FE
ENDCHAR
STARTCHAR char9797
ENCODING 9797
SWIDTH 1200 0
DWIDTH 12 0
BBX 7 6 5 4
BITMAP
C0
C0
C0
C0
C0
FE
ENDCHAR
STARTCHAR char9798
ENCODING 9798
SWIDTH 1200 0
DWIDTH 12 0
BBX 6 7 6 3
BITMAP
80
80
80
80
80
FC
FC
ENDCHAR
STARTCHAR char9799
ENCODING 9799
SWIDTH 1200 0
DWIDTH 12 0
BBX 7 7 5 -2
BITMAP
FE
C0
C0
C0
C0
C0
C0
ENDCHAR
STARTCHAR char9800
ENCODING 9800
SWIDTH 1200 0
DWIDTH 12 0
BBX 6 7 6 -2
BITMAP
FC
FC
80
80
80
80
80
ENDCHAR
STARTCHAR char9801
ENCODING 9801
SWIDTH 1200 0
DWIDTH 12 0
BBX 7 12 5 -2
BITMAP
C0
C0
C0
C0
C0
FE
40
40
40
40
40
40
ENDCHAR
STARTCHAR char9802
ENCODING 9802
SWIDTH 1200 0
DWIDTH 12 0
BBX 7 12 5 -2
BITMAP
40
40
40
40
40
FE
C0
C0
C0
C0
C0
C0
ENDCHAR
STARTCHAR char9803
ENCODING 9803
SWIDTH 1200 0
DWIDTH 12 0
BBX 7 12 5 -2
BITMAP
C0
C0
C0
C0
C0
FE
FE
40
40
40
40
40
ENDCHAR
STARTCHAR char9804
ENCODING 9804
SWIDTH 1200 0
DWIDTH 12 0
BBX 7 12 5 -2
BITMAP
40
40
40
40
40
FE
FE
C0
C0
C0
C0
C0
ENDCHAR
STARTCHAR char9805
ENCODING 9805
SWIDTH 1200 0
DWIDTH 12 0
BBX 7 12 0 -2
BITMAP
06
06
06
06
06
FE
02
02
02
02
02
02
ENDCHAR
STARTCHAR char9806
ENCODING 9806
SWIDTH 1200 0
DWIDTH 12 0
BBX 7 12 0 -2
BITMAP
02
02
02
02
02
FE
06
06
06
06
06
06
ENDCHAR
STARTCHAR char9807
ENCODING 9807
SWIDTH 1200 0
DWIDTH 12 0
BBX 7 12 0 -2
BITMAP
06
06
06
06
06
FE
FE
02
02
02
02
02
ENDCHAR
STARTCHAR char9808
ENCODING 9808
SWIDTH 1200 0
DWIDTH 12 0
BBX 7 12 0 -2
BITMAP
02
02
02
02
02
FE
FE
06
06
06
06
06
ENDCHAR
STARTCHAR char9809
ENCODING 9809
SWIDTH 1200 0
DWIDTH 12 0
BBX 12 7 0 -2
BITMAP
FFF0
FE00
0200
0200
0200
0200
0200
ENDCHAR
STARTCHAR char9810
ENCODING 9810
SWIDTH 1200 0
DWIDTH 12 0
BBX 12 7 0 -2
BITMAP
FFF0
03F0
0200
0200
0200
0200
0200
ENDCHAR
STARTCHAR char9811
ENCODING 9811
SWIDTH 1200 0
DWIDTH 12 0
BBX 12 7 0 -2
BITMAP
FFF0
FE00
0600
0600
0600
0600
0600
ENDCHAR
STARTCHAR char9812
ENCODING 9812
SWIDTH 1200 0
DWIDTH 12 0
BBX 12 7 0 -2
BITMAP
FFF0
07F0
0600
0600
0600
0600
0600
ENDCHAR
STARTCHAR char9813
ENCODING 9813
SWIDTH 1200 0
DWIDTH 12 0
BBX 12 7 0 3
BITMAP
0200
0200
0200
0200
0200
FFF0
FE00
ENDCHAR
STARTCHAR char9814
ENCODING 9814
SWIDTH 1200 0
DWIDTH 12 0
BBX 12 7 0 3
BITMAP
0200
0200
0200
0200
0200
FFF0
03F0
ENDCHAR
STARTCHAR char9815
ENCODING 9815
SWIDTH 1200 0
DWIDTH 12 0
BBX 12 7 0 3
BITMAP
0600
0600
0600
0600
0600
FFF0
FE00
ENDCHAR
STARTCHAR char9816
ENCODING 9816
SWIDTH 1200 0
DWIDTH 12 0
BBX 12 7 0 3
BITMAP
0600
0600
0600
0600
0600
FFF0
07F0
ENDCHAR
STARTCHAR char9817
ENCODING 9817
SWIDTH 1200 0
DWIDTH 12 0
BBX 12 12 0 -2
BITMAP
0200
0200
0200
0200
0200
FFF0
FE00
0200
0200
0200
0200
0200
ENDCHAR
STARTCHAR char9818
ENCODING 9818
SWIDTH 1200 0
DWIDTH 12 0
BBX 12 12 0 -2
BITMAP
0200
0200
0200
0200
0200
FFF0
03F0
0200
0200
0200
0200
0200
ENDCHAR
STARTCHAR char9819
ENCODING 9819
SWIDTH 1200 0
DWIDTH 12 0
BBX 12 12 0 -2
BITMAP
0600
0600
0600
0600
0600
FFF0
0200
0200
0200
0200
0200
0200
ENDCHAR
STARTCHAR char9820
ENCODING 9820
SWIDTH 1200 0
DWIDTH 12 0
BBX 12 12 0 -2
BITMAP
0200
0200
0200
0200
0200
FFF0
0600
0600
0600
0600
0600
0600
ENDCHAR
STARTCHAR char9821
ENCODING 9821
SWIDTH 1200 0
DWIDTH 12 0
BBX 7 12 0 -2
BITMAP
06
06
06
06
06
FE
FE
02
02
02
02
02
ENDCHAR
STARTCHAR char9822
ENCODING 9822
SWIDTH 1200 0
DWIDTH 12 0
BBX 12 12 0 -2
BITMAP
0600
0600
0600
0600
0600
FFF0
07F0
0200
0200
0200
0200
0200
ENDCHAR
STARTCHAR char9823
ENCODING 9823
SWIDTH 1200 0
DWIDTH 12 0
BBX 12 12 0 -2
BITMAP
0200
0200
0200
0200
0200
FFF0
FE00
0600
0600
0600
0600
0600
ENDCHAR
STARTCHAR char9824
ENCODING 9824
SWIDTH 1200 0
DWIDTH 12 0
BBX 12 12 0 -2
BITMAP
0200
0200
0200
0200
0200
FFF0
07F0
0600
0600
0600
0600
0600
ENDCHAR
STARTCHAR char9825
ENCODING 9825
SWIDTH 1200 0
DWIDTH 12 0
BBX 12 12 0 -2
BITMAP
0600
0600
0600
0600
0600
FFF0
FFF0
0200
0200
0200
0200
0200
ENDCHAR
STARTCHAR char9826
ENCODING 9826
SWIDTH 1200 0
DWIDTH 12 0
BBX 12 12 0 -2
BITMAP
0200
0200
0200
0200
0200
FFF0
FFF0
0600
0600
0600
0600
0600
ENDCHAR
STARTCHAR char9827
ENCODING 9827
SWIDTH 1200 0
DWIDTH 12 0
BBX 12 12 0 -2
BITMAP
0600
0600
0600
0600
0600
FFF0
FE00
0600
0600
0600
0600
0600
ENDCHAR
STARTCHAR char9828
ENCODING 9828
SWIDTH 1200 0
DWIDTH 12 0
BBX 12 12 0 -2
BITMAP
0600
0600
0600
0600
0600
FFF0
07F0
0600
0600
0600
0600
0600
ENDCHAR
STARTCHAR char9829
ENCODING 9829
SWIDTH 1200 0
DWIDTH 12 0
BBX 0 0 0 0
BITMAP
ENDCHAR
STARTCHAR char9830
ENCODING 9830
SWIDTH 1200 0
DWIDTH 12 0
BBX 0 0 0 0
BITMAP
ENDCHAR
STARTCHAR char9831
ENCODING 9831
SWIDTH 1200 0
DWIDTH 12 0
BBX 0 0 0 0
BITMAP
ENDCHAR
STARTCHAR char9832
ENCODING 9832
SWIDTH 1200 0
DWIDTH 12 0
BBX 0 0 0 0
BITMAP
ENDCHAR
STARTCHAR char9833
ENCODING 9833
SWIDTH 1200 0
DWIDTH 12 0
BBX 0 0 0 0
BITMAP
ENDCHAR
STARTCHAR char9834
ENCODING 9834
SWIDTH 1200 0
DWIDTH 12 0
BBX 0 0 0 0
BITMAP
ENDCHAR
STARTCHAR char9835
ENCODING 9835
SWIDTH 1200 0
DWIDTH 12 0
BBX 0 0 0 0
BITMAP
ENDCHAR
STARTCHAR char9836
ENCODING 9836
SWIDTH 1200 0
DWIDTH 12 0
BBX 0 0 0 0
BITMAP
ENDCHAR
STARTCHAR char9837
ENCODING 9837
SWIDTH 1200 0
DWIDTH 12 0
BBX 0 0 0 0
BITMAP
ENDCHAR
STARTCHAR char9838
ENCODING 9838
SWIDTH 1200 0
DWIDTH 12 0
BBX 0 0 0 0
BITMAP
ENDCHAR
STARTCHAR char9839
ENCODING 9839
SWIDTH 1200 0
DWIDTH 12 0
BBX 0 0 0 0
BITMAP
ENDCHAR
STARTCHAR char9840
ENCODING 9840
SWIDTH 1200 0
DWIDTH 12 0
BBX 0 0 0 0
BITMAP
ENDCHAR
STARTCHAR char9841
ENCODING 9841
SWIDTH 1200 0
DWIDTH 12 0
BBX 0 0 0 0
BITMAP
ENDCHAR
STARTCHAR char9842
ENCODING 9842
SWIDTH 1200 0
DWIDTH 12 0
BBX 0 0 0 0
BITMAP
ENDCHAR
STARTCHAR char9843
ENCODING 9843
SWIDTH 1200 0
DWIDTH 12 0
BBX 0 0 0 0
BITMAP
ENDCHAR
STARTCHAR char9844
ENCODING 9844
SWIDTH 1200 0
DWIDTH 12 0
BBX 0 0 0 0
BITMAP
ENDCHAR
STARTCHAR char9845
ENCODING 9845
SWIDTH 1200 0
DWIDTH 12 0
BBX 0 0 0 0
BITMAP
ENDCHAR
STARTCHAR char9846
ENCODING 9846
SWIDTH 1200 0
DWIDTH 12 0
BBX 0 0 0 0
BITMAP
ENDCHAR
STARTCHAR char9847
ENCODING 9847
SWIDTH 1200 0
DWIDTH 12 0
BBX 0 0 0 0
BITMAP
ENDCHAR
STARTCHAR char9848
ENCODING 9848
SWIDTH 1200 0
DWIDTH 12 0
BBX 0 0 0 0
BITMAP
ENDCHAR
STARTCHAR char9849
ENCODING 9849
SWIDTH 1200 0
DWIDTH 12 0
BBX 0 0 0 0
BITMAP
ENDCHAR
STARTCHAR char9850
ENCODING 9850
SWIDTH 1200 0
DWIDTH 12 0
BBX 0 0 0 0
BITMAP
ENDCHAR
STARTCHAR char9851
ENCODING 9851
SWIDTH 1200 0
DWIDTH 12 0
BBX 0 0 0 0
BITMAP
ENDCHAR
STARTCHAR char9852
ENCODING 9852
SWIDTH 1200 0
DWIDTH 12 0
BBX 0 0 0 0
BITMAP
ENDCHAR
STARTCHAR char9853
ENCODING 9853
SWIDTH 1200 0
DWIDTH 12 0
BBX 0 0 0 0
BITMAP
ENDCHAR
STARTCHAR char9854
ENCODING 9854
SWIDTH 1200 0
DWIDTH 12 0
BBX 0 0 0 0
BITMAP
ENDCHAR
STARTCHAR char10017
ENCODING 10017
SWIDTH 1200 0
DWIDTH 12 0
BBX 11 10 1 -1
BITMAP
0040
00A0
00A0
2520
2540
4940
4980
4920
B6C0
8000
ENDCHAR
STARTCHAR char10018
ENCODING 10018
SWIDTH 1200 0
DWIDTH 12 0
BBX 11 9 1 0
BITMAP
0040
00A0
00A0
E920
5540
5540
5580
5520
FEC0
ENDCHAR
STARTCHAR char10019
ENCODING 10019
SWIDTH 1200 0
DWIDTH 12 0
BBX 10 9 1 0
BITMAP
3080
1140
1140
7240
9280
9280
9300
9640
6980
ENDCHAR
STARTCHAR char10020
ENCODING 10020
SWIDTH 1200 0
DWIDTH 12 0
BBX 5 9 4 0
BITMAP
10
28
28
48
50
50
60
C8
30
ENDCHAR
STARTCHAR char10021
ENCODING 10021
SWIDTH 1200 0
DWIDTH 12 0
BBX 11 9 1 0
BITMAP
C040
40A0
40A0
5920
5140
6140
5180
4B20
ECC0
ENDCHAR
STARTCHAR char10022
ENCODING 10022
SWIDTH 1200 0
DWIDTH 12 0
BBX 11 6 1 0
BITMAP
71C0
8A20
8200
8200
8A20
71C0
ENDCHAR
STARTCHAR char10023
ENCODING 10023
SWIDTH 1200 0
DWIDTH 12 0
BBX 11 10 1 0
BITMAP
00C0
0020
00C0
0020
D340
AAA0
AAA0
AAA0
AAA0
AAA0
ENDCHAR
STARTCHAR char10024
ENCODING 10024
SWIDTH 1200 0
DWIDTH 12 0
BBX 11 10 1 0
BITMAP
00C0
0020
00C0
0020
76C0
8D40
8540
8540
8D40
7540
ENDCHAR
STARTCHAR char10025
ENCODING 10025
SWIDTH 1200 0
DWIDTH 12 0
BBX 11 10 1 0
BITMAP
00C0
0020
00C0
0020
F6C0
4900
4900
4900
4900
FF80
ENDCHAR
STARTCHAR char10026
ENCODING 10026
SWIDTH 1200 0
DWIDTH 12 0
BBX 11 10 1 0
BITMAP
00C0
C020
40C0
4020
4EC0
5540
6540
5540
4D40
EFE0
ENDCHAR
STARTCHAR char10027
ENCODING 10027
SWIDTH 1200 0
DWIDTH 12 0
BBX 10 9 2 0
BITMAP
2000
5000
4000
F500
4A80
4A80
4A80
4A80
FFC0
ENDCHAR
STARTCHAR char10028
ENCODING 10028
SWIDTH 1200 0
DWIDTH 12 0
BBX 11 6 1 0
BITMAP
F740
4AA0
4AA0
4AA0
4AA0
FFE0
ENDCHAR
STARTCHAR char10029
ENCODING 10029
SWIDTH 1200 0
DWIDTH 12 0
BBX 11 7 1 -1
BITMAP
2540
26A0
4AA0
4AA0
4AA0
B7E0
8000
ENDCHAR
STARTCHAR char10030
ENCODING 10030
SWIDTH 1200 0
DWIDTH 12 0
BBX 11 6 1 0
BITMAP
D340
AAA0
AAA0
AAA0
AAA0
AAA0
ENDCHAR
STARTCHAR char10031
ENCODING 10031
SWIDTH 1200 0
DWIDTH 12 0
BBX 11 6 1 0
BITMAP
7740
8AA0
82A0
82A0
8AA0
77E0
ENDCHAR
STARTCHAR char10032
ENCODING 10032
SWIDTH 1200 0
DWIDTH 12 0
BBX 11 9 1 0
BITMAP
C000
4000
4000
4E80
5540
6540
5540
4D40
EFE0
ENDCHAR
STARTCHAR char10033
ENCODING 10033
SWIDTH 1200 0
DWIDTH 12 0
BBX 11 10 1 0
BITMAP
00C0
0020
0040
0080
D3E0
AAA0
AAA0
AAA0
AAA0
AAA0
ENDCHAR
STARTCHAR char10034
ENCODING 10034
SWIDTH 1200 0
DWIDTH 12 0
BBX 11 10 1 0
BITMAP
00C0
0020
0040
0080
76E0
8D40
8540
8540
8D40
7540
ENDCHAR
STARTCHAR char10035
ENCODING 10035
SWIDTH 1200 0
DWIDTH 12 0
BBX 11 10 1 0
BITMAP
00C0
0020
0040
0080
F6E0
4900
4900
4900
4900
FF80
ENDCHAR
STARTCHAR char10036
ENCODING 10036
SWIDTH 1200 0
DWIDTH 12 0
BBX 11 10 1 0
BITMAP
00C0
C020
4040
4080
4EE0
5540
6540
5540
4D40
EFE0
ENDCHAR
STARTCHAR char10037
ENCODING 10037
SWIDTH 1200 0
DWIDTH 12 0
BBX 11 9 1 0
BITMAP
C000
4000
4000
7180
4A40
49C0
4A40
4A40
FDA0
ENDCHAR
STARTCHAR char10038
ENCODING 10038
SWIDTH 1200 0
DWIDTH 12 0
BBX 11 7 1 -1
BITMAP
24C0
2520
48C0
4900
49C0
B620
81C0
ENDCHAR
STARTCHAR char10039
ENCODING 10039
SWIDTH 1200 0
DWIDTH 12 0
BBX 11 7 1 -1
BITMAP
E8C0
5520
54C0
5500
55C0
FE20
01C0
ENDCHAR
STARTCHAR char10040
ENCODING 10040
SWIDTH 1200 0
DWIDTH 12 0
BBX 10 10 1 -1
BITMAP
C000
4000
4000
5980
5240
6180
5200
4B80
EC40
0380
ENDCHAR
STARTCHAR char10041
ENCODING 10041
SWIDTH 1200 0
DWIDTH 12 0
BBX 10 9 1 0
BITMAP
C100
4100
4100
5B80
5100
6100
5100
4940
EC80
ENDCHAR
STARTCHAR char10042
ENCODING 10042
SWIDTH 1200 0
DWIDTH 12 0
BBX 11 9 1 0
BITMAP
00C0
0040
0040
6640
9140
8740
8940
9940
66E0
ENDCHAR
STARTCHAR char10043
ENCODING 10043
SWIDTH 1200 0
DWIDTH 12 0
BBX 11 9 1 0
BITMAP
8020
8020
8020
A920
D6A0
91A0
D2A0
B6A0
A960
ENDCHAR
STARTCHAR char10044
ENCODING 10044
SWIDTH 1200 0
DWIDTH 12 0
BBX 10 9 1 0
BITMAP
3780
1240
1240
7380
9240
9240
9240
9240
6F80
ENDCHAR
STARTCHAR char10045
ENCODING 10045
SWIDTH 1200 0
DWIDTH 12 0
BBX 11 10 1 -1
BITMAP
0200
0200
0200
EAE0
5520
5480
5440
5520
FDC0
0400
ENDCHAR
STARTCHAR char10046
ENCODING 10046
SWIDTH 1200 0
DWIDTH 12 0
BBX 11 11 1 -1
BITMAP
0040
0220
0240
0260
EB80
5640
5500
5480
5640
FD80
0400
ENDCHAR
STARTCHAR char10047
ENCODING 10047
SWIDTH 1200 0
DWIDTH 12 0
BBX 10 7 1 -1
BITMAP
F1C0
4A40
4900
4880
7240
4380
E000
ENDCHAR
STARTCHAR char10048
ENCODING 10048
SWIDTH 1200 0
DWIDTH 12 0
BBX 10 6 1 0
BITMAP
F1C0
4A40
4900
4880
4A40
FF80
ENDCHAR
STARTCHAR char10049
ENCODING 10049
SWIDTH 1200 0
DWIDTH 12 0
BBX 11 7 1 -1
BITMAP
24E0
2520
4880
4840
4B20
B5C0
8000
ENDCHAR
STARTCHAR char10050
ENCODING 10050
SWIDTH 1200 0
DWIDTH 12 0
BBX 11 6 1 0
BITMAP
E8E0
5520
5480
5440
5520
FFC0
ENDCHAR
STARTCHAR char10051
ENCODING 10051
SWIDTH 1200 0
DWIDTH 12 0
BBX 10 10 1 -1
BITMAP
06C0
0280
0280
F280
4A80
4A80
4900
7100
4100
E000
ENDCHAR
STARTCHAR char10052
ENCODING 10052
SWIDTH 1200 0
DWIDTH 12 0
BBX 10 9 1 0
BITMAP
06C0
0280
0280
F280
4A80
4A80
4900
4900
FD00
ENDCHAR
STARTCHAR char10053
ENCODING 10053
SWIDTH 1200 0
DWIDTH 12 0
BBX 11 10 1 -1
BITMAP
0360
0140
0140
2540
2540
4940
4880
4A80
B480
8000
ENDCHAR
STARTCHAR char10054
ENCODING 10054
SWIDTH 1200 0
DWIDTH 12 0
BBX 11 9 1 0
BITMAP
0360
0140
0140
E940
5540
5540
5480
5480
FE80
ENDCHAR
STARTCHAR char10055
ENCODING 10055
SWIDTH 1200 0
DWIDTH 12 0
BBX 10 9 1 0
BITMAP
C6C0
4280
4280
5A80
5280
6280
5100
4900
ED00
ENDCHAR
STARTCHAR char10056
ENCODING 10056
SWIDTH 1200 0
DWIDTH 12 0
BBX 11 9 1 0
BITMAP
C760
4540
6D40
6D40
5540
5540
5480
4480
EE80
ENDCHAR
STARTCHAR char10057
ENCODING 10057
SWIDTH 1200 0
DWIDTH 12 0
BBX 10 10 1 -1
BITMAP
0100
0100
0100
F280
4A80
4B80
4A80
7280
47C0
E000
ENDCHAR
STARTCHAR char10058
ENCODING 10058
SWIDTH 1200 0
DWIDTH 12 0
BBX 10 9 1 0
BITMAP
0100
0100
0100
F280
4A80
4B80
4A80
4A80
FFC0
ENDCHAR
STARTCHAR char10059
ENCODING 10059
SWIDTH 1200 0
DWIDTH 12 0
BBX 11 10 1 -1
BITMAP
0080
0080
0080
2540
2540
49C0
4940
4940
B7E0
8000
ENDCHAR
STARTCHAR char10060
ENCODING 10060
SWIDTH 1200 0
DWIDTH 12 0
BBX 11 9 1 0
BITMAP
0080
0080
0080
E940
5540
55C0
5540
5540
FFE0
ENDCHAR
STARTCHAR char10061
ENCODING 10061
SWIDTH 1200 0
DWIDTH 12 0
BBX 11 9 1 0
BITMAP
C080
4080
4080
5940
5140
61C0
5140
4940
EFE0
ENDCHAR
STARTCHAR char10062
ENCODING 10062
SWIDTH 1200 0
DWIDTH 12 0
BBX 11 10 1 -1
BITMAP
0760
0220
0220
F2A0
4AA0
4AA0
4940
7140
4140
E000
ENDCHAR
STARTCHAR char10063
ENCODING 10063
SWIDTH 1200 0
DWIDTH 12 0
BBX 11 9 1 0
BITMAP
0760
0220
0220
F2A0
4AA0
4AA0
4940
4940
FD40
ENDCHAR
STARTCHAR char10064
ENCODING 10064
SWIDTH 1200 0
DWIDTH 12 0
BBX 11 10 1 -1
BITMAP
0760
0220
0220
2AA0
2AA0
52A0
5140
5540
A940
8000
ENDCHAR
STARTCHAR char10065
ENCODING 10065
SWIDTH 1200 0
DWIDTH 12 0
BBX 11 9 1 0
BITMAP
0760
0220
0220
EAA0
56A0
56A0
5540
5540
FF40
ENDCHAR
STARTCHAR char10066
ENCODING 10066
SWIDTH 1200 0
DWIDTH 12 0
BBX 11 9 1 0
BITMAP
C760
4220
4220
5AA0
52A0
62A0
5140
4940
ED40
ENDCHAR
STARTCHAR char10067
ENCODING 10067
SWIDTH 1200 0
DWIDTH 12 0
BBX 11 10 1 -1
BITMAP
8A20
8A20
8A20
DAA0
DAA0
AAA0
AAA0
A940
8940
8940
ENDCHAR
STARTCHAR char10068
ENCODING 10068
SWIDTH 1200 0
DWIDTH 12 0
BBX 11 9 1 0
BITMAP
EE00
4400
4400
45E0
7D20
4440
4480
4520
EFE0
ENDCHAR
STARTCHAR char10069
ENCODING 10069
SWIDTH 1200 0
DWIDTH 12 0
BBX 11 9 1 0
BITMAP
8900
8900
8900
99E0
AF20
C940
A940
9980
99E0
ENDCHAR
STARTCHAR char10070
ENCODING 10070
SWIDTH 1200 0
DWIDTH 12 0
BBX 11 9 1 0
BITMAP
8A80
8A80
8A80
DAE0
DBA0
AAA0
AAC0
AAC0
8AE0
ENDCHAR
STARTCHAR char10071
ENCODING 10071
SWIDTH 1200 0
DWIDTH 12 0
BBX 11 9 1 0
BITMAP
5500
B500
9500
85E0
BF20
9540
9540
9580
65E0
ENDCHAR
STARTCHAR char10072
ENCODING 10072
SWIDTH 1200 0
DWIDTH 12 0
BBX 11 9 1 0
BITMAP
FD00
AD00
2500
25E0
2720
2540
2540
2580
75E0
ENDCHAR
STARTCHAR char10073
ENCODING 10073
SWIDTH 1200 0
DWIDTH 12 0
BBX 9 9 2 0
BITMAP
1C00
2200
4100
4100
4100
2200
1400
9480
F780
ENDCHAR
STARTCHAR char10074
ENCODING 10074
SWIDTH 1200 0
DWIDTH 12 0
BBX 11 9 1 0
BITMAP
C1C0
4220
4220
5A20
5220
6220
5140
4940
EF60
ENDCHAR
STARTCHAR char10075
ENCODING 10075
SWIDTH 1200 0
DWIDTH 12 0
BBX 11 9 1 0
BITMAP
89C0
8A20
DA20
DA20
DA20
AA20
A940
8940
8B60
ENDCHAR
STARTCHAR char10076
ENCODING 10076
SWIDTH 1200 0
DWIDTH 12 0
BBX 10 10 1 -1
BITMAP
0780
0240
0200
F280
4B80
4A80
4A00
7200
4700
E000
ENDCHAR
STARTCHAR char10077
ENCODING 10077
SWIDTH 1200 0
DWIDTH 12 0
BBX 10 9 1 0
BITMAP
0780
0240
0200
F280
4B80
4A80
4A00
4A00
EF00
ENDCHAR
STARTCHAR char10078
ENCODING 10078
SWIDTH 1200 0
DWIDTH 12 0
BBX 11 10 1 -1
BITMAP
03C0
0120
0100
2540
25C0
4940
4900
4900
B780
8000
ENDCHAR
STARTCHAR char10079
ENCODING 10079
SWIDTH 1200 0
DWIDTH 12 0
BBX 11 9 1 0
BITMAP
0060
0020
0020
D120
AAA0
AAA0
AAA0
AAA0
A920
ENDCHAR
STARTCHAR char10080
ENCODING 10080
SWIDTH 1200 0
DWIDTH 12 0
BBX 11 9 1 0
BITMAP
00C0
0040
0040
71C0
8A40
8240
8240
8A40
71A0
ENDCHAR
STARTCHAR char10081
ENCODING 10081
SWIDTH 1200 0
DWIDTH 12 0
BBX 11 9 1 0
BITMAP
00C0
0040
0040
D8C0
6540
4D40
5540
5540
EAA0
ENDCHAR
STARTCHAR char10082
ENCODING 10082
SWIDTH 1200 0
DWIDTH 12 0
BBX 11 11 1 -1
BITMAP
0180
B080
C980
9A80
AAE0
9D80
0600
1980
6300
8080
0300
ENDCHAR
STARTCHAR char10083
ENCODING 10083
SWIDTH 1200 0
DWIDTH 12 0
BBX 11 11 1 -1
BITMAP
0180
B080
C980
9A80
AAE0
9D80
0640
1B20
6640
8160
0600
ENDCHAR
STARTCHAR char10084
ENCODING 10084
SWIDTH 1200 0
DWIDTH 12 0
BBX 10 6 2 0
BITMAP
7680
9340
4200
2200
9200
E700
ENDCHAR
STARTCHAR char10085
ENCODING 10085
SWIDTH 1200 0
DWIDTH 12 0
BBX 11 9 1 0
BITMAP
F000
4800
4800
4B80
4840
73C0
4440
4440
E3A0
ENDCHAR
STARTCHAR char10086
ENCODING 10086
SWIDTH 1200 0
DWIDTH 12 0
BBX 11 9 1 0
BITMAP
CE00
4500
4500
5D80
5640
64C0
5540
4D40
EEA0
ENDCHAR
STARTCHAR char10087
ENCODING 10087
SWIDTH 1200 0
DWIDTH 12 0
BBX 11 9 1 0
BITMAP
8B00
8A80
DA80
DAC0
DB20
AA60
AAA0
AAA0
8F60
ENDCHAR
STARTCHAR char10088
ENCODING 10088
SWIDTH 1200 0
DWIDTH 12 0
BBX 11 9 1 0
BITMAP
6E00
9500
8500
8580
BE40
94C0
9540
9540
6EA0
ENDCHAR
STARTCHAR char10089
ENCODING 10089
SWIDTH 1200 0
DWIDTH 12 0
BBX 11 9 1 0
BITMAP
EF00
4500
5500
55C0
5520
5520
2920
2920
29C0
ENDCHAR
STARTCHAR char10090
ENCODING 10090
SWIDTH 1200 0
DWIDTH 12 0
BBX 11 9 1 0
BITMAP
C000
4000
4000
4E80
4540
4540
4540
4540
EFE0
ENDCHAR
STARTCHAR char10091
ENCODING 10091
SWIDTH 1200 0
DWIDTH 12 0
BBX 9 9 2 0
BITMAP
C000
4000
4000
4D80
4500
4200
4200
4500
ED80
ENDCHAR
STARTCHAR char10092
ENCODING 10092
SWIDTH 1200 0
DWIDTH 12 0
BBX 11 10 1 -1
BITMAP
F000
4800
4800
71E0
4A40
4A40
4A40
49C0
F040
00E0
ENDCHAR
STARTCHAR char10093
ENCODING 10093
SWIDTH 1200 0
DWIDTH 12 0
BBX 11 10 1 -1
BITMAP
5000
B000
9000
8EE0
B440
9280
9280
9100
6100
0600
ENDCHAR
STARTCHAR char10094
ENCODING 10094
SWIDTH 1200 0
DWIDTH 12 0
BBX 11 9 1 0
BITMAP
5000
B000
9000
8EE0
6440
1280
9280
D100
A100
ENDCHAR
STARTCHAR char10095
ENCODING 10095
SWIDTH 1200 0
DWIDTH 12 0
BBX 11 10 1 -1
BITMAP
4C00
AC00
9400
9560
96A0
A440
6680
25C0
4520
40C0
ENDCHAR
STARTCHAR char10096
ENCODING 10096
SWIDTH 1200 0
DWIDTH 12 0
BBX 0 0 0 0
BITMAP
ENDCHAR
STARTCHAR char10097
ENCODING 10097
SWIDTH 1200 0
DWIDTH 12 0
BBX 0 0 0 0
BITMAP
ENDCHAR
STARTCHAR char10098
ENCODING 10098
SWIDTH 1200 0
DWIDTH 12 0
BBX 0 0 0 0
BITMAP
ENDCHAR
STARTCHAR char10099
ENCODING 10099
SWIDTH 1200 0
DWIDTH 12 0
BBX 0 0 0 0
BITMAP
ENDCHAR
STARTCHAR char10100
ENCODING 10100
SWIDTH 1200 0
DWIDTH 12 0
BBX 0 0 0 0
BITMAP
ENDCHAR
STARTCHAR char10101
ENCODING 10101
SWIDTH 1200 0
DWIDTH 12 0
BBX 0 0 0 0
BITMAP
ENDCHAR
STARTCHAR char10102
ENCODING 10102
SWIDTH 1200 0
DWIDTH 12 0
BBX 0 0 0 0
BITMAP
ENDCHAR
STARTCHAR char10103
ENCODING 10103
SWIDTH 1200 0
DWIDTH 12 0
BBX 0 0 0 0
BITMAP
ENDCHAR
STARTCHAR char10104
ENCODING 10104
SWIDTH 1200 0
DWIDTH 12 0
BBX 0 0 0 0
BITMAP
ENDCHAR
STARTCHAR char10105
ENCODING 10105
SWIDTH 1200 0
DWIDTH 12 0
BBX 0 0 0 0
BITMAP
ENDCHAR
STARTCHAR char10106
ENCODING 10106
SWIDTH 1200 0
DWIDTH 12 0
BBX 0 0 0 0
BITMAP
ENDCHAR
STARTCHAR char10107
ENCODING 10107
SWIDTH 1200 0
DWIDTH 12 0
BBX 0 0 0 0
BITMAP
ENDCHAR
STARTCHAR char10108
ENCODING 10108
SWIDTH 1200 0
DWIDTH 12 0
BBX 0 0 0 0
BITMAP
ENDCHAR
STARTCHAR char10109
ENCODING 10109
SWIDTH 1200 0
DWIDTH 12 0
BBX 0 0 0 0
BITMAP
ENDCHAR
STARTCHAR char10110
ENCODING 10110
SWIDTH 1200 0
DWIDTH 12 0
BBX 0 0 0 0
BITMAP
ENDCHAR
STARTCHAR char10273
ENCODING 10273
SWIDTH 1200 0
DWIDTH 12 0
BBX 10 9 1 0
BITMAP
1FC0
0C40
1400
1480
2780
3C80
4400
4440
EFC0
ENDCHAR
STARTCHAR char10274
ENCODING 10274
SWIDTH 1200 0
DWIDTH 12 0
BBX 9 9 1 0
BITMAP
3E00
1100
1080
1080
FC80
1080
1080
1100
3E00
ENDCHAR
STARTCHAR char10275
ENCODING 10275
SWIDTH 1200 0
DWIDTH 12 0
BBX 5 7 4 0
BITMAP
60
90
70
90
68
00
F8
ENDCHAR
STARTCHAR char10276
ENCODING 10276
SWIDTH 1200 0
DWIDTH 12 0
BBX 10 9 1 0
BITMAP
7380
2100
FFC0
2100
3F00
2100
2100
2100
7380
ENDCHAR
STARTCHAR char10277
ENCODING 10277
SWIDTH 1200 0
DWIDTH 12 0
BBX 0 0 0 0
BITMAP
ENDCHAR
STARTCHAR char10278
ENCODING 10278
SWIDTH 1200 0
DWIDTH 12 0
BBX 8 10 2 -1
BITMAP
E7
42
42
42
42
42
42
42
F2
0C
ENDCHAR
STARTCHAR char10279
ENCODING 10279
SWIDTH 1200 0
DWIDTH 12 0
BBX 0 0 0 0
BITMAP
ENDCHAR
STARTCHAR char10280
ENCODING 10280
SWIDTH 1200 0
DWIDTH 12 0
BBX 8 9 2 0
BITMAP
E0
40
40
44
44
40
41
42
FE
ENDCHAR
STARTCHAR char10281
ENCODING 10281
SWIDTH 1200 0
DWIDTH 12 0
BBX 10 9 1 0
BITMAP
3800
1180
1600
1800
3000
D000
1040
1080
3F80
ENDCHAR
STARTCHAR char10282
ENCODING 10282
SWIDTH 1200 0
DWIDTH 12 0
BBX 8 9 2 0
BITMAP
1D
22
45
49
51
61
41
A2
1C
ENDCHAR
STARTCHAR char10283
ENCODING 10283
SWIDTH 1200 0
DWIDTH 12 0
BBX 10 9 1 0
BITMAP
37C0
4C40
8400
8480
8780
8480
8400
4C40
37C0
ENDCHAR
STARTCHAR char10284
ENCODING 10284
SWIDTH 1200 0
DWIDTH 12 0
BBX 4 7 4 0
BITMAP
60
90
90
60
00
00
F0
ENDCHAR
STARTCHAR char10285
ENCODING 10285
SWIDTH 1200 0
DWIDTH 12 0
BBX 7 9 2 0
BITMAP
F0
20
3C
22
22
22
3C
20
F0
ENDCHAR
STARTCHAR char10286
ENCODING 10286
SWIDTH 1200 0
DWIDTH 12 0
BBX 7 9 2 0
BITMAP
FE
92
92
10
7C
10
10
10
38
ENDCHAR
STARTCHAR char10287
ENCODING 10287
SWIDTH 1200 0
DWIDTH 12 0
BBX 7 9 3 0
BITMAP
E0
40
40
78
44
42
42
44
E8
ENDCHAR
STARTCHAR char10288
ENCODING 10288
SWIDTH 1200 0
DWIDTH 12 0
BBX 0 0 0 0
BITMAP
ENDCHAR
STARTCHAR char10289
ENCODING 10289
SWIDTH 1200 0
DWIDTH 12 0
BBX 11 11 1 -1
BITMAP
1F00
2080
4040
9F20
8120
8120
8120
8120
4040
2080
1F00
ENDCHAR
STARTCHAR char10290
ENCODING 10290
SWIDTH 1200 0
DWIDTH 12 0
BBX 11 11 1 -1
BITMAP
1F00
2080
4040
9820
8820
8820
8FA0
8020
4040
2080
1F00
ENDCHAR
STARTCHAR char10291
ENCODING 10291
SWIDTH 1200 0
DWIDTH 12 0
BBX 11 11 1 -1
BITMAP
1F00
2080
4040
BF20
9020
9020
8F20
8020
4040
2080
1F00
ENDCHAR
STARTCHAR char10292
ENCODING 10292
SWIDTH 1200 0
DWIDTH 12 0
BBX 11 11 1 -1
BITMAP
1F00
2080
4040
9F20
8120
9F20
8820
8F20
4040
2080
1F00
ENDCHAR
STARTCHAR char10293
ENCODING 10293
SWIDTH 1200 0
DWIDTH 12 0
BBX 11 11 1 -1
BITMAP
1F00
2080
4040
9F20
8920
8920
8920
8F20
4040
2080
1F00
ENDCHAR
STARTCHAR char10294
ENCODING 10294
SWIDTH 1200 0
DWIDTH 12 0
BBX 11 11 1 -1
BITMAP
1F00
2080
4040
8320
9920
8F20
8920
8F20
4040
2080
1F00
ENDCHAR
STARTCHAR char10295
ENCODING 10295
SWIDTH 1200 0
DWIDTH 12 0
BBX 11 11 1 -1
BITMAP
1F00
2080
4040
8C20
8420
8420
8A20
9120
4040
2080
1F00
ENDCHAR
STARTCHAR char10296
ENCODING 10296
SWIDTH 1200 0
DWIDTH 12 0
BBX 11 11 1 -1
BITMAP
1F00
2080
4040
8E20
9120
9120
9120
8E20
4040
2080
1F00
ENDCHAR
STARTCHAR char10297
ENCODING 10297
SWIDTH 1200 0
DWIDTH 12 0
BBX 11 11 1 -1
BITMAP
1F00
2080
4040
9F20
8220
8420
8A20
9120
4040
2080
1F00
ENDCHAR
STARTCHAR char10298
ENCODING 10298
SWIDTH 1200 0
DWIDTH 12 0
BBX 11 11 1 -1
BITMAP
1F00
2080
4E40
8020
9F20
8420
8A20
B120
4040
2080
1F00
ENDCHAR
STARTCHAR char10299
ENCODING 10299
SWIDTH 1200 0
DWIDTH 12 0
BBX 11 11 1 -1
BITMAP
1F00
2080
4040
9F20
8120
9F20
8120
8120
4040
2080
1F00
ENDCHAR
STARTCHAR char10300
ENCODING 10300
SWIDTH 1200 0
DWIDTH 12 0
BBX 11 11 1 -1
BITMAP
1F00
2080
4040
9F20
8820
8F20
8820
8F20
4040
2080
1F00
ENDCHAR
STARTCHAR char10301
ENCODING 10301
SWIDTH 1200 0
DWIDTH 12 0
BBX 11 11 1 -1
BITMAP
1F00
2080
4040
9F20
8220
9A20
8A20
BF20
4040
2080
1F00
ENDCHAR
STARTCHAR char10302
ENCODING 10302
SWIDTH 1200 0
DWIDTH 12 0
BBX 11 11 1 -1
BITMAP
1F00
2080
4C40
8020
BF20
8C20
9220
9220
4C40
2080
1F00
ENDCHAR
STARTCHAR char10303
ENCODING 10303
SWIDTH 1200 0
DWIDTH 12 0
BBX 11 11 1 -1
BITMAP
1F00
2080
4240
BA20
8A20
8BA0
9220
A220
4240
2080
1F00
ENDCHAR
STARTCHAR char10304
ENCODING 10304
SWIDTH 1200 0
DWIDTH 12 0
BBX 11 11 1 -1
BITMAP
1F00
2080
4640
8220
B220
93A0
9E20
8220
4240
2080
1F00
ENDCHAR
STARTCHAR char10305
ENCODING 10305
SWIDTH 1200 0
DWIDTH 12 0
BBX 11 11 1 -1
BITMAP
1F00
2080
4640
8220
BA20
93A0
9E20
8220
4240
2080
1F00
ENDCHAR
STARTCHAR char10306
ENCODING 10306
SWIDTH 1200 0
DWIDTH 12 0
BBX 11 11 1 -1
BITMAP
1F00
2080
4640
BA20
8A20
B3A0
9E20
8220
4240
2080
1F00
ENDCHAR
STARTCHAR char10307
ENCODING 10307
SWIDTH 1200 0
DWIDTH 12 0
BBX 11 11 1 -1
BITMAP
1F00
2080
4640
BA20
AA20
ABA0
BA20
8220
4240
2080
1F00
ENDCHAR
STARTCHAR char10308
ENCODING 10308
SWIDTH 1200 0
DWIDTH 12 0
BBX 11 11 1 -1
BITMAP
1F00
2080
4640
AA20
BA20
ABA0
BA20
8220
4240
2080
1F00
ENDCHAR
STARTCHAR char10309
ENCODING 10309
SWIDTH 1200 0
DWIDTH 12 0
BBX 11 11 1 -1
BITMAP
1F00
2080
4640
9220
9220
93A0
AA20
AA20
4240
2080
1F00
ENDCHAR
STARTCHAR char10310
ENCODING 10310
SWIDTH 1200 0
DWIDTH 12 0
BBX 11 11 1 -1
BITMAP
1F00
2080
4640
9220
AA20
ABA0
9220
8220
4240
2080
1F00
ENDCHAR
STARTCHAR char10311
ENCODING 10311
SWIDTH 1200 0
DWIDTH 12 0
BBX 11 11 1 -1
BITMAP
1F00
2080
4640
BA20
9220
93A0
AA20
AA20
4240
2080
1F00
ENDCHAR
STARTCHAR char10312
ENCODING 10312
SWIDTH 1200 0
DWIDTH 12 0
BBX 11 11 1 -1
BITMAP
1F00
2080
4640
9220
BA20
93A0
9220
AA20
4240
2080
1F00
ENDCHAR
STARTCHAR char10313
ENCODING 10313
SWIDTH 1200 0
DWIDTH 12 0
BBX 11 11 1 -1
BITMAP
1F00
2080
4240
BA20
8A20
BBA0
9220
A220
4240
2080
1F00
ENDCHAR
STARTCHAR char10314
ENCODING 10314
SWIDTH 1200 0
DWIDTH 12 0
BBX 11 11 1 -1
BITMAP
1F00
2080
5A40
8220
BA20
93A0
9E20
8220
4240
2080
1F00
ENDCHAR
STARTCHAR char10315
ENCODING 10315
SWIDTH 1200 0
DWIDTH 12 0
BBX 11 11 1 -1
BITMAP
1F00
2080
4140
BD20
A920
99E0
BD20
8120
4140
2080
1F00
ENDCHAR
STARTCHAR char10316
ENCODING 10316
SWIDTH 1200 0
DWIDTH 12 0
BBX 11 11 1 -1
BITMAP
1F00
2080
4640
9220
BA20
93A0
AA20
9220
4240
2080
1F00
ENDCHAR
STARTCHAR char10317
ENCODING 10317
SWIDTH 1200 0
DWIDTH 12 0
BBX 11 11 1 -1
BITMAP
1F00
2080
4040
8C20
9220
8E20
9220
8D20
4040
2080
1F00
ENDCHAR
STARTCHAR char10318
ENCODING 10318
SWIDTH 1200 0
DWIDTH 12 0
BBX 11 11 1 -1
BITMAP
1F00
2080
5840
8820
8E20
8920
8920
8E20
4040
2080
1F00
ENDCHAR
STARTCHAR char10319
ENCODING 10319
SWIDTH 1200 0
DWIDTH 12 0
BBX 11 11 1 -1
BITMAP
1F00
2080
4040
8E20
9120
9020
9120
8E20
4040
2080
1F00
ENDCHAR
STARTCHAR char10320
ENCODING 10320
SWIDTH 1200 0
DWIDTH 12 0
BBX 11 11 1 -1
BITMAP
1F00
2080
4640
8220
8E20
9220
9220
8D20
4040
2080
1F00
ENDCHAR
STARTCHAR char10321
ENCODING 10321
SWIDTH 1200 0
DWIDTH 12 0
BBX 11 11 1 -1
BITMAP
1F00
2080
4040
8C20
9220
9E20
9020
8E20
4040
2080
1F00
ENDCHAR
STARTCHAR char10322
ENCODING 10322
SWIDTH 1200 0
DWIDTH 12 0
BBX 11 11 1 -1
BITMAP
1F00
2080
4440
8A20
8820
9E20
8820
8820
5C40
2080
1F00
ENDCHAR
STARTCHAR char10323
ENCODING 10323
SWIDTH 1200 0
DWIDTH 12 0
BBX 11 11 1 -1
BITMAP
1F00
2080
4D40
9220
8C20
9020
8E20
9120
4E40
2080
1F00
ENDCHAR
STARTCHAR char10324
ENCODING 10324
SWIDTH 1200 0
DWIDTH 12 0
BBX 11 11 1 -1
BITMAP
1F00
2080
5840
8820
8E20
8920
8920
99A0
4040
2080
1F00
ENDCHAR
STARTCHAR char10325
ENCODING 10325
SWIDTH 1200 0
DWIDTH 12 0
BBX 11 11 1 -1
BITMAP
1F00
2080
4440
8020
8C20
8420
8420
8E20
4040
2080
1F00
ENDCHAR
STARTCHAR char10326
ENCODING 10326
SWIDTH 1200 0
DWIDTH 12 0
BBX 11 11 1 -1
BITMAP
1F00
2080
4440
8020
8C20
8420
8420
9420
4840
2080
1F00
ENDCHAR
STARTCHAR char10327
ENCODING 10327
SWIDTH 1200 0
DWIDTH 12 0
BBX 11 11 1 -1
BITMAP
1F00
2080
5840
8B20
8A20
8C20
8A20
9B20
4040
2080
1F00
ENDCHAR
STARTCHAR char10328
ENCODING 10328
SWIDTH 1200 0
DWIDTH 12 0
BBX 11 11 1 -1
BITMAP
1F00
2080
4C40
8420
8420
8420
8420
8E20
4040
2080
1F00
ENDCHAR
STARTCHAR char10329
ENCODING 10329
SWIDTH 1200 0
DWIDTH 12 0
BBX 11 11 1 -1
BITMAP
1F00
2080
4040
9A20
B520
9520
9520
BFA0
4040
2080
1F00
ENDCHAR
STARTCHAR char10330
ENCODING 10330
SWIDTH 1200 0
DWIDTH 12 0
BBX 11 11 1 -1
BITMAP
1F00
2080
4040
9620
8920
8920
8920
9FA0
4040
2080
1F00
ENDCHAR
STARTCHAR char10331
ENCODING 10331
SWIDTH 1200 0
DWIDTH 12 0
BBX 11 11 1 -1
BITMAP
1F00
2080
4040
8E20
9120
9120
9120
8E20
4040
2080
1F00
ENDCHAR
STARTCHAR char10332
ENCODING 10332
SWIDTH 1200 0
DWIDTH 12 0
BBX 11 11 1 -1
BITMAP
1F00
2080
4040
9620
8920
8920
8E20
8820
5C40
2080
1F00
ENDCHAR
STARTCHAR char10333
ENCODING 10333
SWIDTH 1200 0
DWIDTH 12 0
BBX 11 11 1 -1
BITMAP
1F00
2080
4040
8E20
9220
9220
8E20
8220
4740
2080
1F00
ENDCHAR
STARTCHAR char10334
ENCODING 10334
SWIDTH 1200 0
DWIDTH 12 0
BBX 11 11 1 -1
BITMAP
1F00
2080
4040
9A20
8D20
8820
8820
9C20
4040
2080
1F00
ENDCHAR
STARTCHAR char10335
ENCODING 10335
SWIDTH 1200 0
DWIDTH 12 0
BBX 11 11 1 -1
BITMAP
1F00
2080
4040
8E20
9020
8C20
8220
9C20
4040
2080
1F00
ENDCHAR
STARTCHAR char10336
ENCODING 10336
SWIDTH 1200 0
DWIDTH 12 0
BBX 11 11 1 -1
BITMAP
1F00
2080
4840
9E20
8820
8820
8820
8620
4040
2080
1F00
ENDCHAR
STARTCHAR char10337
ENCODING 10337
SWIDTH 1200 0
DWIDTH 12 0
BBX 11 11 1 -1
BITMAP
1F00
2080
4040
B620
9220
9220
9220
8D20
4040
2080
1F00
ENDCHAR
STARTCHAR char10338
ENCODING 10338
SWIDTH 1200 0
DWIDTH 12 0
BBX 11 11 1 -1
BITMAP
1F00
2080
4040
9B20
8A20
8A20
8420
8420
4040
2080
1F00
ENDCHAR
STARTCHAR char10339
ENCODING 10339
SWIDTH 1200 0
DWIDTH 12 0
BBX 11 11 1 -1
BITMAP
1F00
2080
4040
B5A0
9520
9520
8A20
8A20
4040
2080
1F00
ENDCHAR
STARTCHAR char10340
ENCODING 10340
SWIDTH 1200 0
DWIDTH 12 0
BBX 11 11 1 -1
BITMAP
1F00
2080
4040
9B20
8A20
8420
8A20
9B20
4040
2080
1F00
ENDCHAR
STARTCHAR char10341
ENCODING 10341
SWIDTH 1200 0
DWIDTH 12 0
BBX 11 11 1 -1
BITMAP
1F00
2080
4040
9B20
8A20
8A20
8420
9420
4840
2080
1F00
ENDCHAR
STARTCHAR char10342
ENCODING 10342
SWIDTH 1200 0
DWIDTH 12 0
BBX 11 11 1 -1
BITMAP
1F00
2080
4040
8F20
9220
8420
8920
9E20
4040
2080
1F00
ENDCHAR
STARTCHAR char10343
ENCODING 10343
SWIDTH 1200 0
DWIDTH 12 0
BBX 11 11 1 -1
BITMAP
1F00
2080
4440
8C20
8420
8420
8420
8E20
4040
2080
1F00
ENDCHAR
STARTCHAR char10344
ENCODING 10344
SWIDTH 1200 0
DWIDTH 12 0
BBX 11 11 1 -1
BITMAP
1F00
2080
4640
8920
8120
8220
8520
8F20
4040
2080
1F00
ENDCHAR
STARTCHAR char10345
ENCODING 10345
SWIDTH 1200 0
DWIDTH 12 0
BBX 11 11 1 -1
BITMAP
1F00
2080
4640
8920
8220
8120
8920
8620
4040
2080
1F00
ENDCHAR
STARTCHAR char10346
ENCODING 10346
SWIDTH 1200 0
DWIDTH 12 0
BBX 11 11 1 -1
BITMAP
1F00
2080
4240
8620
8620
8A20
8F20
8220
4040
2080
1F00
ENDCHAR
STARTCHAR char10347
ENCODING 10347
SWIDTH 1200 0
DWIDTH 12 0
BBX 11 11 1 -1
BITMAP
1F00
2080
4F40
8820
8E20
8920
8120
8E20
4040
2080
1F00
ENDCHAR
STARTCHAR char10348
ENCODING 10348
SWIDTH 1200 0
DWIDTH 12 0
BBX 11 11 1 -1
BITMAP
1F00
2080
4640
8920
8E20
8920
8920
8620
4040
2080
1F00
ENDCHAR
STARTCHAR char10349
ENCODING 10349
SWIDTH 1200 0
DWIDTH 12 0
BBX 11 11 1 -1
BITMAP
1F00
2080
4F40
8920
9220
8220
8420
8420
4040
2080
1F00
ENDCHAR
STARTCHAR char10350
ENCODING 10350
SWIDTH 1200 0
DWIDTH 12 0
BBX 11 11 1 -1
BITMAP
1F00
2080
4640
8920
8620
8920
8920
8620
4040
2080
1F00
ENDCHAR
STARTCHAR char10351
ENCODING 10351
SWIDTH 1200 0
DWIDTH 12 0
BBX 11 11 1 -1
BITMAP
1F00
2080
4640
8920
8920
8720
8920
8620
4040
2080
1F00
ENDCHAR
STARTCHAR char10352
ENCODING 10352
SWIDTH 1200 0
DWIDTH 12 0
BBX 11 11 1 -1
BITMAP
1F00
2080
5340
B4A0
94A0
94A0
94A0
BB20
4040
2080
1F00
ENDCHAR
STARTCHAR char10353
ENCODING 10353
SWIDTH 1200 0
DWIDTH 12 0
BBX 11 11 1 -1
BITMAP
1F00
2080
5140
B320
9120
9120
9120
BBA0
4040
2080
1F00
ENDCHAR
STARTCHAR char10354
ENCODING 10354
SWIDTH 1200 0
DWIDTH 12 0
BBX 11 11 1 -1
BITMAP
1F00
2080
5340
B4A0
90A0
9120
9220
BFA0
4040
2080
1F00
ENDCHAR
STARTCHAR char10355
ENCODING 10355
SWIDTH 1200 0
DWIDTH 12 0
BBX 11 11 1 -1
BITMAP
1F00
2080
5340
B4A0
9120
90A0
94A0
BB20
4040
2080
1F00
ENDCHAR
STARTCHAR char10356
ENCODING 10356
SWIDTH 1200 0
DWIDTH 12 0
BBX 11 11 1 -1
BITMAP
1F00
2080
5140
B320
9520
9520
97A0
B920
4040
2080
1F00
ENDCHAR
STARTCHAR char10357
ENCODING 10357
SWIDTH 1200 0
DWIDTH 12 0
BBX 11 11 1 -1
BITMAP
1F00
2080
57C0
B420
9720
90A0
94A0
BB20
4040
2080
1F00
ENDCHAR
STARTCHAR char10358
ENCODING 10358
SWIDTH 1200 0
DWIDTH 12 0
BBX 10 10 1 0
BITMAP
2000
6080
2100
2200
7400
0980
1240
2080
4100
83C0
ENDCHAR
STARTCHAR char10359
ENCODING 10359
SWIDTH 1200 0
DWIDTH 12 0
BBX 10 10 1 0
BITMAP
2000
6080
2100
2200
7400
0980
1240
2080
4240
8180
ENDCHAR
STARTCHAR char10360
ENCODING 10360
SWIDTH 1200 0
DWIDTH 12 0
BBX 10 10 1 0
BITMAP
6000
9080
2100
4200
F400
0980
1240
2080
4240
8180
ENDCHAR
STARTCHAR char10361
ENCODING 10361
SWIDTH 1200 0
DWIDTH 12 0
BBX 10 10 1 0
BITMAP
2000
6080
2100
2200
7400
0880
1180
2280
43C0
8080
ENDCHAR
STARTCHAR char10362
ENCODING 10362
SWIDTH 1200 0
DWIDTH 12 0
BBX 10 10 1 0
BITMAP
6000
9080
2100
9200
6400
0880
1180
2280
43C0
8080
ENDCHAR
STARTCHAR char10363
ENCODING 10363
SWIDTH 1200 0
DWIDTH 12 0
BBX 10 10 1 0
BITMAP
2000
6080
2100
2200
7400
0980
1240
2180
4240
8180
ENDCHAR
STARTCHAR char10364
ENCODING 10364
SWIDTH 1200 0
DWIDTH 12 0
BBX 10 10 1 0
BITMAP
6000
9080
2100
9200
6400
0980
1240
2180
4240
8180
ENDCHAR
STARTCHAR char10365
ENCODING 10365
SWIDTH 1200 0
DWIDTH 12 0
BBX 10 10 1 0
BITMAP
7000
4080
6100
1200
6400
0980
1240
2180
4240
8180
ENDCHAR
STARTCHAR char10366
ENCODING 10366
SWIDTH 1200 0
DWIDTH 12 0
BBX 10 10 1 0
BITMAP
7000
5080
1100
2200
2400
0980
1240
2180
4240
8180
ENDCHAR
STARTCHAR 00E6
ENCODING 10529
SWIDTH 1200 0
DWIDTH 12 0
BBX 9 7 1 -1
BITMAP
7700
4880
0F80
3800
C880
5700
2000
ENDCHAR
STARTCHAR char10530
ENCODING 10530
SWIDTH 1200 0
DWIDTH 12 0
BBX 7 9 3 0
BITMAP
08
FE
08
28
58
88
88
5C
28
ENDCHAR
STARTCHAR char10531
ENCODING 10531
SWIDTH 1200 0
DWIDTH 12 0
BBX 9 9 2 0
BITMAP
1800
2580
0E00
3200
DA00
2600
2200
2200
1C00
ENDCHAR
STARTCHAR char10532
ENCODING 10532
SWIDTH 1200 0
DWIDTH 12 0
BBX 8 9 2 0
BITMAP
60
20
FE
20
2C
32
22
22
77
ENDCHAR
STARTCHAR char10533
ENCODING 10533
SWIDTH 1200 0
DWIDTH 12 0
BBX 3 6 5 0
BITMAP
C0
40
40
40
40
E0
ENDCHAR
STARTCHAR char10534
ENCODING 10534
SWIDTH 1200 0
DWIDTH 12 0
BBX 6 10 3 -1
BITMAP
44
44
00
CC
44
44
44
44
E4
18
ENDCHAR
STARTCHAR char10535
ENCODING 10535
SWIDTH 1200 0
DWIDTH 12 0
BBX 6 6 3 0
BITMAP
D8
50
60
50
48
EC
ENDCHAR
STARTCHAR char10536
ENCODING 10536
SWIDTH 1200 0
DWIDTH 12 0
BBX 6 9 3 0
BITMAP
C0
40
40
44
44
40
40
40
E0
ENDCHAR
STARTCHAR char10537
ENCODING 10537
SWIDTH 1200 0
DWIDTH 12 0
BBX 7 9 2 0
BITMAP
30
12
14
18
10
30
50
90
38
ENDCHAR
STARTCHAR char10538
ENCODING 10538
SWIDTH 1200 0
DWIDTH 12 0
BBX 6 10 3 -2
BITMAP
08
08
38
54
94
A4
A8
70
40
40
ENDCHAR
STARTCHAR char10539
ENCODING 10539
SWIDTH 1200 0
DWIDTH 12 0
BBX 9 6 2 0
BITMAP
7700
8880
8F80
8800
8880
7700
ENDCHAR
STARTCHAR char10540
ENCODING 10540
SWIDTH 1200 0
DWIDTH 12 0
BBX 7 9 3 0
BITMAP
38
44
44
58
44
42
42
52
EC
ENDCHAR
STARTCHAR char10541
ENCODING 10541
SWIDTH 1200 0
DWIDTH 12 0
BBX 7 9 2 -1
BITMAP
60
20
3C
22
22
22
3C
20
F8
ENDCHAR
STARTCHAR char10542
ENCODING 10542
SWIDTH 1200 0
DWIDTH 12 0
BBX 6 7 3 0
BITMAP
20
F8
20
F8
20
24
18
ENDCHAR
STARTCHAR char10543
ENCODING 10543
SWIDTH 1200 0
DWIDTH 12 0
BBX 6 7 3 -1
BITMAP
D8
64
44
E4
04
24
18
ENDCHAR
STARTCHAR char10544
ENCODING 10544
SWIDTH 1200 0
DWIDTH 12 0
BBX 8 9 2 0
BITMAP
60
80
00
5C
22
22
22
22
77
ENDCHAR
STARTCHAR char10545
ENCODING 10545
SWIDTH 1200 0
DWIDTH 12 0
BBX 11 11 1 -1
BITMAP
2080
4040
4040
9F20
8120
8120
8120
8120
4040
4040
2080
ENDCHAR
STARTCHAR char10546
ENCODING 10546
SWIDTH 1200 0
DWIDTH 12 0
BBX 11 11 1 -1
BITMAP
2080
4040
4040
9820
8820
8820
8FA0
8020
4040
4040
2080
ENDCHAR
STARTCHAR char10547
ENCODING 10547
SWIDTH 1200 0
DWIDTH 12 0
BBX 11 11 1 -1
BITMAP
2080
4040
4040
BF20
9020
9020
8F20
8020
4040
4040
2080
ENDCHAR
STARTCHAR char10548
ENCODING 10548
SWIDTH 1200 0
DWIDTH 12 0
BBX 11 11 1 -1
BITMAP
2080
4040
4040
9F20
8120
9F20
8820
8F20
4040
4040
2080
ENDCHAR
STARTCHAR char10549
ENCODING 10549
SWIDTH 1200 0
DWIDTH 12 0
BBX 11 11 1 -1
BITMAP
2080
4040
4040
9F20
8920
8920
8920
8F20
4040
4040
2080
ENDCHAR
STARTCHAR char10550
ENCODING 10550
SWIDTH 1200 0
DWIDTH 12 0
BBX 11 11 1 -1
BITMAP
2080
4040
4040
8320
9920
8F20
8920
8F20
4040
4040
2080
ENDCHAR
STARTCHAR char10551
ENCODING 10551
SWIDTH 1200 0
DWIDTH 12 0
BBX 11 11 1 -1
BITMAP
2080
4040
4040
8C20
8420
8420
8A20
9120
4040
4040
2080
ENDCHAR
STARTCHAR char10552
ENCODING 10552
SWIDTH 1200 0
DWIDTH 12 0
BBX 11 11 1 -1
BITMAP
2080
4040
4040
8E20
9120
9120
9120
8E20
4040
4040
2080
ENDCHAR
STARTCHAR char10553
ENCODING 10553
SWIDTH 1200 0
DWIDTH 12 0
BBX 11 11 1 -1
BITMAP
2080
4040
4040
9F20
8220
8420
8A20
9120
4040
4040
2080
ENDCHAR
STARTCHAR char10554
ENCODING 10554
SWIDTH 1200 0
DWIDTH 12 0
BBX 11 11 1 -1
BITMAP
2080
4040
4E40
8020
9F20
8420
8A20
B120
4040
4040
2080
ENDCHAR
STARTCHAR char10555
ENCODING 10555
SWIDTH 1200 0
DWIDTH 12 0
BBX 11 11 1 -1
BITMAP
2080
4040
4040
9F20
8120
9F20
8120
8120
4040
4040
2080
ENDCHAR
STARTCHAR char10556
ENCODING 10556
SWIDTH 1200 0
DWIDTH 12 0
BBX 11 11 1 -1
BITMAP
2080
4040
4040
9F20
8820
8F20
8820
8F20
4040
4040
2080
ENDCHAR
STARTCHAR char10557
ENCODING 10557
SWIDTH 1200 0
DWIDTH 12 0
BBX 11 11 1 -1
BITMAP
2080
4040
4040
9F20
8220
9A20
8A20
BF20
4040
4040
2080
ENDCHAR
STARTCHAR char10558
ENCODING 10558
SWIDTH 1200 0
DWIDTH 12 0
BBX 11 11 1 -1
BITMAP
2080
4040
4C40
8020
BF20
8C20
9220
9220
4C40
4040
2080
ENDCHAR
STARTCHAR char10559
ENCODING 10559
SWIDTH 1200 0
DWIDTH 12 0
BBX 11 11 1 -1
BITMAP
2080
4040
4240
BA20
8A20
8BA0
9220
A220
4240
4040
2080
ENDCHAR
STARTCHAR char10560
ENCODING 10560
SWIDTH 1200 0
DWIDTH 12 0
BBX 11 11 1 -1
BITMAP
2080
4040
4640
8220
B220
93A0
9E20
8220
4240
4040
2080
ENDCHAR
STARTCHAR char10561
ENCODING 10561
SWIDTH 1200 0
DWIDTH 12 0
BBX 11 11 1 -1
BITMAP
2080
4040
4640
8220
BA20
93A0
9E20
8220
4240
4040
2080
ENDCHAR
STARTCHAR char10562
ENCODING 10562
SWIDTH 1200 0
DWIDTH 12 0
BBX 11 11 1 -1
BITMAP
2080
4040
4640
BA20
8A20
B3A0
9E20
8220
4240
4040
2080
ENDCHAR
STARTCHAR char10563
ENCODING 10563
SWIDTH 1200 0
DWIDTH 12 0
BBX 11 11 1 -1
BITMAP
2080
4040
4640
BA20
AA20
ABA0
BA20
8220
4240
4040
2080
ENDCHAR
STARTCHAR char10564
ENCODING 10564
SWIDTH 1200 0
DWIDTH 12 0
BBX 11 11 1 -1
BITMAP
2080
4040
4640
AA20
BA20
ABA0
BA20
8220
4240
4040
2080
ENDCHAR
STARTCHAR char10565
ENCODING 10565
SWIDTH 1200 0
DWIDTH 12 0
BBX 11 11 1 -1
BITMAP
2080
4040
4640
9220
9220
93A0
AA20
AA20
4240
4040
2080
ENDCHAR
STARTCHAR char10566
ENCODING 10566
SWIDTH 1200 0
DWIDTH 12 0
BBX 11 11 1 -1
BITMAP
2080
4040
4640
9220
AA20
ABA0
9220
8220
4240
4040
2080
ENDCHAR
STARTCHAR char10567
ENCODING 10567
SWIDTH 1200 0
DWIDTH 12 0
BBX 11 11 1 -1
BITMAP
2080
4040
4640
BA20
9220
93A0
AA20
AA20
4240
4040
2080
ENDCHAR
STARTCHAR char10568
ENCODING 10568
SWIDTH 1200 0
DWIDTH 12 0
BBX 11 11 1 -1
BITMAP
2080
4040
4640
9220
BA20
93A0
9220
AA20
4240
4040
2080
ENDCHAR
STARTCHAR char10569
ENCODING 10569
SWIDTH 1200 0
DWIDTH 12 0
BBX 11 11 1 -1
BITMAP
2080
4040
4240
BA20
8A20
BBA0
9220
A220
4240
4040
2080
ENDCHAR
STARTCHAR char10570
ENCODING 10570
SWIDTH 1200 0
DWIDTH 12 0
BBX 11 11 1 -1
BITMAP
2080
4040
5A40
8220
BA20
93A0
9E20
8220
4240
4040
2080
ENDCHAR
STARTCHAR char10571
ENCODING 10571
SWIDTH 1200 0
DWIDTH 12 0
BBX 11 11 1 -1
BITMAP
2080
4040
4140
BD20
A920
99E0
BD20
8120
4140
4040
2080
ENDCHAR
STARTCHAR char10572
ENCODING 10572
SWIDTH 1200 0
DWIDTH 12 0
BBX 11 11 1 -1
BITMAP
2080
4040
4640
9220
BA20
93A0
AA20
9220
4240
4040
2080
ENDCHAR
STARTCHAR char10573
ENCODING 10573
SWIDTH 1200 0
DWIDTH 12 0
BBX 11 11 1 -1
BITMAP
2080
4040
4040
8C20
9220
8E20
9220
8D20
4040
4040
2080
ENDCHAR
STARTCHAR char10574
ENCODING 10574
SWIDTH 1200 0
DWIDTH 12 0
BBX 11 11 1 -1
BITMAP
2080
4040
5840
8820
8E20
8920
8920
8E20
4040
4040
2080
ENDCHAR
STARTCHAR char10575
ENCODING 10575
SWIDTH 1200 0
DWIDTH 12 0
BBX 11 11 1 -1
BITMAP
2080
4040
4040
8E20
9120
9020
9120
8E20
4040
4040
2080
ENDCHAR
STARTCHAR char10576
ENCODING 10576
SWIDTH 1200 0
DWIDTH 12 0
BBX 11 11 1 -1
BITMAP
2080
4040
4640
8220
8E20
9220
9220
8D20
4040
4040
2080
ENDCHAR
STARTCHAR char10577
ENCODING 10577
SWIDTH 1200 0
DWIDTH 12 0
BBX 11 11 1 -1
BITMAP
2080
4040
4040
8C20
9220
9E20
9020
8E20
4040
4040
2080
ENDCHAR
STARTCHAR char10578
ENCODING 10578
SWIDTH 1200 0
DWIDTH 12 0
BBX 11 11 1 -1
BITMAP
2080
4040
4440
8A20
8820
9E20
8820
8820
5C40
4040
2080
ENDCHAR
STARTCHAR char10579
ENCODING 10579
SWIDTH 1200 0
DWIDTH 12 0
BBX 11 11 1 -1
BITMAP
2080
4040
4D40
9220
8C20
9020
8E20
9120
4E40
4040
2080
ENDCHAR
STARTCHAR char10580
ENCODING 10580
SWIDTH 1200 0
DWIDTH 12 0
BBX 11 11 1 -1
BITMAP
2080
4040
5840
8820
8E20
8920
8920
99A0
4040
4040
2080
ENDCHAR
STARTCHAR char10581
ENCODING 10581
SWIDTH 1200 0
DWIDTH 12 0
BBX 11 11 1 -1
BITMAP
2080
4040
4440
8020
8C20
8420
8420
8E20
4040
4040
2080
ENDCHAR
STARTCHAR char10582
ENCODING 10582
SWIDTH 1200 0
DWIDTH 12 0
BBX 11 11 1 -1
BITMAP
2080
4040
4440
8020
8C20
8420
8420
9420
4840
4040
2080
ENDCHAR
STARTCHAR char10583
ENCODING 10583
SWIDTH 1200 0
DWIDTH 12 0
BBX 11 11 1 -1
BITMAP
2080
4040
5840
8B20
8A20
8C20
8A20
9B20
4040
4040
2080
ENDCHAR
STARTCHAR char10584
ENCODING 10584
SWIDTH 1200 0
DWIDTH 12 0
BBX 11 11 1 -1
BITMAP
2080
4040
4C40
8420
8420
8420
8420
8E20
4040
4040
2080
ENDCHAR
STARTCHAR char10585
ENCODING 10585
SWIDTH 1200 0
DWIDTH 12 0
BBX 11 11 1 -1
BITMAP
2080
4040
4040
9A20
B520
9520
9520
BFA0
4040
4040
2080
ENDCHAR
STARTCHAR char10586
ENCODING 10586
SWIDTH 1200 0
DWIDTH 12 0
BBX 11 11 1 -1
BITMAP
2080
4040
4040
9620
8920
8920
8920
9FA0
4040
4040
2080
ENDCHAR
STARTCHAR char10587
ENCODING 10587
SWIDTH 1200 0
DWIDTH 12 0
BBX 11 11 1 -1
BITMAP
2080
4040
4040
8E20
9120
9120
9120
8E20
4040
4040
2080
ENDCHAR
STARTCHAR char10588
ENCODING 10588
SWIDTH 1200 0
DWIDTH 12 0
BBX 11 11 1 -1
BITMAP
2080
4040
4040
9620
8920
8920
8E20
8820
5C40
4040
2080
ENDCHAR
STARTCHAR char10589
ENCODING 10589
SWIDTH 1200 0
DWIDTH 12 0
BBX 11 11 1 -1
BITMAP
2080
4040
4040
8E20
9220
9220
8E20
8220
4740
4040
2080
ENDCHAR
STARTCHAR char10590
ENCODING 10590
SWIDTH 1200 0
DWIDTH 12 0
BBX 11 11 1 -1
BITMAP
2080
4040
4040
9A20
8D20
8820
8820
9C20
4040
4040
2080
ENDCHAR
STARTCHAR char10591
ENCODING 10591
SWIDTH 1200 0
DWIDTH 12 0
BBX 11 11 1 -1
BITMAP
2080
4040
4040
8E20
9020
8C20
8220
9C20
4040
4040
2080
ENDCHAR
STARTCHAR char10592
ENCODING 10592
SWIDTH 1200 0
DWIDTH 12 0
BBX 11 11 1 -1
BITMAP
2080
4040
4840
9E20
8820
8820
8820
8620
4040
4040
2080
ENDCHAR
STARTCHAR char10593
ENCODING 10593
SWIDTH 1200 0
DWIDTH 12 0
BBX 11 11 1 -1
BITMAP
2080
4040
4040
B620
9220
9220
9220
8D20
4040
4040
2080
ENDCHAR
STARTCHAR char10594
ENCODING 10594
SWIDTH 1200 0
DWIDTH 12 0
BBX 11 11 1 -1
BITMAP
2080
4040
4040
9B20
8A20
8A20
8420
8420
4040
4040
2080
ENDCHAR
STARTCHAR char10595
ENCODING 10595
SWIDTH 1200 0
DWIDTH 12 0
BBX 11 11 1 -1
BITMAP
2080
4040
4040
B5A0
9520
9520
8A20
8A20
4040
4040
2080
ENDCHAR
STARTCHAR char10596
ENCODING 10596
SWIDTH 1200 0
DWIDTH 12 0
BBX 11 11 1 -1
BITMAP
2080
4040
4040
9B20
8A20
8420
8A20
9B20
4040
4040
2080
ENDCHAR
STARTCHAR char10597
ENCODING 10597
SWIDTH 1200 0
DWIDTH 12 0
BBX 11 11 1 -1
BITMAP
2080
4040
4040
9B20
8A20
8A20
8420
9420
4840
4040
2080
ENDCHAR
STARTCHAR char10598
ENCODING 10598
SWIDTH 1200 0
DWIDTH 12 0
BBX 11 11 1 -1
BITMAP
2080
4040
4040
8F20
9220
8420
8920
9E20
4040
4040
2080
ENDCHAR
STARTCHAR char10599
ENCODING 10599
SWIDTH 1200 0
DWIDTH 12 0
BBX 11 11 1 -1
BITMAP
2080
4040
4440
8C20
8420
8420
8420
8E20
4040
4040
2080
ENDCHAR
STARTCHAR char10600
ENCODING 10600
SWIDTH 1200 0
DWIDTH 12 0
BBX 11 11 1 -1
BITMAP
2080
4040
4640
8920
8120
8220
8520
8F20
4040
4040
2080
ENDCHAR
STARTCHAR char10601
ENCODING 10601
SWIDTH 1200 0
DWIDTH 12 0
BBX 11 11 1 -1
BITMAP
2080
4040
4640
8920
8220
8120
8920
8620
4040
4040
2080
ENDCHAR
STARTCHAR char10602
ENCODING 10602
SWIDTH 1200 0
DWIDTH 12 0
BBX 11 11 1 -1
BITMAP
2080
4040
4240
8620
8620
8A20
8F20
8220
4040
4040
2080
ENDCHAR
STARTCHAR char10603
ENCODING 10603
SWIDTH 1200 0
DWIDTH 12 0
BBX 11 11 1 -1
BITMAP
2080
4040
4F40
8820
8E20
8920
8120
8E20
4040
4040
2080
ENDCHAR
STARTCHAR char10604
ENCODING 10604
SWIDTH 1200 0
DWIDTH 12 0
BBX 11 11 1 -1
BITMAP
2080
4040
4640
8920
8E20
8920
8920
8620
4040
4040
2080
ENDCHAR
STARTCHAR char10605
ENCODING 10605
SWIDTH 1200 0
DWIDTH 12 0
BBX 11 11 1 -1
BITMAP
2080
4040
4F40
8920
9220
8220
8420
8420
4040
4040
2080
ENDCHAR
STARTCHAR char10606
ENCODING 10606
SWIDTH 1200 0
DWIDTH 12 0
BBX 11 11 1 -1
BITMAP
2080
4040
4640
8920
8620
8920
8920
8620
4040
4040
2080
ENDCHAR
STARTCHAR char10607
ENCODING 10607
SWIDTH 1200 0
DWIDTH 12 0
BBX 11 11 1 -1
BITMAP
2080
4040
4640
8920
8920
8720
8920
8620
4040
4040
2080
ENDCHAR
STARTCHAR char10608
ENCODING 10608
SWIDTH 1200 0
DWIDTH 12 0
BBX 11 11 1 -1
BITMAP
2080
4040
5340
B4A0
94A0
94A0
94A0
BB20
4040
4040
2080
ENDCHAR
STARTCHAR char10609
ENCODING 10609
SWIDTH 1200 0
DWIDTH 12 0
BBX 11 11 1 -1
BITMAP
2080
4040
5140
B320
9120
9120
9120
BBA0
4040
4040
2080
ENDCHAR
STARTCHAR char10610
ENCODING 10610
SWIDTH 1200 0
DWIDTH 12 0
BBX 11 11 1 -1
BITMAP
2080
4040
5340
B4A0
90A0
9120
9220
BFA0
4040
4040
2080
ENDCHAR
STARTCHAR char10611
ENCODING 10611
SWIDTH 1200 0
DWIDTH 12 0
BBX 11 11 1 -1
BITMAP
2080
4040
5340
B4A0
9120
90A0
94A0
BB20
4040
4040
2080
ENDCHAR
STARTCHAR char10612
ENCODING 10612
SWIDTH 1200 0
DWIDTH 12 0
BBX 11 11 1 -1
BITMAP
2080
4040
5140
B320
9520
9520
97A0
B920
4040
4040
2080
ENDCHAR
STARTCHAR char10613
ENCODING 10613
SWIDTH 1200 0
DWIDTH 12 0
BBX 11 11 1 -1
BITMAP
2080
4040
5740
B420
9720
90A0
94A0
BB20
4040
4040
2080
ENDCHAR
STARTCHAR char10614
ENCODING 10614
SWIDTH 1200 0
DWIDTH 12 0
BBX 3 5 2 5
BITMAP
40
C0
40
40
E0
ENDCHAR
STARTCHAR char10615
ENCODING 10615
SWIDTH 1200 0
DWIDTH 12 0
BBX 4 5 1 5
BITMAP
60
90
20
40
F0
ENDCHAR
STARTCHAR char10616
ENCODING 10616
SWIDTH 1200 0
DWIDTH 12 0
BBX 4 5 1 5
BITMAP
60
90
20
90
60
ENDCHAR
STARTCHAR char10617
ENCODING 10617
SWIDTH 1200 0
DWIDTH 12 0
BBX 4 5 1 5
BITMAP
20
60
A0
F0
20
ENDCHAR
STARTCHAR char10618
ENCODING 10618
SWIDTH 1200 0
DWIDTH 12 0
BBX 6 5 1 5
BITMAP
B0
48
48
48
FC
ENDCHAR
STARTCHAR char10619
ENCODING 10619
SWIDTH 1200 0
DWIDTH 12 0
BBX 3 5 2 -1
BITMAP
40
C0
40
40
E0
ENDCHAR
STARTCHAR char10620
ENCODING 10620
SWIDTH 1200 0
DWIDTH 12 0
BBX 4 5 1 -1
BITMAP
60
90
20
40
F0
ENDCHAR
STARTCHAR char10621
ENCODING 10621
SWIDTH 1200 0
DWIDTH 12 0
BBX 4 5 1 -1
BITMAP
60
90
20
90
60
ENDCHAR
STARTCHAR char10622
ENCODING 10622
SWIDTH 1200 0
DWIDTH 12 0
BBX 4 5 1 -1
BITMAP
20
60
A0
F0
20
ENDCHAR
STARTCHAR char10785
ENCODING 10785
SWIDTH 1200 0
DWIDTH 12 0
BBX 7 10 3 -1
BITMAP
20
20
FC
20
3C
6A
92
6A
04
18
ENDCHAR
STARTCHAR char10786
ENCODING 10786
SWIDTH 1200 0
DWIDTH 12 0
BBX 9 11 2 -1
BITMAP
2000
2000
3C00
E000
2E00
3500
5480
8880
9480
6100
0600
ENDCHAR
STARTCHAR char10787
ENCODING 10787
SWIDTH 1200 0
DWIDTH 12 0
BBX 7 5 3 0
BITMAP
84
42
42
40
30
ENDCHAR
STARTCHAR char10788
ENCODING 10788
SWIDTH 1200 0
DWIDTH 12 0
BBX 9 9 2 -1
BITMAP
8000
4000
4200
4100
4180
4000
4400
3800
1000
ENDCHAR
STARTCHAR char10789
ENCODING 10789
SWIDTH 1200 0
DWIDTH 12 0
BBX 5 7 4 0
BITMAP
60
00
30
C8
08
10
20
ENDCHAR
STARTCHAR char10790
ENCODING 10790
SWIDTH 1200 0
DWIDTH 12 0
BBX 6 10 3 -1
BITMAP
40
30
00
38
C4
04
08
08
10
20
ENDCHAR
STARTCHAR char10791
ENCODING 10791
SWIDTH 1200 0
DWIDTH 12 0
BBX 7 8 3 0
BITMAP
20
10
00
78
10
20
60
9E
ENDCHAR
STARTCHAR char10792
ENCODING 10792
SWIDTH 1200 0
DWIDTH 12 0
BBX 8 9 2 0
BITMAP
20
18
00
7C
08
10
20
71
8E
ENDCHAR
STARTCHAR char10793
ENCODING 10793
SWIDTH 1200 0
DWIDTH 12 0
BBX 8 8 2 0
BITMAP
20
22
39
E0
78
A4
A2
6C
ENDCHAR
STARTCHAR char10794
ENCODING 10794
SWIDTH 1200 0
DWIDTH 12 0
BBX 9 10 2 -1
BITMAP
2000
1100
1C80
F080
1000
3F00
5080
9080
9100
6600
ENDCHAR
STARTCHAR char10795
ENCODING 10795
SWIDTH 1200 0
DWIDTH 12 0
BBX 10 10 2 -1
BITMAP
1000
1000
1080
9C40
7240
1200
2200
2400
5400
8800
ENDCHAR
STARTCHAR char10796
ENCODING 10796
SWIDTH 1200 0
DWIDTH 12 0
BBX 11 11 1 -1
BITMAP
0040
10A0
1040
1100
9C80
7280
1200
2200
2400
5400
8800
ENDCHAR
STARTCHAR char10797
ENCODING 10797
SWIDTH 1200 0
DWIDTH 12 0
BBX 6 10 3 -1
BITMAP
C0
58
E0
1C
F0
08
7C
84
80
78
ENDCHAR
STARTCHAR char10798
ENCODING 10798
SWIDTH 1200 0
DWIDTH 12 0
BBX 8 11 3 -1
BITMAP
02
C5
5A
E0
1C
F0
08
7C
84
80
78
ENDCHAR
STARTCHAR char10799
ENCODING 10799
SWIDTH 1200 0
DWIDTH 12 0
BBX 4 9 3 0
BITMAP
10
10
20
40
80
40
20
10
10
ENDCHAR
STARTCHAR char10800
ENCODING 10800
SWIDTH 1200 0
DWIDTH 12 0
BBX 8 10 3 0
BITMAP
02
15
12
20
40
80
40
20
10
10
ENDCHAR
STARTCHAR char10801
ENCODING 10801
SWIDTH 1200 0
DWIDTH 12 0
BBX 8 10 2 -1
BITMAP
88
44
44
87
9C
84
A4
C4
C4
88
ENDCHAR
STARTCHAR char10802
ENCODING 10802
SWIDTH 1200 0
DWIDTH 12 0
BBX 10 10 2 -1
BITMAP
8880
4540
4480
8700
9C00
8400
A400
C400
C800
8800
ENDCHAR
STARTCHAR char10803
ENCODING 10803
SWIDTH 1200 0
DWIDTH 12 0
BBX 8 8 2 0
BITMAP
20
1E
04
00
00
80
41
3E
ENDCHAR
STARTCHAR char10804
ENCODING 10804
SWIDTH 1200 0
DWIDTH 12 0
BBX 10 10 2 0
BITMAP
0080
0140
2080
1E00
0400
0000
0000
8000
4100
3E00
ENDCHAR
STARTCHAR char10805
ENCODING 10805
SWIDTH 1200 0
DWIDTH 12 0
BBX 7 10 2 -1
BITMAP
60
20
1C
F0
08
04
3E
42
40
3C
ENDCHAR
STARTCHAR char10806
ENCODING 10806
SWIDTH 1200 0
DWIDTH 12 0
BBX 9 11 2 -1
BITMAP
0100
6280
2100
1C00
F000
0800
0400
3E00
4200
4000
3C00
ENDCHAR
STARTCHAR char10807
ENCODING 10807
SWIDTH 1200 0
DWIDTH 12 0
BBX 8 9 2 0
BITMAP
80
40
40
40
40
41
42
4C
30
ENDCHAR
STARTCHAR char10808
ENCODING 10808
SWIDTH 1200 0
DWIDTH 12 0
BBX 8 10 2 0
BITMAP
02
85
42
40
40
40
41
42
4C
30
ENDCHAR
STARTCHAR char10809
ENCODING 10809
SWIDTH 1200 0
DWIDTH 12 0
BBX 8 10 2 -1
BITMAP
08
08
9F
68
18
28
18
08
08
10
ENDCHAR
STARTCHAR char10810
ENCODING 10810
SWIDTH 1200 0
DWIDTH 12 0
BBX 10 11 2 -1
BITMAP
0080
0940
0880
9E00
6800
1800
2800
1800
0800
0800
1000
ENDCHAR
STARTCHAR char10811
ENCODING 10811
SWIDTH 1200 0
DWIDTH 12 0
BBX 10 9 1 0
BITMAP
0600
3200
1200
9FC0
7200
1600
1200
1000
0F80
ENDCHAR
STARTCHAR char10812
ENCODING 10812
SWIDTH 1200 0
DWIDTH 12 0
BBX 11 10 1 0
BITMAP
0040
06A0
3240
1200
9FC0
7200
1600
1200
1000
0F80
ENDCHAR
STARTCHAR char10813
ENCODING 10813
SWIDTH 1200 0
DWIDTH 12 0
BBX 9 10 1 -1
BITMAP
0400
1A00
0400
0800
1F80
E400
0800
0800
0400
0300
ENDCHAR
STARTCHAR char10814
ENCODING 10814
SWIDTH 1200 0
DWIDTH 12 0
BBX 11 11 1 -1
BITMAP
0040
04A0
1A40
0400
0800
1F80
E400
0800
0800
0400
0300
ENDCHAR
STARTCHAR char10815
ENCODING 10815
SWIDTH 1200 0
DWIDTH 12 0
BBX 8 9 2 0
BITMAP
10
10
1E
F0
17
20
20
48
87
ENDCHAR
STARTCHAR char10816
ENCODING 10816
SWIDTH 1200 0
DWIDTH 12 0
BBX 10 10 2 0
BITMAP
0080
1140
1080
1E00
F000
1700
2000
2000
4800
8700
ENDCHAR
STARTCHAR char10817
ENCODING 10817
SWIDTH 1200 0
DWIDTH 12 0
BBX 8 10 2 -1
BITMAP
20
10
9C
60
20
5E
61
41
06
08
ENDCHAR
STARTCHAR char10818
ENCODING 10818
SWIDTH 1200 0
DWIDTH 12 0
BBX 9 11 2 -1
BITMAP
0100
2280
1100
9C00
6000
2000
5E00
6100
4100
0600
0800
ENDCHAR
STARTCHAR char10819
ENCODING 10819
SWIDTH 1200 0
DWIDTH 12 0
BBX 6 6 3 -1
BITMAP
38
C4
04
04
08
30
ENDCHAR
STARTCHAR char10820
ENCODING 10820
SWIDTH 1200 0
DWIDTH 12 0
BBX 7 8 2 -1
BITMAP
38
C4
02
02
02
04
08
30
ENDCHAR
STARTCHAR char10821
ENCODING 10821
SWIDTH 1200 0
DWIDTH 12 0
BBX 9 10 2 -1
BITMAP
0100
0280
3900
C400
0200
0200
0200
0400
0800
3000
ENDCHAR
STARTCHAR char10822
ENCODING 10822
SWIDTH 1200 0
DWIDTH 12 0
BBX 8 7 2 0
BITMAP
87
7C
08
10
10
08
07
ENDCHAR
STARTCHAR char10823
ENCODING 10823
SWIDTH 1200 0
DWIDTH 12 0
BBX 10 10 2 0
BITMAP
0080
0140
0080
8600
7C00
0800
1000
1000
0800
0700
ENDCHAR
STARTCHAR char10824
ENCODING 10824
SWIDTH 1200 0
DWIDTH 12 0
BBX 7 9 3 0
BITMAP
60
20
26
18
60
80
80
80
7C
ENDCHAR
STARTCHAR char10825
ENCODING 10825
SWIDTH 1200 0
DWIDTH 12 0
BBX 9 10 3 0
BITMAP
0100
6280
2100
2400
1800
6000
8000
8000
8000
7C00
ENDCHAR
STARTCHAR char10826
ENCODING 10826
SWIDTH 1200 0
DWIDTH 12 0
BBX 8 11 2 -1
BITMAP
20
2C
30
E4
23
48
88
08
38
4E
30
ENDCHAR
STARTCHAR char10827
ENCODING 10827
SWIDTH 1200 0
DWIDTH 12 0
BBX 9 9 2 -1
BITMAP
4000
4F80
4300
4400
8000
8000
A800
C780
4000
ENDCHAR
STARTCHAR char10828
ENCODING 10828
SWIDTH 1200 0
DWIDTH 12 0
BBX 11 10 1 -1
BITMAP
0800
0400
4F00
5480
2440
6840
9040
B1C0
4A60
0180
ENDCHAR
STARTCHAR char10829
ENCODING 10829
SWIDTH 1200 0
DWIDTH 12 0
BBX 11 10 1 -1
BITMAP
1000
1000
1800
F700
3880
3040
5340
D4C0
33A0
1000
ENDCHAR
STARTCHAR char10830
ENCODING 10830
SWIDTH 1200 0
DWIDTH 12 0
BBX 9 8 2 -1
BITMAP
3E00
4500
8880
9080
A080
C100
0200
0400
ENDCHAR
STARTCHAR char10831
ENCODING 10831
SWIDTH 1200 0
DWIDTH 12 0
BBX 10 10 2 -1
BITMAP
4600
4200
4200
9380
8E00
8200
A200
CF80
D240
8C00
ENDCHAR
STARTCHAR char10832
ENCODING 10832
SWIDTH 1200 0
DWIDTH 12 0
BBX 11 11 1 -1
BITMAP
0040
46A0
4240
4200
9380
8E00
8200
A200
CF80
D240
8C00
ENDCHAR
STARTCHAR char10833
ENCODING 10833
SWIDTH 1200 0
DWIDTH 12 0
BBX 11 11 1 -1
BITMAP
0060
46A0
42C0
4200
9380
8E00
8200
A200
CF80
D240
8C00
ENDCHAR
STARTCHAR char10834
ENCODING 10834
SWIDTH 1200 0
DWIDTH 12 0
BBX 8 8 3 0
BITMAP
22
E2
42
45
84
88
90
60
ENDCHAR
STARTCHAR char10835
ENCODING 10835
SWIDTH 1200 0
DWIDTH 12 0
BBX 10 10 2 0
BITMAP
0080
0140
2080
E200
4200
4500
8400
8800
9000
6000
ENDCHAR
STARTCHAR char10836
ENCODING 10836
SWIDTH 1200 0
DWIDTH 12 0
BBX 10 10 2 0
BITMAP
00C0
0140
2180
E200
4200
4500
8400
8800
9000
6000
ENDCHAR
STARTCHAR char10837
ENCODING 10837
SWIDTH 1200 0
DWIDTH 12 0
BBX 11 9 1 -1
BITMAP
0400
0200
0400
0000
07C0
8C20
7260
4200
0400
ENDCHAR
STARTCHAR char10838
ENCODING 10838
SWIDTH 1200 0
DWIDTH 12 0
BBX 11 10 1 -1
BITMAP
0040
04A0
0240
0400
0000
07C0
8C20
7260
4200
0400
ENDCHAR
STARTCHAR char10839
ENCODING 10839
SWIDTH 1200 0
DWIDTH 12 0
BBX 11 10 1 -1
BITMAP
0060
04A0
02C0
0400
0000
07C0
8C20
7260
4200
0400
ENDCHAR
STARTCHAR char10840
ENCODING 10840
SWIDTH 1200 0
DWIDTH 12 0
BBX 10 5 1 0
BITMAP
1000
2800
C400
0300
00C0
ENDCHAR
STARTCHAR char10841
ENCODING 10841
SWIDTH 1200 0
DWIDTH 12 0
BBX 10 8 1 0
BITMAP
0100
0280
0100
1000
2800
C400
0300
00C0
ENDCHAR
STARTCHAR char10842
ENCODING 10842
SWIDTH 1200 0
DWIDTH 12 0
BBX 10 8 1 0
BITMAP
0180
0280
0300
1000
2800
C400
0300
00C0
ENDCHAR
STARTCHAR char10843
ENCODING 10843
SWIDTH 1200 0
DWIDTH 12 0
BBX 10 9 2 0
BITMAP
8300
4E00
4200
8F80
8200
A200
CF00
D280
4C40
ENDCHAR
STARTCHAR char10844
ENCODING 10844
SWIDTH 1200 0
DWIDTH 12 0
BBX 11 10 1 0
BITMAP
0040
80A0
4F40
4200
8F80
8200
A200
CF00
D280
4C40
ENDCHAR
STARTCHAR char10845
ENCODING 10845
SWIDTH 1200 0
DWIDTH 12 0
BBX 11 10 1 0
BITMAP
0060
80A0
4FC0
4200
8F80
8200
A200
CF00
D280
4C40
ENDCHAR
STARTCHAR char10846
ENCODING 10846
SWIDTH 1200 0
DWIDTH 12 0
BBX 9 11 2 -1
BITMAP
1000
0800
8F00
7800
0F00
3800
0800
3E00
4900
8880
7000
ENDCHAR
STARTCHAR char10847
ENCODING 10847
SWIDTH 1200 0
DWIDTH 12 0
BBX 11 9 1 -1
BITMAP
2400
1C00
0400
0800
3C80
5380
A160
A220
4400
ENDCHAR
STARTCHAR char10848
ENCODING 10848
SWIDTH 1200 0
DWIDTH 12 0
BBX 11 10 1 -1
BITMAP
1800
0800
9C00
6840
08A0
3880
4880
3040
1040
0F80
ENDCHAR
STARTCHAR char10849
ENCODING 10849
SWIDTH 1200 0
DWIDTH 12 0
BBX 10 9 1 -1
BITMAP
0800
0E00
9900
A880
4840
B040
9040
6880
0100
ENDCHAR
STARTCHAR char10850
ENCODING 10850
SWIDTH 1200 0
DWIDTH 12 0
BBX 8 10 2 -1
BITMAP
10
08
48
3C
90
7E
10
10
11
0E
ENDCHAR
STARTCHAR char10851
ENCODING 10851
SWIDTH 1200 0
DWIDTH 12 0
BBX 8 8 2 -1
BITMAP
10
48
3E
E9
22
10
10
10
ENDCHAR
STARTCHAR char10852
ENCODING 10852
SWIDTH 1200 0
DWIDTH 12 0
BBX 10 9 1 -1
BITMAP
2800
4800
4780
2C40
F280
1200
1000
0800
0800
ENDCHAR
STARTCHAR char10853
ENCODING 10853
SWIDTH 1200 0
DWIDTH 12 0
BBX 9 8 2 -1
BITMAP
0800
8800
5700
6480
6500
4E00
4800
0800
ENDCHAR
STARTCHAR char10854
ENCODING 10854
SWIDTH 1200 0
DWIDTH 12 0
BBX 10 10 1 -1
BITMAP
0400
8A00
4A00
4F80
5A40
6A40
6A80
4700
0400
0800
ENDCHAR
STARTCHAR char10855
ENCODING 10855
SWIDTH 1200 0
DWIDTH 12 0
BBX 6 7 3 -1
BITMAP
30
10
1C
10
70
98
64
ENDCHAR
STARTCHAR char10856
ENCODING 10856
SWIDTH 1200 0
DWIDTH 12 0
BBX 8 10 2 -1
BITMAP
18
08
09
0E
08
08
78
8E
89
70
ENDCHAR
STARTCHAR char10857
ENCODING 10857
SWIDTH 1200 0
DWIDTH 12 0
BBX 7 10 3 -1
BITMAP
60
10
40
80
B8
C4
82
02
0C
30
ENDCHAR
STARTCHAR char10858
ENCODING 10858
SWIDTH 1200 0
DWIDTH 12 0
BBX 5 10 4 -1
BITMAP
90
68
48
48
48
88
88
10
10
20
ENDCHAR
STARTCHAR char10859
ENCODING 10859
SWIDTH 1200 0
DWIDTH 12 0
BBX 8 10 2 -1
BITMAP
4C
38
10
1C
E2
01
11
2A
2C
18
ENDCHAR
STARTCHAR char10860
ENCODING 10860
SWIDTH 1200 0
DWIDTH 12 0
BBX 11 10 1 -1
BITMAP
1000
0800
0B00
7C80
1080
3080
5100
9100
3120
10C0
ENDCHAR
STARTCHAR char10861
ENCODING 10861
SWIDTH 1200 0
DWIDTH 12 0
BBX 9 10 1 -1
BITMAP
0600
3A00
0400
0800
1E00
2100
C080
0080
0100
0E00
ENDCHAR
STARTCHAR char10862
ENCODING 10862
SWIDTH 1200 0
DWIDTH 12 0
BBX 9 8 2 -1
BITMAP
3000
1000
1E00
F100
3080
5080
B100
1200
ENDCHAR
STARTCHAR char10863
ENCODING 10863
SWIDTH 1200 0
DWIDTH 12 0
BBX 10 10 2 -1
BITMAP
3000
1000
1000
1700
7880
1040
3040
5040
B080
1100
ENDCHAR
STARTCHAR char10864
ENCODING 10864
SWIDTH 1200 0
DWIDTH 12 0
BBX 9 10 2 -1
BITMAP
4C00
3400
0800
3E00
5100
9080
A080
A680
C900
0600
ENDCHAR
STARTCHAR char10865
ENCODING 10865
SWIDTH 1200 0
DWIDTH 12 0
BBX 11 11 1 -1
BITMAP
0600
3C00
0800
1E00
6100
0900
1600
1400
0800
33C0
CC60
ENDCHAR
STARTCHAR char10866
ENCODING 10866
SWIDTH 1200 0
DWIDTH 12 0
BBX 9 11 1 -1
BITMAP
0800
0800
8F00
7800
1200
1C00
2600
0A00
1200
1000
0F80
ENDCHAR
STARTCHAR char10867
ENCODING 10867
SWIDTH 1200 0
DWIDTH 12 0
BBX 9 10 2 -1
BITMAP
1800
0800
0800
1000
1000
3800
2400
4400
4480
8300
ENDCHAR
STARTCHAR char11041
ENCODING 11041
SWIDTH 1200 0
DWIDTH 12 0
BBX 6 6 3 -1
BITMAP
FC
08
30
20
20
40
ENDCHAR
STARTCHAR char11042
ENCODING 11042
SWIDTH 1200 0
DWIDTH 12 0
BBX 9 8 2 -1
BITMAP
1F80
E100
0A00
0C00
0800
0800
1000
1000
ENDCHAR
STARTCHAR char11043
ENCODING 11043
SWIDTH 1200 0
DWIDTH 12 0
BBX 5 7 3 -1
BITMAP
10
18
20
60
A0
20
20
ENDCHAR
STARTCHAR char11044
ENCODING 11044
SWIDTH 1200 0
DWIDTH 12 0
BBX 7 10 2 -1
BITMAP
08
06
04
08
18
28
48
88
08
08
ENDCHAR
STARTCHAR char11045
ENCODING 11045
SWIDTH 1200 0
DWIDTH 12 0
BBX 5 7 4 -1
BITMAP
20
20
F8
88
08
10
20
ENDCHAR
STARTCHAR char11046
ENCODING 11046
SWIDTH 1200 0
DWIDTH 12 0
BBX 7 10 3 -1
BITMAP
10
10
FE
82
82
02
04
04
08
10
ENDCHAR
STARTCHAR char11047
ENCODING 11047
SWIDTH 1200 0
DWIDTH 12 0
BBX 7 5 3 0
BITMAP
0C
70
10
10
FE
ENDCHAR
STARTCHAR char11048
ENCODING 11048
SWIDTH 1200 0
DWIDTH 12 0
BBX 9 7 2 0
BITMAP
4700
3800
0800
0800
0800
8800
7F80
ENDCHAR
STARTCHAR char11049
ENCODING 11049
SWIDTH 1200 0
DWIDTH 12 0
BBX 5 6 3 -1
BITMAP
10
F8
30
50
B0
10
ENDCHAR
STARTCHAR char11050
ENCODING 11050
SWIDTH 1200 0
DWIDTH 12 0
BBX 8 9 2 -1
BITMAP
08
08
8F
78
18
28
48
98
08
ENDCHAR
STARTCHAR char11051
ENCODING 11051
SWIDTH 1200 0
DWIDTH 12 0
BBX 7 10 2 -1
BITMAP
08
08
08
FE
12
12
22
42
9C
08
ENDCHAR
STARTCHAR char11052
ENCODING 11052
SWIDTH 1200 0
DWIDTH 12 0
BBX 10 10 2 -1
BITMAP
0880
0940
0880
FE00
1200
1200
2200
4200
9C00
0800
ENDCHAR
STARTCHAR char11053
ENCODING 11053
SWIDTH 1200 0
DWIDTH 12 0
BBX 9 10 2 -1
BITMAP
3000
1000
1000
9F00
7800
8F80
7800
0400
0400
0400
ENDCHAR
STARTCHAR char11054
ENCODING 11054
SWIDTH 1200 0
DWIDTH 12 0
BBX 10 11 2 -1
BITMAP
0080
3140
1080
1000
9F00
7800
8F80
7800
0400
0400
0400
ENDCHAR
STARTCHAR char11055
ENCODING 11055
SWIDTH 1200 0
DWIDTH 12 0
BBX 8 10 2 -1
BITMAP
08
08
1F
21
42
04
08
10
20
C0
ENDCHAR
STARTCHAR char11056
ENCODING 11056
SWIDTH 1200 0
DWIDTH 12 0
BBX 11 11 1 -1
BITMAP
0040
08A0
0840
1F00
2100
4200
0400
0800
1000
2000
C000
ENDCHAR
STARTCHAR char11057
ENCODING 11057
SWIDTH 1200 0
DWIDTH 12 0
BBX 10 10 1 -1
BITMAP
1800
0800
1000
3FC0
4400
8400
0400
0800
0800
1000
ENDCHAR
STARTCHAR char11058
ENCODING 11058
SWIDTH 1200 0
DWIDTH 12 0
BBX 11 11 1 -1
BITMAP
0040
18A0
0840
1000
3F80
4400
8400
0400
0800
0800
1000
ENDCHAR
STARTCHAR char11059
ENCODING 11059
SWIDTH 1200 0
DWIDTH 12 0
BBX 7 6 3 0
BITMAP
FE
04
04
04
04
FE
ENDCHAR
STARTCHAR char11060
ENCODING 11060
SWIDTH 1200 0
DWIDTH 12 0
BBX 9 9 3 0
BITMAP
0100
0280
0100
FC00
0400
0400
0400
0400
FE00
ENDCHAR
STARTCHAR char11061
ENCODING 11061
SWIDTH 1200 0
DWIDTH 12 0
BBX 10 10 1 -1
BITMAP
0400
2200
1200
13C0
FE00
1200
1200
0400
0400
0800
ENDCHAR
STARTCHAR char11062
ENCODING 11062
SWIDTH 1200 0
DWIDTH 12 0
BBX 11 11 1 -1
BITMAP
0040
04A0
2240
1200
13C0
FE00
1200
1200
0400
0400
0800
ENDCHAR
STARTCHAR char11063
ENCODING 11063
SWIDTH 1200 0
DWIDTH 12 0
BBX 10 10 1 -1
BITMAP
2000
1800
0040
4080
3100
0200
0400
8800
7000
2000
ENDCHAR
STARTCHAR char11064
ENCODING 11064
SWIDTH 1200 0
DWIDTH 12 0
BBX 11 11 1 -1
BITMAP
0040
20A0
1840
0000
4080
3100
0200
0400
8800
7000
2000
ENDCHAR
STARTCHAR char11065
ENCODING 11065
SWIDTH 1200 0
DWIDTH 12 0
BBX 9 8 2 0
BITMAP
4200
3E00
0400
0800
0C00
1200
2180
C080
ENDCHAR
STARTCHAR char11066
ENCODING 11066
SWIDTH 1200 0
DWIDTH 12 0
BBX 10 10 2 0
BITMAP
0080
0140
4080
3E00
0400
0800
0C00
1200
2180
C080
ENDCHAR
STARTCHAR char11067
ENCODING 11067
SWIDTH 1200 0
DWIDTH 12 0
BBX 10 8 1 0
BITMAP
3000
1000
13C0
FD00
1200
1000
1000
0F80
ENDCHAR
STARTCHAR char11068
ENCODING 11068
SWIDTH 1200 0
DWIDTH 12 0
BBX 11 10 1 0
BITMAP
0040
00A0
3040
1000
13C0
FD00
1200
1000
1000
0F80
ENDCHAR
STARTCHAR char11069
ENCODING 11069
SWIDTH 1200 0
DWIDTH 12 0
BBX 7 9 3 -1
BITMAP
06
82
42
64
04
08
10
20
40
ENDCHAR
STARTCHAR char11070
ENCODING 11070
SWIDTH 1200 0
DWIDTH 12 0
BBX 10 11 2 -1
BITMAP
0080
0140
0480
8200
4200
6400
0400
0800
1000
2000
4000
ENDCHAR
STARTCHAR char11071
ENCODING 11071
SWIDTH 1200 0
DWIDTH 12 0
BBX 8 10 1 -1
BITMAP
08
08
0F
11
2A
44
0A
11
20
C0
ENDCHAR
STARTCHAR char11072
ENCODING 11072
SWIDTH 1200 0
DWIDTH 12 0
BBX 11 11 1 -1
BITMAP
0040
08A0
0840
0F00
1100
2A00
4400
0A00
1100
2000
C000
ENDCHAR
STARTCHAR char11073
ENCODING 11073
SWIDTH 1200 0
DWIDTH 12 0
BBX 9 10 2 -1
BITMAP
0200
0700
3800
0800
FF80
0800
0800
1000
1000
2000
ENDCHAR
STARTCHAR char11074
ENCODING 11074
SWIDTH 1200 0
DWIDTH 12 0
BBX 11 11 1 -1
BITMAP
0040
02A0
0740
3800
0800
FF80
0800
0800
1000
1000
2000
ENDCHAR
STARTCHAR char11075
ENCODING 11075
SWIDTH 1200 0
DWIDTH 12 0
BBX 8 7 2 -1
BITMAP
23
91
42
02
04
08
10
ENDCHAR
STARTCHAR char11076
ENCODING 11076
SWIDTH 1200 0
DWIDTH 12 0
BBX 9 9 2 -1
BITMAP
0100
1080
8880
4900
4100
0200
0400
0800
3000
ENDCHAR
STARTCHAR char11077
ENCODING 11077
SWIDTH 1200 0
DWIDTH 12 0
BBX 11 11 1 -1
BITMAP
0040
00A0
0040
1100
8880
4900
4100
0200
0400
0800
3000
ENDCHAR
STARTCHAR char11078
ENCODING 11078
SWIDTH 1200 0
DWIDTH 12 0
BBX 8 9 2 -1
BITMAP
3E
00
FF
08
08
08
10
10
20
ENDCHAR
STARTCHAR char11079
ENCODING 11079
SWIDTH 1200 0
DWIDTH 12 0
BBX 11 11 1 -1
BITMAP
0040
00A0
3E40
0000
FF00
0800
0800
0800
1000
1000
2000
ENDCHAR
STARTCHAR char11080
ENCODING 11080
SWIDTH 1200 0
DWIDTH 12 0
BBX 5 10 4 -1
BITMAP
C0
40
40
40
70
48
40
40
40
40
ENDCHAR
STARTCHAR char11081
ENCODING 11081
SWIDTH 1200 0
DWIDTH 12 0
BBX 8 10 4 -1
BITMAP
CA
45
40
40
70
48
40
40
40
40
ENDCHAR
STARTCHAR char11082
ENCODING 11082
SWIDTH 1200 0
DWIDTH 12 0
BBX 9 10 2 -1
BITMAP
1800
0800
0800
FF80
0800
0800
0800
1000
1000
2000
ENDCHAR
STARTCHAR char11083
ENCODING 11083
SWIDTH 1200 0
DWIDTH 12 0
BBX 9 6 2 1
BITMAP
4000
3E00
0000
0000
8000
7F80
ENDCHAR
STARTCHAR char11084
ENCODING 11084
SWIDTH 1200 0
DWIDTH 12 0
BBX 7 9 3 0
BITMAP
04
7E
04
04
48
30
18
24
C0
ENDCHAR
STARTCHAR char11085
ENCODING 11085
SWIDTH 1200 0
DWIDTH 12 0
BBX 10 11 1 -1
BITMAP
0800
0600
0000
0700
3A00
0400
1980
E440
0400
0400
0400
ENDCHAR
STARTCHAR char11086
ENCODING 11086
SWIDTH 1200 0
DWIDTH 12 0
BBX 8 9 2 -1
BITMAP
03
01
01
02
04
08
10
20
C0
ENDCHAR
STARTCHAR char11087
ENCODING 11087
SWIDTH 1200 0
DWIDTH 12 0
BBX 10 5 1 1
BITMAP
1200
1900
2080
40C0
8040
ENDCHAR
STARTCHAR char11088
ENCODING 11088
SWIDTH 1200 0
DWIDTH 12 0
BBX 11 8 1 1
BITMAP
0040
00A0
0040
1200
1900
2080
40C0
8040
ENDCHAR
STARTCHAR char11089
ENCODING 11089
SWIDTH 1200 0
DWIDTH 12 0
BBX 11 8 1 1
BITMAP
0060
00A0
00C0
1200
1900
2080
40C0
8040
ENDCHAR
STARTCHAR char11090
ENCODING 11090
SWIDTH 1200 0
DWIDTH 12 0
BBX 7 10 3 -1
BITMAP
80
60
40
46
78
40
40
40
20
1E
ENDCHAR
STARTCHAR char11091
ENCODING 11091
SWIDTH 1200 0
DWIDTH 12 0
BBX 10 10 2 -1
BITMAP
8280
6140
4000
4600
7800
4000
4000
4000
2000
1E00
ENDCHAR
STARTCHAR char11092
ENCODING 11092
SWIDTH 1200 0
DWIDTH 12 0
BBX 9 11 2 -1
BITMAP
0180
8280
6300
4000
4600
7800
4000
4000
4000
2000
1E00
ENDCHAR
STARTCHAR char11093
ENCODING 11093
SWIDTH 1200 0
DWIDTH 12 0
BBX 8 9 2 -1
BITMAP
02
BF
42
02
04
04
08
10
20
ENDCHAR
STARTCHAR char11094
ENCODING 11094
SWIDTH 1200 0
DWIDTH 12 0
BBX 10 11 2 -1
BITMAP
0080
0140
0080
BE00
4200
0200
0400
0400
0800
1000
2000
ENDCHAR
STARTCHAR char11095
ENCODING 11095
SWIDTH 1200 0
DWIDTH 12 0
BBX 10 11 2 -1
BITMAP
00C0
0140
0180
BE00
4200
0200
0400
0400
0800
1000
2000
ENDCHAR
STARTCHAR char11096
ENCODING 11096
SWIDTH 1200 0
DWIDTH 12 0
BBX 10 5 1 1
BITMAP
1800
2400
C200
0100
00C0
ENDCHAR
STARTCHAR char11097
ENCODING 11097
SWIDTH 1200 0
DWIDTH 12 0
BBX 10 8 1 1
BITMAP
0080
0140
0080
1800
2400
C200
0100
00C0
ENDCHAR
STARTCHAR char11098
ENCODING 11098
SWIDTH 1200 0
DWIDTH 12 0
BBX 10 8 1 1
BITMAP
00C0
0140
0180
1800
2400
C200
0100
00C0
ENDCHAR
STARTCHAR char11099
ENCODING 11099
SWIDTH 1200 0
DWIDTH 12 0
BBX 10 10 1 -1
BITMAP
0800
0400
4400
3FC0
0400
2500
4480
9440
0C00
0400
ENDCHAR
STARTCHAR char11100
ENCODING 11100
SWIDTH 1200 0
DWIDTH 12 0
BBX 11 11 1 -1
BITMAP
0040
08A0
0440
4400
3FC0
0400
2500
4480
9440
0C00
0400
ENDCHAR
STARTCHAR char11101
ENCODING 11101
SWIDTH 1200 0
DWIDTH 12 0
BBX 11 11 1 -1
BITMAP
0060
08A0
04C0
4400
3FC0
0400
2500
4480
9440
0C00
0400
ENDCHAR
STARTCHAR char11102
ENCODING 11102
SWIDTH 1200 0
DWIDTH 12 0
BBX 10 8 1 0
BITMAP
0080
BFC0
4080
0100
1200
0C00
0400
0400
ENDCHAR
STARTCHAR char11103
ENCODING 11103
SWIDTH 1200 0
DWIDTH 12 0
BBX 4 9 4 0
BITMAP
40
30
00
40
30
00
80
70
10
ENDCHAR
STARTCHAR char11104
ENCODING 11104
SWIDTH 1200 0
DWIDTH 12 0
BBX 10 7 1 0
BITMAP
0400
0400
0900
1080
2780
F840
0040
ENDCHAR
STARTCHAR char11105
ENCODING 11105
SWIDTH 1200 0
DWIDTH 12 0
BBX 9 8 1 0
BITMAP
0180
0080
1100
0A00
0400
0A00
3100
C000
ENDCHAR
STARTCHAR char11106
ENCODING 11106
SWIDTH 1200 0
DWIDTH 12 0
BBX 8 8 2 0
BITMAP
0E
70
10
1F
F0
10
10
0F
ENDCHAR
STARTCHAR char11107
ENCODING 11107
SWIDTH 1200 0
DWIDTH 12 0
BBX 8 7 2 -1
BITMAP
10
1F
F1
0A
08
08
08
ENDCHAR
STARTCHAR char11108
ENCODING 11108
SWIDTH 1200 0
DWIDTH 12 0
BBX 9 9 2 -1
BITMAP
3000
1000
1380
1D00
F200
1000
0800
0800
0800
ENDCHAR
STARTCHAR char11109
ENCODING 11109
SWIDTH 1200 0
DWIDTH 12 0
BBX 9 4 2 0
BITMAP
3C00
0400
0400
FF80
ENDCHAR
STARTCHAR char11110
ENCODING 11110
SWIDTH 1200 0
DWIDTH 12 0
BBX 11 6 1 1
BITMAP
1F00
0200
0200
0200
0200
FFE0
ENDCHAR
STARTCHAR char11111
ENCODING 11111
SWIDTH 1200 0
DWIDTH 12 0
BBX 5 5 4 0
BITMAP
F8
10
F0
10
F0
ENDCHAR
STARTCHAR char11112
ENCODING 11112
SWIDTH 1200 0
DWIDTH 12 0
BBX 7 7 3 0
BITMAP
FE
04
04
FC
04
04
FC
ENDCHAR
STARTCHAR char11113
ENCODING 11113
SWIDTH 1200 0
DWIDTH 12 0
BBX 7 11 3 -1
BITMAP
40
38
00
84
7E
04
08
08
10
20
C0
ENDCHAR
STARTCHAR char11114
ENCODING 11114
SWIDTH 1200 0
DWIDTH 12 0
BBX 5 10 4 -1
BITMAP
98
48
48
48
48
48
48
10
10
20
ENDCHAR
STARTCHAR char11115
ENCODING 11115
SWIDTH 1200 0
DWIDTH 12 0
BBX 10 9 1 -1
BITMAP
0400
3200
1200
1200
1240
2280
2300
4200
8000
ENDCHAR
STARTCHAR char11116
ENCODING 11116
SWIDTH 1200 0
DWIDTH 12 0
BBX 7 9 3 -1
BITMAP
80
60
40
40
42
44
58
60
40
ENDCHAR
STARTCHAR char11117
ENCODING 11117
SWIDTH 1200 0
DWIDTH 12 0
BBX 7 7 2 0
BITMAP
C0
7E
42
42
44
7E
40
ENDCHAR
STARTCHAR char11118
ENCODING 11118
SWIDTH 1200 0
DWIDTH 12 0
BBX 5 6 4 -1
BITMAP
F8
88
88
10
10
20
ENDCHAR
STARTCHAR char11119
ENCODING 11119
SWIDTH 1200 0
DWIDTH 12 0
BBX 9 9 2 -1
BITMAP
0100
FF80
4100
4100
4200
0200
0400
0400
0800
ENDCHAR
STARTCHAR char11120
ENCODING 11120
SWIDTH 1200 0
DWIDTH 12 0
BBX 10 10 1 -1
BITMAP
0400
0600
4400
3F80
1400
9400
7FC0
0400
0400
0400
ENDCHAR
STARTCHAR char11121
ENCODING 11121
SWIDTH 1200 0
DWIDTH 12 0
BBX 9 6 2 0
BITMAP
5F00
2200
0C00
0800
0800
FF80
ENDCHAR
STARTCHAR char11122
ENCODING 11122
SWIDTH 1200 0
DWIDTH 12 0
BBX 8 9 2 -1
BITMAP
82
7F
02
82
7C
04
08
10
20
ENDCHAR
STARTCHAR char11123
ENCODING 11123
SWIDTH 1200 0
DWIDTH 12 0
BBX 9 8 2 0
BITMAP
6000
1000
0080
0100
0600
1800
E000
4000
ENDCHAR
STARTCHAR char11124
ENCODING 11124
SWIDTH 1200 0
DWIDTH 12 0
BBX 10 11 2 -1
BITMAP
0080
1940
0880
FE00
4200
4200
4200
0400
0400
0800
1000
ENDCHAR
STARTCHAR char11125
ENCODING 11125
SWIDTH 1200 0
DWIDTH 12 0
BBX 7 7 2 -1
BITMAP
18
08
7E
12
22
4C
84
ENDCHAR
STARTCHAR char11126
ENCODING 11126
SWIDTH 1200 0
DWIDTH 12 0
BBX 7 8 2 -1
BITMAP
60
20
3E
48
88
10
10
20
ENDCHAR
STARTCHAR char11297
ENCODING 11297
SWIDTH 1200 0
DWIDTH 12 0
BBX 9 9 2 0
BITMAP
0800
0800
1400
1400
2200
3E00
4100
4100
E380
ENDCHAR
STARTCHAR char11298
ENCODING 11298
SWIDTH 1200 0
DWIDTH 12 0
BBX 8 9 2 0
BITMAP
FE
22
21
20
3C
22
22
22
FC
ENDCHAR
STARTCHAR char11299
ENCODING 11299
SWIDTH 1200 0
DWIDTH 12 0
BBX 7 9 2 0
BITMAP
FC
22
22
22
3C
22
22
22
FC
ENDCHAR
STARTCHAR char11300
ENCODING 11300
SWIDTH 1200 0
DWIDTH 12 0
BBX 7 9 3 0
BITMAP
FE
22
22
20
20
20
20
20
F0
ENDCHAR
STARTCHAR char11301
ENCODING 11301
SWIDTH 1200 0
DWIDTH 12 0
BBX 8 9 2 0
BITMAP
7F
12
12
12
22
22
42
FF
81
ENDCHAR
STARTCHAR char11302
ENCODING 11302
SWIDTH 1200 0
DWIDTH 12 0
BBX 8 9 2 0
BITMAP
FE
22
21
24
3C
24
21
22
FE
ENDCHAR
STARTCHAR char11303
ENCODING 11303
SWIDTH 1200 0
DWIDTH 12 0
BBX 8 10 2 0
BITMAP
24
00
FE
22
25
3C
24
21
22
FE
ENDCHAR
STARTCHAR char11304
ENCODING 11304
SWIDTH 1200 0
DWIDTH 12 0
BBX 11 9 1 0
BITMAP
4E40
A4A0
1500
1500
0E00
1500
2480
2480
CE60
ENDCHAR
STARTCHAR char11305
ENCODING 11305
SWIDTH 1200 0
DWIDTH 12 0
BBX 7 9 3 0
BITMAP
58
64
42
04
18
04
82
44
38
ENDCHAR
STARTCHAR char11306
ENCODING 11306
SWIDTH 1200 0
DWIDTH 12 0
BBX 8 9 2 0
BITMAP
EF
46
46
4A
4A
52
52
62
F7
ENDCHAR
STARTCHAR char11307
ENCODING 11307
SWIDTH 1200 0
DWIDTH 12 0
BBX 8 10 2 0
BITMAP
24
18
C3
42
46
4A
52
62
42
E7
ENDCHAR
STARTCHAR char11308
ENCODING 11308
SWIDTH 1200 0
DWIDTH 12 0
BBX 9 9 2 0
BITMAP
E300
4500
4400
4800
7800
4400
4200
4200
E380
ENDCHAR
STARTCHAR char11309
ENCODING 11309
SWIDTH 1200 0
DWIDTH 12 0
BBX 9 9 1 0
BITMAP
3F80
1100
1100
1100
1100
1100
1100
A100
C380
ENDCHAR
STARTCHAR char11310
ENCODING 11310
SWIDTH 1200 0
DWIDTH 12 0
BBX 11 9 1 0
BITMAP
E0E0
3180
3180
2A80
2A80
2480
2480
2080
F1E0
ENDCHAR
STARTCHAR char11311
ENCODING 11311
SWIDTH 1200 0
DWIDTH 12 0
BBX 8 9 2 0
BITMAP
E7
42
42
42
7E
42
42
42
E7
ENDCHAR
STARTCHAR char11312
ENCODING 11312
SWIDTH 1200 0
DWIDTH 12 0
BBX 8 9 2 0
BITMAP
3C
42
81
81
81
81
81
42
3C
ENDCHAR
STARTCHAR char11313
ENCODING 11313
SWIDTH 1200 0
DWIDTH 12 0
BBX 8 9 2 0
BITMAP
FF
42
42
42
42
42
42
42
E7
ENDCHAR
STARTCHAR char11314
ENCODING 11314
SWIDTH 1200 0
DWIDTH 12 0
BBX 8 9 2 0
BITMAP
FC
22
21
21
22
3C
20
20
F8
ENDCHAR
STARTCHAR char11315
ENCODING 11315
SWIDTH 1200 0
DWIDTH 12 0
BBX 7 9 2 0
BITMAP
3A
46
82
80
80
80
82
44
38
ENDCHAR
STARTCHAR char11316
ENCODING 11316
SWIDTH 1200 0
DWIDTH 12 0
BBX 9 9 2 0
BITMAP
7F00
4900
8880
0800
0800
0800
0800
0800
1C00
ENDCHAR
STARTCHAR char11317
ENCODING 11317
SWIDTH 1200 0
DWIDTH 12 0
BBX 9 10 2 -1
BITMAP
E380
4100
4100
2200
2200
1400
1400
0800
8800
7000
ENDCHAR
STARTCHAR char11318
ENCODING 11318
SWIDTH 1200 0
DWIDTH 12 0
BBX 9 9 2 0
BITMAP
3E00
0800
7F00
8880
8880
8880
7F00
0800
3E00
ENDCHAR
STARTCHAR char11319
ENCODING 11319
SWIDTH 1200 0
DWIDTH 12 0
BBX 9 9 2 0
BITMAP
E380
4100
2200
1400
0800
1400
2200
4100
E380
ENDCHAR
STARTCHAR char11320
ENCODING 11320
SWIDTH 1200 0
DWIDTH 12 0
BBX 9 10 2 -1
BITMAP
F780
2200
2200
2200
2200
2200
2200
2200
FF80
0080
ENDCHAR
STARTCHAR char11321
ENCODING 11321
SWIDTH 1200 0
DWIDTH 12 0
BBX 8 9 2 0
BITMAP
E7
42
42
42
46
3A
02
02
07
ENDCHAR
STARTCHAR char11322
ENCODING 11322
SWIDTH 1200 0
DWIDTH 12 0
BBX 11 9 1 0
BITMAP
EEE0
2480
2480
2480
2480
2480
2480
2480
FFE0
ENDCHAR
STARTCHAR char11323
ENCODING 11323
SWIDTH 1200 0
DWIDTH 12 0
BBX 11 10 1 -1
BITMAP
EEE0
2480
2480
2480
2480
2480
2480
2480
FFE0
0020
ENDCHAR
STARTCHAR char11324
ENCODING 11324
SWIDTH 1200 0
DWIDTH 12 0
BBX 8 9 2 0
BITMAP
78
50
90
1C
12
11
11
12
7C
ENDCHAR
STARTCHAR char11325
ENCODING 11325
SWIDTH 1200 0
DWIDTH 12 0
BBX 9 9 2 0
BITMAP
F380
4100
4100
7100
4900
4500
4500
4900
F380
ENDCHAR
STARTCHAR char11326
ENCODING 11326
SWIDTH 1200 0
DWIDTH 12 0
BBX 8 9 2 0
BITMAP
F0
20
20
3C
22
21
21
22
FC
ENDCHAR
STARTCHAR char11327
ENCODING 11327
SWIDTH 1200 0
DWIDTH 12 0
BBX 8 9 2 0
BITMAP
BC
C2
81
01
1F
01
81
42
3C
ENDCHAR
STARTCHAR char11328
ENCODING 11328
SWIDTH 1200 0
DWIDTH 12 0
BBX 11 9 1 0
BITMAP
E180
4240
4420
4420
7C20
4420
4420
4240
E180
ENDCHAR
STARTCHAR char11329
ENCODING 11329
SWIDTH 1200 0
DWIDTH 12 0
BBX 8 9 2 0
BITMAP
1F
22
42
22
1E
12
22
42
C7
ENDCHAR
STARTCHAR char11330
ENCODING 11330
SWIDTH 1200 0
DWIDTH 12 0
BBX 0 0 0 0
BITMAP
ENDCHAR
STARTCHAR char11331
ENCODING 11331
SWIDTH 1200 0
DWIDTH 12 0
BBX 0 0 0 0
BITMAP
ENDCHAR
STARTCHAR char11332
ENCODING 11332
SWIDTH 1200 0
DWIDTH 12 0
BBX 0 0 0 0
BITMAP
ENDCHAR
STARTCHAR char11333
ENCODING 11333
SWIDTH 1200 0
DWIDTH 12 0
BBX 0 0 0 0
BITMAP
ENDCHAR
STARTCHAR char11334
ENCODING 11334
SWIDTH 1200 0
DWIDTH 12 0
BBX 0 0 0 0
BITMAP
ENDCHAR
STARTCHAR char11335
ENCODING 11335
SWIDTH 1200 0
DWIDTH 12 0
BBX 0 0 0 0
BITMAP
ENDCHAR
STARTCHAR char11336
ENCODING 11336
SWIDTH 1200 0
DWIDTH 12 0
BBX 0 0 0 0
BITMAP
ENDCHAR
STARTCHAR char11337
ENCODING 11337
SWIDTH 1200 0
DWIDTH 12 0
BBX 0 0 0 0
BITMAP
ENDCHAR
STARTCHAR char11338
ENCODING 11338
SWIDTH 1200 0
DWIDTH 12 0
BBX 0 0 0 0
BITMAP
ENDCHAR
STARTCHAR char11339
ENCODING 11339
SWIDTH 1200 0
DWIDTH 12 0
BBX 0 0 0 0
BITMAP
ENDCHAR
STARTCHAR char11340
ENCODING 11340
SWIDTH 1200 0
DWIDTH 12 0
BBX 0 0 0 0
BITMAP
ENDCHAR
STARTCHAR char11341
ENCODING 11341
SWIDTH 1200 0
DWIDTH 12 0
BBX 0 0 0 0
BITMAP
ENDCHAR
STARTCHAR char11342
ENCODING 11342
SWIDTH 1200 0
DWIDTH 12 0
BBX 0 0 0 0
BITMAP
ENDCHAR
STARTCHAR char11343
ENCODING 11343
SWIDTH 1200 0
DWIDTH 12 0
BBX 0 0 0 0
BITMAP
ENDCHAR
STARTCHAR char11344
ENCODING 11344
SWIDTH 1200 0
DWIDTH 12 0
BBX 0 0 0 0
BITMAP
ENDCHAR
STARTCHAR char11345
ENCODING 11345
SWIDTH 1200 0
DWIDTH 12 0
BBX 6 6 3 0
BITMAP
70
08
78
88
88
74
ENDCHAR
STARTCHAR char11346
ENCODING 11346
SWIDTH 1200 0
DWIDTH 12 0
BBX 6 9 3 0
BITMAP
04
38
40
B0
C8
88
88
88
70
ENDCHAR
STARTCHAR char11347
ENCODING 11347
SWIDTH 1200 0
DWIDTH 12 0
BBX 6 6 3 0
BITMAP
F8
44
78
44
44
F8
ENDCHAR
STARTCHAR char11348
ENCODING 11348
SWIDTH 1200 0
DWIDTH 12 0
BBX 6 6 3 0
BITMAP
F8
48
44
40
40
E0
ENDCHAR
STARTCHAR char11349
ENCODING 11349
SWIDTH 1200 0
DWIDTH 12 0
BBX 7 7 3 -1
BITMAP
7E
24
24
24
44
FE
82
ENDCHAR
STARTCHAR char11350
ENCODING 11350
SWIDTH 1200 0
DWIDTH 12 0
BBX 5 6 4 0
BITMAP
70
88
F8
80
88
70
ENDCHAR
STARTCHAR char11351
ENCODING 11351
SWIDTH 1200 0
DWIDTH 12 0
BBX 5 8 4 0
BITMAP
50
00
70
88
F8
80
88
70
ENDCHAR
STARTCHAR char11352
ENCODING 11352
SWIDTH 1200 0
DWIDTH 12 0
BBX 9 6 2 0
BITMAP
C980
AA80
1C00
2A00
4900
DD80
ENDCHAR
STARTCHAR char11353
ENCODING 11353
SWIDTH 1200 0
DWIDTH 12 0
BBX 5 6 4 0
BITMAP
F0
88
30
08
88
70
ENDCHAR
STARTCHAR char11354
ENCODING 11354
SWIDTH 1200 0
DWIDTH 12 0
BBX 7 6 3 0
BITMAP
EE
44
4C
54
64
EE
ENDCHAR
STARTCHAR char11355
ENCODING 11355
SWIDTH 1200 0
DWIDTH 12 0
BBX 7 9 3 0
BITMAP
24
18
00
EE
44
4C
54
64
EE
ENDCHAR
STARTCHAR char11356
ENCODING 11356
SWIDTH 1200 0
DWIDTH 12 0
BBX 6 6 3 0
BITMAP
EC
50
60
50
48
EC
ENDCHAR
STARTCHAR char11357
ENCODING 11357
SWIDTH 1200 0
DWIDTH 12 0
BBX 7 6 2 0
BITMAP
7E
24
24
24
A4
CE
ENDCHAR
STARTCHAR char11358
ENCODING 11358
SWIDTH 1200 0
DWIDTH 12 0
BBX 9 6 2 0
BITMAP
C180
6300
5500
4900
4100
E380
ENDCHAR
STARTCHAR char11359
ENCODING 11359
SWIDTH 1200 0
DWIDTH 12 0
BBX 7 6 3 0
BITMAP
EE
44
7C
44
44
EE
ENDCHAR
STARTCHAR char11360
ENCODING 11360
SWIDTH 1200 0
DWIDTH 12 0
BBX 7 6 3 0
BITMAP
38
44
82
82
44
38
ENDCHAR
STARTCHAR char11361
ENCODING 11361
SWIDTH 1200 0
DWIDTH 12 0
BBX 7 6 3 0
BITMAP
FE
44
44
44
44
EE
ENDCHAR
STARTCHAR char11362
ENCODING 11362
SWIDTH 1200 0
DWIDTH 12 0
BBX 6 7 3 -1
BITMAP
F0
48
44
48
70
40
E0
ENDCHAR
STARTCHAR char11363
ENCODING 11363
SWIDTH 1200 0
DWIDTH 12 0
BBX 5 6 3 0
BITMAP
30
48
80
80
48
30
ENDCHAR
STARTCHAR char11364
ENCODING 11364
SWIDTH 1200 0
DWIDTH 12 0
BBX 7 6 2 0
BITMAP
FE
92
10
10
10
38
ENDCHAR
STARTCHAR char11365
ENCODING 11365
SWIDTH 1200 0
DWIDTH 12 0
BBX 7 7 3 -1
BITMAP
C6
44
28
10
10
20
C0
ENDCHAR
STARTCHAR char11366
ENCODING 11366
SWIDTH 1200 0
DWIDTH 12 0
BBX 9 10 2 -1
BITMAP
1800
0800
0800
6B00
9C80
8880
9C80
6B00
0800
1C00
ENDCHAR
STARTCHAR char11367
ENCODING 11367
SWIDTH 1200 0
DWIDTH 12 0
BBX 5 6 3 0
BITMAP
D8
50
20
20
50
D8
ENDCHAR
STARTCHAR char11368
ENCODING 11368
SWIDTH 1200 0
DWIDTH 12 0
BBX 7 7 3 -1
BITMAP
CC
48
48
48
48
FE
02
ENDCHAR
STARTCHAR char11369
ENCODING 11369
SWIDTH 1200 0
DWIDTH 12 0
BBX 7 6 3 0
BITMAP
EE
44
4C
34
04
0E
ENDCHAR
STARTCHAR char11370
ENCODING 11370
SWIDTH 1200 0
DWIDTH 12 0
BBX 7 6 3 0
BITMAP
D6
54
54
54
54
FE
ENDCHAR
STARTCHAR char11371
ENCODING 11371
SWIDTH 1200 0
DWIDTH 12 0
BBX 8 7 3 -1
BITMAP
D6
54
54
54
54
FF
01
ENDCHAR
STARTCHAR char11372
ENCODING 11372
SWIDTH 1200 0
DWIDTH 12 0
BBX 7 6 2 0
BITMAP
F8
90
1C
12
12
3C
ENDCHAR
STARTCHAR char11373
ENCODING 11373
SWIDTH 1200 0
DWIDTH 12 0
BBX 9 6 2 0
BITMAP
E380
4100
7100
4900
4900
F380
ENDCHAR
STARTCHAR char11374
ENCODING 11374
SWIDTH 1200 0
DWIDTH 12 0
BBX 5 6 4 0
BITMAP
E0
40
70
48
48
F0
ENDCHAR
STARTCHAR char11375
ENCODING 11375
SWIDTH 1200 0
DWIDTH 12 0
BBX 5 6 4 0
BITMAP
F0
88
38
08
88
70
ENDCHAR
STARTCHAR char11376
ENCODING 11376
SWIDTH 1200 0
DWIDTH 12 0
BBX 9 6 2 0
BITMAP
E700
4880
7880
4880
4880
E700
ENDCHAR
STARTCHAR char11377
ENCODING 11377
SWIDTH 1200 0
DWIDTH 12 0
BBX 6 6 3 0
BITMAP
3C
48
48
38
48
DC
ENDCHAR
STARTCHAR AC00
ENCODING 12321
SWIDTH 1200 0
DWIDTH 12 0
BBX 10 11 1 -2
BITMAP
0300
0100
7D00
0500
0900
11C0
2100
4100
8100
0100
0100
ENDCHAR
STARTCHAR AC01
ENCODING 12322
SWIDTH 1200 0
DWIDTH 12 0
BBX 9 10 1 -1
BITMAP
0300
F900
0900
1100
2180
4100
FF00
0100
0100
0100
ENDCHAR
STARTCHAR AC04
ENCODING 12323
SWIDTH 1200 0
DWIDTH 12 0
BBX 8 11 2 -2
BITMAP
04
02
F2
22
22
43
82
42
20
20
3F
ENDCHAR
STARTCHAR AC07
ENCODING 12324
SWIDTH 1200 0
DWIDTH 12 0
BBX 9 10 1 -1
BITMAP
0300
7D00
0900
1100
1180
6100
8000
1F80
1000
1080
ENDCHAR
STARTCHAR AC08
ENCODING 12325
SWIDTH 1200 0
DWIDTH 12 0
BBX 9 11 1 -2
BITMAP
0100
F900
0900
1100
2180
4100
BF80
0100
1F00
1000
1F80
ENDCHAR
STARTCHAR AC09
ENCODING 12326
SWIDTH 1200 0
DWIDTH 12 0
BBX 9 10 1 -1
BITMAP
0100
7900
0900
1180
2100
4000
FB80
7900
2080
3880
ENDCHAR
STARTCHAR AC0A
ENCODING 12327
SWIDTH 1200 0
DWIDTH 12 0
BBX 9 11 1 -2
BITMAP
0300
7D00
0900
1100
2180
4100
BF00
1500
2500
2700
1800
ENDCHAR
STARTCHAR AC10
ENCODING 12328
SWIDTH 1200 0
DWIDTH 12 0
BBX 10 10 1 -1
BITMAP
0200
7900
0900
1100
2140
4180
8100
1F00
1100
1F00
ENDCHAR
STARTCHAR AC11
ENCODING 12329
SWIDTH 1200 0
DWIDTH 12 0
BBX 10 10 1 -1
BITMAP
0200
7D00
0900
1100
2140
4180
9100
1F00
1100
1F00
ENDCHAR
STARTCHAR AC12
ENCODING 12330
SWIDTH 1200 0
DWIDTH 12 0
BBX 10 11 1 -2
BITMAP
0200
F900
0900
1100
2140
5180
A900
3900
2B00
3A80
0800
ENDCHAR
STARTCHAR AC13
ENCODING 12331
SWIDTH 1200 0
DWIDTH 12 0
BBX 10 10 1 -1
BITMAP
0300
7D00
0900
1100
21C0
4100
8500
0400
0B00
1080
ENDCHAR
STARTCHAR AC14
ENCODING 12332
SWIDTH 1200 0
DWIDTH 12 0
BBX 9 10 1 -1
BITMAP
0200
7900
0900
1100
2100
4180
9100
1100
2B00
4480
ENDCHAR
STARTCHAR AC15
ENCODING 12333
SWIDTH 1200 0
DWIDTH 12 0
BBX 10 11 1 -2
BITMAP
0300
7D00
0900
1100
21C0
4100
8100
0F00
0900
0900
0600
ENDCHAR
STARTCHAR AC16
ENCODING 12334
SWIDTH 1200 0
DWIDTH 12 0
BBX 9 11 1 -2
BITMAP
0200
7900
0900
1100
2100
4180
8100
3E00
0A00
1100
2000
ENDCHAR
STARTCHAR AC17
ENCODING 12335
SWIDTH 1200 0
DWIDTH 12 0
BBX 8 12 2 -3
BITMAP
06
FA
12
22
43
9E
00
7F
08
16
21
40
ENDCHAR
STARTCHAR AC19
ENCODING 12336
SWIDTH 1200 0
DWIDTH 12 0
BBX 9 11 1 -2
BITMAP
0200
7900
0900
1100
2100
4180
8100
1F00
1F00
1000
1F80
ENDCHAR
STARTCHAR AC1A
ENCODING 12337
SWIDTH 1200 0
DWIDTH 12 0
BBX 9 11 1 -3
BITMAP
7900
0900
1100
2100
4180
8100
3F00
0000
0A00
3F80
3000
ENDCHAR
STARTCHAR AC1B
ENCODING 12338
SWIDTH 1200 0
DWIDTH 12 0
BBX 9 11 1 -2
BITMAP
0200
7D00
0900
0900
1180
6100
8F00
3C00
0A00
0900
0E00
ENDCHAR
STARTCHAR AC1C
ENCODING 12339
SWIDTH 1200 0
DWIDTH 12 0
BBX 9 11 1 -2
BITMAP
0080
0280
0280
7280
1280
2380
2280
4280
8280
0280
0080
ENDCHAR
STARTCHAR AC1D
ENCODING 12340
SWIDTH 1200 0
DWIDTH 12 0
BBX 8 11 2 -2
BITMAP
03
05
F5
25
27
45
85
7F
01
01
01
ENDCHAR
STARTCHAR AC20
ENCODING 12341
SWIDTH 1200 0
DWIDTH 12 0
BBX 9 11 1 -2
BITMAP
0280
0280
FA80
1280
1380
2280
4280
A280
1000
1000
1F80
ENDCHAR
STARTCHAR AC24
ENCODING 12342
SWIDTH 1200 0
DWIDTH 12 0
BBX 8 11 2 -2
BITMAP
01
05
F5
25
27
45
FF
01
3F
20
3F
ENDCHAR
STARTCHAR AC2C
ENCODING 12343
SWIDTH 1200 0
DWIDTH 12 0
BBX 8 11 2 -2
BITMAP
01
05
F5
25
27
45
85
1F
11
1F
10
ENDCHAR
STARTCHAR AC2D
ENCODING 12344
SWIDTH 1200 0
DWIDTH 12 0
BBX 8 11 2 -2
BITMAP
03
05
F5
25
27
45
95
1F
11
1F
11
ENDCHAR
STARTCHAR AC2F
ENCODING 12345
SWIDTH 1200 0
DWIDTH 12 0
BBX 8 11 2 -2
BITMAP
0D
05
F5
25
27
45
89
08
0C
13
20
ENDCHAR
STARTCHAR AC30
ENCODING 12346
SWIDTH 1200 0
DWIDTH 12 0
BBX 9 10 2 -1
BITMAP
0300
0500
F500
2500
2700
4500
9500
1200
2B00
4480
ENDCHAR
STARTCHAR AC31
ENCODING 12347
SWIDTH 1200 0
DWIDTH 12 0
BBX 8 11 2 -2
BITMAP
03
05
F5
25
27
45
85
0E
11
11
0E
ENDCHAR
STARTCHAR AC38
ENCODING 12348
SWIDTH 1200 0
DWIDTH 12 0
BBX 11 10 1 -1
BITMAP
0300
0100
7D00
0940
0980
1100
2160
4180
8100
0100
ENDCHAR
STARTCHAR AC39
ENCODING 12349
SWIDTH 1200 0
DWIDTH 12 0
BBX 10 11 1 -2
BITMAP
0300
F900
0940
1180
1100
6180
FF00
0100
0100
0100
0100
ENDCHAR
STARTCHAR AC3C
ENCODING 12350
SWIDTH 1200 0
DWIDTH 12 0
BBX 9 10 2 -1
BITMAP
0600
0200
FA00
1300
1200
2280
4300
A200
2000
3F00
ENDCHAR
STARTCHAR AC40
ENCODING 12351
SWIDTH 1200 0
DWIDTH 12 0
BBX 10 11 1 -2
BITMAP
0200
F900
0900
11C0
1100
6100
BF80
0100
1F00
1000
1F80
ENDCHAR
STARTCHAR AC4B
ENCODING 12352
SWIDTH 1200 0
DWIDTH 12 0
BBX 10 10 1 -1
BITMAP
0300
7900
0940
1180
2100
4180
8500
0400
0B00
1080
ENDCHAR
STARTCHAR AC4D
ENCODING 12353
SWIDTH 1200 0
DWIDTH 12 0
BBX 10 11 1 -2
BITMAP
0300
F900
0900
1180
2100
41C0
8500
1B00
1100
1100
0E00
ENDCHAR
STARTCHAR AC54
ENCODING 12354
SWIDTH 1200 0
DWIDTH 12 0
BBX 9 11 1 -1
BITMAP
0100
0280
0280
FA80
1380
1280
2280
2380
4280
8280
0280
ENDCHAR
STARTCHAR AC58
ENCODING 12355
SWIDTH 1200 0
DWIDTH 12 0
BBX 10 10 1 -1
BITMAP
0480
0280
F280
1380
2280
2380
E280
1280
1080
1FC0
ENDCHAR
STARTCHAR AC5C
ENCODING 12356
SWIDTH 1200 0
DWIDTH 12 0
BBX 9 10 1 -1
BITMAP
0180
0280
7A80
1380
2380
4280
BF00
3F00
1000
1F80
ENDCHAR
STARTCHAR AC70
ENCODING 12357
SWIDTH 1200 0
DWIDTH 12 0
BBX 9 11 1 -2
BITMAP
0180
0080
7C80
0880
0F80
1080
2080
4080
8080
0080
0080
ENDCHAR
STARTCHAR AC71
ENCODING 12358
SWIDTH 1200 0
DWIDTH 12 0
BBX 8 11 2 -2
BITMAP
03
01
79
1F
21
41
FF
01
01
01
01
ENDCHAR
STARTCHAR AC74
ENCODING 12359
SWIDTH 1200 0
DWIDTH 12 0
BBX 9 11 1 -2
BITMAP
0180
0080
3C80
0880
1780
2080
4080
A080
1080
1000
1F80
ENDCHAR
STARTCHAR AC77
ENCODING 12360
SWIDTH 1200 0
DWIDTH 12 0
BBX 9 11 1 -2
BITMAP
0180
F880
0880
1080
2380
4080
8000
1F00
1000
1000
0F80
ENDCHAR
STARTCHAR AC78
ENCODING 12361
SWIDTH 1200 0
DWIDTH 12 0
BBX 8 11 2 -2
BITMAP
01
F9
11
1F
21
41
FF
02
3F
20
3F
ENDCHAR
STARTCHAR AC7A
ENCODING 12362
SWIDTH 1200 0
DWIDTH 12 0
BBX 8 11 2 -2
BITMAP
01
F9
11
1F
21
41
80
7E
1A
6E
70
ENDCHAR
STARTCHAR AC80
ENCODING 12363
SWIDTH 1200 0
DWIDTH 12 0
BBX 8 10 2 -1
BITMAP
01
F9
11
1B
25
41
80
3E
22
3E
ENDCHAR
STARTCHAR AC81
ENCODING 12364
SWIDTH 1200 0
DWIDTH 12 0
BBX 8 11 2 -2
BITMAP
03
F9
11
1F
21
41
82
21
3F
3F
20
ENDCHAR
STARTCHAR AC83
ENCODING 12365
SWIDTH 1200 0
DWIDTH 12 0
BBX 8 11 2 -2
BITMAP
03
F9
11
13
25
41
89
08
16
21
40
ENDCHAR
STARTCHAR AC84
ENCODING 12366
SWIDTH 1200 0
DWIDTH 12 0
BBX 8 10 2 -1
BITMAP
03
F9
11
2F
21
41
92
22
3D
40
ENDCHAR
STARTCHAR AC85
ENCODING 12367
SWIDTH 1200 0
DWIDTH 12 0
BBX 8 11 2 -2
BITMAP
03
F9
11
13
25
41
81
0E
11
11
0E
ENDCHAR
STARTCHAR AC86
ENCODING 12368
SWIDTH 1200 0
DWIDTH 12 0
BBX 8 10 2 -1
BITMAP
03
01
79
1F
21
41
FF
08
0C
33
ENDCHAR
STARTCHAR AC89
ENCODING 12369
SWIDTH 1200 0
DWIDTH 12 0
BBX 8 11 2 -2
BITMAP
03
F9
11
21
27
41
80
3E
3E
20
1F
ENDCHAR
STARTCHAR AC8A
ENCODING 12370
SWIDTH 1200 0
DWIDTH 12 0
BBX 9 10 2 -1
BITMAP
0300
F900
1100
1100
2700
4100
FF00
2200
1400
7F80
ENDCHAR
STARTCHAR AC8B
ENCODING 12371
SWIDTH 1200 0
DWIDTH 12 0
BBX 9 11 1 -2
BITMAP
0180
0080
3C80
0F80
1080
2080
C680
3D00
0B00
0900
0600
ENDCHAR
STARTCHAR AC8C
ENCODING 12372
SWIDTH 1200 0
DWIDTH 12 0
BBX 9 11 1 -2
BITMAP
0500
0280
F280
1280
1E80
2280
4280
8280
0280
0280
0080
ENDCHAR
STARTCHAR AC90
ENCODING 12373
SWIDTH 1200 0
DWIDTH 12 0
BBX 10 11 1 -2
BITMAP
0180
0280
FA80
1280
1E80
2280
4280
A280
1000
1000
1FC0
ENDCHAR
STARTCHAR AC94
ENCODING 12374
SWIDTH 1200 0
DWIDTH 12 0
BBX 8 11 2 -2
BITMAP
03
05
F5
25
5D
45
FE
02
3E
20
3F
ENDCHAR
STARTCHAR AC9C
ENCODING 12375
SWIDTH 1200 0
DWIDTH 12 0
BBX 8 10 2 -1
BITMAP
03
09
05
65
25
5D
84
1F
12
1E
ENDCHAR
STARTCHAR AC9D
ENCODING 12376
SWIDTH 1200 0
DWIDTH 12 0
BBX 9 11 1 -2
BITMAP
0180
0280
7A80
1280
1280
2E80
4A80
8F80
0880
0F80
0080
ENDCHAR
STARTCHAR AC9F
ENCODING 12377
SWIDTH 1200 0
DWIDTH 12 0
BBX 8 10 2 -1
BITMAP
03
05
F5
25
5D
45
89
04
0A
31
ENDCHAR
STARTCHAR ACA0
ENCODING 12378
SWIDTH 1200 0
DWIDTH 12 0
BBX 9 11 2 -2
BITMAP
0300
0500
F500
2500
3D00
4500
8000
1200
3200
4D80
8000
ENDCHAR
STARTCHAR ACA1
ENCODING 12379
SWIDTH 1200 0
DWIDTH 12 0
BBX 9 10 1 -1
BITMAP
0380
7A80
1280
1280
2E80
4280
8700
0880
0880
0700
ENDCHAR
STARTCHAR ACA8
ENCODING 12380
SWIDTH 1200 0
DWIDTH 12 0
BBX 9 10 1 -1
BITMAP
0180
0080
3C80
0B80
1080
1180
2280
4080
8080
0080
ENDCHAR
STARTCHAR ACA9
ENCODING 12381
SWIDTH 1200 0
DWIDTH 12 0
BBX 8 11 2 -2
BITMAP
02
F9
11
17
21
4F
FF
01
01
01
01
ENDCHAR
STARTCHAR ACAA
ENCODING 12382
SWIDTH 1200 0
DWIDTH 12 0
BBX 8 11 2 -2
BITMAP
02
01
79
17
21
4F
81
77
11
11
11
ENDCHAR
STARTCHAR ACAC
ENCODING 12383
SWIDTH 1200 0
DWIDTH 12 0
BBX 8 11 2 -2
BITMAP
03
01
F9
17
11
2F
41
C1
20
20
3F
ENDCHAR
STARTCHAR ACAF
ENCODING 12384
SWIDTH 1200 0
DWIDTH 12 0
BBX 9 10 1 -1
BITMAP
0080
7C80
0F80
0880
1080
2380
C000
1F80
1000
1F80
ENDCHAR
STARTCHAR ACB0
ENCODING 12385
SWIDTH 1200 0
DWIDTH 12 0
BBX 8 11 2 -2
BITMAP
03
F9
1B
25
2F
41
FE
02
3E
20
3F
ENDCHAR
STARTCHAR ACB8
ENCODING 12386
SWIDTH 1200 0
DWIDTH 12 0
BBX 8 11 2 -2
BITMAP
03
F9
09
17
21
47
9F
11
11
1F
10
ENDCHAR
STARTCHAR ACB9
ENCODING 12387
SWIDTH 1200 0
DWIDTH 12 0
BBX 8 11 2 -2
BITMAP
02
F9
11
17
21
4F
91
1F
11
1F
10
ENDCHAR
STARTCHAR ACBB
ENCODING 12388
SWIDTH 1200 0
DWIDTH 12 0
BBX 9 11 1 -2
BITMAP
0080
F880
0F80
0880
1080
2780
4480
0480
0600
1980
2000
ENDCHAR
STARTCHAR ACBC
ENCODING 12389
SWIDTH 1200 0
DWIDTH 12 0
BBX 9 10 2 -1
BITMAP
0200
F900
1100
1700
2100
4700
8300
2200
3200
4580
ENDCHAR
STARTCHAR ACBD
ENCODING 12390
SWIDTH 1200 0
DWIDTH 12 0
BBX 8 11 2 -2
BITMAP
02
F9
11
17
21
4F
81
0E
11
11
0E
ENDCHAR
STARTCHAR ACC1
ENCODING 12391
SWIDTH 1200 0
DWIDTH 12 0
BBX 9 11 2 -2
BITMAP
0200
F900
1100
1700
2100
4F00
8100
1F00
1F00
1000
1F80
ENDCHAR
STARTCHAR ACC4
ENCODING 12392
SWIDTH 1200 0
DWIDTH 12 0
BBX 8 10 2 -1
BITMAP
03
05
F5
1D
25
5D
45
85
05
05
ENDCHAR
STARTCHAR ACC8
ENCODING 12393
SWIDTH 1200 0
DWIDTH 12 0
BBX 8 10 2 -1
BITMAP
03
05
75
3D
45
5D
C5
25
20
3F
ENDCHAR
STARTCHAR ACCC
ENCODING 12394
SWIDTH 1200 0
DWIDTH 12 0
BBX 9 10 1 -1
BITMAP
0180
0280
7A80
1280
1E80
2E00
3F00
DF00
1000
1F80
ENDCHAR
STARTCHAR ACD5
ENCODING 12395
SWIDTH 1200 0
DWIDTH 12 0
BBX 9 11 1 -2
BITMAP
0180
0480
7A80
1280
1E80
2E80
4A80
8F80
0880
0F80
0880
ENDCHAR
STARTCHAR ACD7
ENCODING 12396
SWIDTH 1200 0
DWIDTH 12 0
BBX 9 11 1 -2
BITMAP
0100
0480
7A80
1280
1E80
2E80
4680
8480
0700
0880
1000
ENDCHAR
STARTCHAR ACE0
ENCODING 12397
SWIDTH 1200 0
DWIDTH 12 0
BBX 11 8 0 0
BITMAP
3FC0
0040
0080
0080
0480
0400
0400
FFE0
ENDCHAR
STARTCHAR ACE1
ENCODING 12398
SWIDTH 1200 0
DWIDTH 12 0
BBX 10 10 1 -2
BITMAP
3F80
0100
0900
0800
FFC0
3F00
0100
0100
0100
0100
ENDCHAR
STARTCHAR ACE4
ENCODING 12399
SWIDTH 1200 0
DWIDTH 12 0
BBX 10 10 1 -2
BITMAP
7F80
0080
0D00
0900
0BC0
FC00
0000
1000
1000
1FC0
ENDCHAR
STARTCHAR ACE7
ENCODING 12400
SWIDTH 1200 0
DWIDTH 12 0
BBX 10 10 1 -2
BITMAP
3F80
0100
0900
0800
FFC0
0000
1F00
1000
1000
0F80
ENDCHAR
STARTCHAR ACE8
ENCODING 12401
SWIDTH 1200 0
DWIDTH 12 0
BBX 10 10 1 -2
BITMAP
3F80
0900
0900
0BC0
FC00
3F80
0100
1F80
1000
0F80
ENDCHAR
STARTCHAR ACEA
ENCODING 12402
SWIDTH 1200 0
DWIDTH 12 0
BBX 10 10 1 -2
BITMAP
3F80
0100
0900
0800
FFC0
0780
1D00
1500
2700
3C00
ENDCHAR
STARTCHAR ACEC
ENCODING 12403
SWIDTH 1200 0
DWIDTH 12 0
BBX 10 9 1 -1
BITMAP
3F80
0900
0900
FFC0
0000
3900
7900
2280
3C00
ENDCHAR
STARTCHAR ACEF
ENCODING 12404
SWIDTH 1200 0
DWIDTH 12 0
BBX 10 10 1 -2
BITMAP
3F80
0900
07C0
F800
0300
3800
0F00
3500
2480
1300
ENDCHAR
STARTCHAR ACF0
ENCODING 12405
SWIDTH 1200 0
DWIDTH 12 0
BBX 10 10 1 -2
BITMAP
3F80
0100
0900
0800
FFC0
0000
1F00
1100
1F00
1000
ENDCHAR
STARTCHAR ACF1
ENCODING 12406
SWIDTH 1200 0
DWIDTH 12 0
BBX 10 10 1 -2
BITMAP
3F80
0100
0900
0800
FFC0
1100
1F00
1100
1F00
0100
ENDCHAR
STARTCHAR ACF3
ENCODING 12407
SWIDTH 1200 0
DWIDTH 12 0
BBX 10 10 1 -2
BITMAP
3F80
0100
0900
0800
FFC0
0800
0800
0C00
3300
0080
ENDCHAR
STARTCHAR ACF5
ENCODING 12408
SWIDTH 1200 0
DWIDTH 12 0
BBX 10 10 1 -2
BITMAP
3F80
0100
0900
0800
FFC0
0000
0E00
1100
1100
0E00
ENDCHAR
STARTCHAR ACF6
ENCODING 12409
SWIDTH 1200 0
DWIDTH 12 0
BBX 10 10 1 -2
BITMAP
3F80
0900
0900
FFC0
0000
7F80
0400
0A00
1100
2000
ENDCHAR
STARTCHAR ACFC
ENCODING 12410
SWIDTH 1200 0
DWIDTH 12 0
BBX 9 10 2 -1
BITMAP
0600
0200
FA00
0A00
0A00
2380
2E00
D200
0200
0200
ENDCHAR
STARTCHAR ACFD
ENCODING 12411
SWIDTH 1200 0
DWIDTH 12 0
BBX 10 10 1 -1
BITMAP
0300
7D00
0500
2100
23C0
FD00
3F00
0100
0100
0100
ENDCHAR
STARTCHAR AD00
ENCODING 12412
SWIDTH 1200 0
DWIDTH 12 0
BBX 9 11 2 -2
BITMAP
0600
FA00
0A00
1200
4280
5F00
A200
0200
2000
2000
3F00
ENDCHAR
STARTCHAR AD04
ENCODING 12413
SWIDTH 1200 0
DWIDTH 12 0
BBX 9 11 1 -2
BITMAP
0100
7D00
0500
2900
2380
FD00
3F00
0100
1F00
1000
1F80
ENDCHAR
STARTCHAR AD06
ENCODING 12414
SWIDTH 1200 0
DWIDTH 12 0
BBX 9 10 1 -1
BITMAP
0300
7D00
0500
2900
2780
D900
3800
0F00
3500
3F00
ENDCHAR
STARTCHAR AD0C
ENCODING 12577
SWIDTH 1200 0
DWIDTH 12 0
BBX 9 11 1 -2
BITMAP
0100
7D00
0500
2500
2780
D900
1F00
1100
1100
1F00
1000
ENDCHAR
STARTCHAR AD0D
ENCODING 12578
SWIDTH 1200 0
DWIDTH 12 0
BBX 9 11 1 -2
BITMAP
0300
7D00
0500
2900
2780
DB00
1100
1F00
1100
1F00
0100
ENDCHAR
STARTCHAR AD0F
ENCODING 12579
SWIDTH 1200 0
DWIDTH 12 0
BBX 9 10 2 -1
BITMAP
0600
FA00
0A00
6A00
2380
7E00
8A00
0800
1400
2300
ENDCHAR
STARTCHAR AD11
ENCODING 12580
SWIDTH 1200 0
DWIDTH 12 0
BBX 9 11 1 -2
BITMAP
0300
7D00
0500
2900
2180
FF00
0500
0E00
1100
1100
0E00
ENDCHAR
STARTCHAR AD18
ENCODING 12581
SWIDTH 1200 0
DWIDTH 12 0
BBX 8 11 2 -2
BITMAP
03
05
15
75
95
47
7D
85
05
05
01
ENDCHAR
STARTCHAR AD1C
ENCODING 12582
SWIDTH 1200 0
DWIDTH 12 0
BBX 10 11 1 -2
BITMAP
0180
0280
FA80
0A80
2A80
2380
2680
5A80
1280
1000
0FC0
ENDCHAR
STARTCHAR AD20
ENCODING 12583
SWIDTH 1200 0
DWIDTH 12 0
BBX 8 11 2 -2
BITMAP
09
05
F5
55
57
5D
A5
7E
7E
20
3F
ENDCHAR
STARTCHAR AD29
ENCODING 12584
SWIDTH 1200 0
DWIDTH 12 0
BBX 8 11 2 -2
BITMAP
0B
F5
15
55
47
7D
87
11
1F
1F
01
ENDCHAR
STARTCHAR AD2C
ENCODING 12585
SWIDTH 1200 0
DWIDTH 12 0
BBX 8 11 2 -2
BITMAP
0B
05
F5
55
47
5D
A5
02
22
4D
90
ENDCHAR
STARTCHAR AD2D
ENCODING 12586
SWIDTH 1200 0
DWIDTH 12 0
BBX 8 11 2 -2
BITMAP
0D
05
F5
55
57
7D
85
0E
11
11
0E
ENDCHAR
STARTCHAR AD34
ENCODING 12587
SWIDTH 1200 0
DWIDTH 12 0
BBX 8 10 2 -1
BITMAP
03
01
FD
09
29
29
3F
C1
01
01
ENDCHAR
STARTCHAR AD35
ENCODING 12588
SWIDTH 1200 0
DWIDTH 12 0
BBX 8 11 2 -2
BITMAP
03
FD
09
29
2B
F5
00
7F
01
01
01
ENDCHAR
STARTCHAR AD38
ENCODING 12589
SWIDTH 1200 0
DWIDTH 12 0
BBX 9 10 2 -1
BITMAP
0300
0100
F900
0900
2900
2F00
D100
2100
2000
3F80
ENDCHAR
STARTCHAR AD3C
ENCODING 12590
SWIDTH 1200 0
DWIDTH 12 0
BBX 8 10 2 -1
BITMAP
03
FD
09
09
27
D9
7E
02
3E
3F
ENDCHAR
STARTCHAR AD44
ENCODING 12591
SWIDTH 1200 0
DWIDTH 12 0
BBX 8 10 2 -1
BITMAP
03
7D
05
25
21
FF
01
1F
12
1E
ENDCHAR
STARTCHAR AD45
ENCODING 12592
SWIDTH 1200 0
DWIDTH 12 0
BBX 9 11 1 -2
BITMAP
0180
7E80
0480
1480
1080
FF80
0100
0880
0F80
0F80
0080
ENDCHAR
STARTCHAR AD47
ENCODING 12593
SWIDTH 1200 0
DWIDTH 12 0
BBX 8 11 2 -2
BITMAP
03
F9
09
69
29
3F
C1
04
0C
13
60
ENDCHAR
STARTCHAR AD49
ENCODING 12594
SWIDTH 1200 0
DWIDTH 12 0
BBX 9 11 1 -2
BITMAP
0180
7E80
0480
3480
1080
FF80
0080
0700
0880
0880
0700
ENDCHAR
STARTCHAR AD50
ENCODING 12595
SWIDTH 1200 0
DWIDTH 12 0
BBX 10 7 1 0
BITMAP
7F80
0080
0880
1500
1500
1400
FFC0
ENDCHAR
STARTCHAR AD54
ENCODING 12596
SWIDTH 1200 0
DWIDTH 12 0
BBX 10 9 1 -1
BITMAP
3F80
0080
3300
1300
FFC0
4000
2000
2000
1F80
ENDCHAR
STARTCHAR AD58
ENCODING 12597
SWIDTH 1200 0
DWIDTH 12 0
BBX 10 9 1 -1
BITMAP
3F80
1300
1500
FFC0
0000
7F00
0100
3F00
1F80
ENDCHAR
STARTCHAR AD61
ENCODING 12598
SWIDTH 1200 0
DWIDTH 12 0
BBX 10 10 1 -2
BITMAP
3F80
1300
1500
FFC0
0300
2100
3F00
2100
3F00
2100
ENDCHAR
STARTCHAR AD63
ENCODING 12599
SWIDTH 1200 0
DWIDTH 12 0
BBX 11 10 1 -2
BITMAP
3F80
0080
3300
1200
FFE0
0C00
0400
0A00
1180
2000
ENDCHAR
STARTCHAR AD6C
ENCODING 12600
SWIDTH 1200 0
DWIDTH 12 0
BBX 10 10 1 -2
BITMAP
3F00
0100
0100
0100
FEC0
0500
0400
0400
0400
0400
ENDCHAR
STARTCHAR AD6D
ENCODING 12601
SWIDTH 1200 0
DWIDTH 12 0
BBX 11 10 1 -2
BITMAP
3F80
0080
0100
FFE0
0400
3F00
0100
0100
0100
0100
ENDCHAR
STARTCHAR AD70
ENCODING 12602
SWIDTH 1200 0
DWIDTH 12 0
BBX 11 9 1 -1
BITMAP
3F80
0080
0100
0100
FF60
4480
2400
2400
1F80
ENDCHAR
STARTCHAR AD73
ENCODING 12603
SWIDTH 1200 0
DWIDTH 12 0
BBX 10 9 1 -1
BITMAP
3F80
0100
0100
FEC0
0900
0000
3F00
2000
3F00
ENDCHAR
STARTCHAR AD74
ENCODING 12604
SWIDTH 1200 0
DWIDTH 12 0
BBX 11 10 1 -2
BITMAP
3F80
0080
0100
FF60
0480
7C00
0300
3F00
2000
1F00
ENDCHAR
STARTCHAR AD75
ENCODING 12605
SWIDTH 1200 0
DWIDTH 12 0
BBX 10 9 1 -1
BITMAP
3F80
0100
0100
FF40
0480
3880
0B80
3080
3880
ENDCHAR
STARTCHAR AD76
ENCODING 12606
SWIDTH 1200 0
DWIDTH 12 0
BBX 10 9 1 -1
BITMAP
3F80
0100
0100
FFC0
0400
0380
3C80
3D00
3300
ENDCHAR
STARTCHAR AD7B
ENCODING 12607
SWIDTH 1200 0
DWIDTH 12 0
BBX 10 10 1 -2
BITMAP
3F80
0100
FFC0
0800
0300
3800
0F00
3780
3C80
0300
ENDCHAR
STARTCHAR AD7C
ENCODING 12608
SWIDTH 1200 0
DWIDTH 12 0
BBX 11 10 1 -2
BITMAP
3F80
0080
0100
FF60
0480
1C00
1300
1100
1F00
1000
ENDCHAR
STARTCHAR AD7D
ENCODING 12609
SWIDTH 1200 0
DWIDTH 12 0
BBX 10 10 1 -2
BITMAP
3F00
0100
0100
FEC0
0900
1100
1F00
1100
1F00
1100
ENDCHAR
STARTCHAR AD7F
ENCODING 12610
SWIDTH 1200 0
DWIDTH 12 0
BBX 10 10 1 -1
BITMAP
0100
1F00
0100
0200
FFC0
0800
0800
0800
0E00
3100
ENDCHAR
STARTCHAR AD81
ENCODING 12611
SWIDTH 1200 0
DWIDTH 12 0
BBX 11 10 1 -2
BITMAP
3F80
0080
0100
FFE0
0400
0400
0E00
1100
1100
0E00
ENDCHAR
STARTCHAR AD82
ENCODING 12612
SWIDTH 1200 0
DWIDTH 12 0
BBX 11 10 1 -2
BITMAP
3F80
0080
0100
FF60
0480
0780
1C00
0A00
1180
2000
ENDCHAR
STARTCHAR AD88
ENCODING 12613
SWIDTH 1200 0
DWIDTH 12 0
BBX 9 10 1 -1
BITMAP
0180
7C80
0480
0880
0880
F480
1780
1080
1080
1080
ENDCHAR
STARTCHAR AD89
ENCODING 12614
SWIDTH 1200 0
DWIDTH 12 0
BBX 9 11 1 -2
BITMAP
0180
9C80
6880
0A80
F480
1380
1080
3F80
0080
0080
0080
ENDCHAR
STARTCHAR AD8C
ENCODING 12615
SWIDTH 1200 0
DWIDTH 12 0
BBX 9 10 2 -1
BITMAP
0300
0100
7900
0900
0D00
F100
2700
1100
1000
0F80
ENDCHAR
STARTCHAR AD90
ENCODING 12616
SWIDTH 1200 0
DWIDTH 12 0
BBX 10 11 1 -2
BITMAP
0080
7C80
0480
0880
FC80
1380
1080
0F80
1F80
0800
0FC0
ENDCHAR
STARTCHAR AD9C
ENCODING 12617
SWIDTH 1200 0
DWIDTH 12 0
BBX 9 10 2 -1
BITMAP
0300
F900
0900
1500
E900
0700
0200
1200
3200
4D80
ENDCHAR
STARTCHAR AD9D
ENCODING 12618
SWIDTH 1200 0
DWIDTH 12 0
BBX 9 11 1 -2
BITMAP
0180
7C80
0880
0880
F480
1380
1080
0E00
1100
1100
0E00
ENDCHAR
STARTCHAR ADA4
ENCODING 12619
SWIDTH 1200 0
DWIDTH 12 0
BBX 8 10 2 -1
BITMAP
03
05
FD
15
15
1D
FD
25
25
05
ENDCHAR
STARTCHAR ADB7
ENCODING 12620
SWIDTH 1200 0
DWIDTH 12 0
BBX 8 11 2 -2
BITMAP
03
05
F5
15
15
E5
2D
24
0C
13
60
ENDCHAR
STARTCHAR ADC0
ENCODING 12621
SWIDTH 1200 0
DWIDTH 12 0
BBX 10 10 0 -1
BITMAP
00C0
7E40
0240
0440
0440
FF40
0840
0840
0840
0840
ENDCHAR
STARTCHAR ADC1
ENCODING 12622
SWIDTH 1200 0
DWIDTH 12 0
BBX 8 11 2 -2
BITMAP
01
79
09
0F
F9
11
11
7F
01
01
01
ENDCHAR
STARTCHAR ADC4
ENCODING 12623
SWIDTH 1200 0
DWIDTH 12 0
BBX 8 10 2 -1
BITMAP
01
F9
09
13
0D
F1
01
21
20
3F
ENDCHAR
STARTCHAR ADC8
ENCODING 12624
SWIDTH 1200 0
DWIDTH 12 0
BBX 10 10 1 -1
BITMAP
0080
3E80
0480
0380
FC80
0880
1F80
0080
0F80
0FC0
ENDCHAR
STARTCHAR ADD0
ENCODING 12625
SWIDTH 1200 0
DWIDTH 12 0
BBX 8 10 2 -1
BITMAP
01
7D
09
0F
F9
11
1F
11
12
1F
ENDCHAR
STARTCHAR ADD1
ENCODING 12626
SWIDTH 1200 0
DWIDTH 12 0
BBX 8 11 2 -2
BITMAP
01
79
09
0F
FF
11
11
11
1F
1F
01
ENDCHAR
STARTCHAR ADD3
ENCODING 12627
SWIDTH 1200 0
DWIDTH 12 0
BBX 9 10 1 -1
BITMAP
0080
7C80
0480
0B80
FC80
1080
0680
0400
0A00
1180
ENDCHAR
STARTCHAR ADDC
ENCODING 12628
SWIDTH 1200 0
DWIDTH 12 0
BBX 10 10 1 -2
BITMAP
3F00
0100
0100
0200
FFC0
1200
1200
1200
1200
1200
ENDCHAR
STARTCHAR ADE0
ENCODING 12629
SWIDTH 1200 0
DWIDTH 12 0
BBX 10 9 1 -1
BITMAP
3F80
0100
0100
FFC0
1200
5200
3200
2000
3F80
ENDCHAR
STARTCHAR ADE4
ENCODING 12630
SWIDTH 1200 0
DWIDTH 12 0
BBX 10 9 2 -1
BITMAP
7F00
0100
0200
FFC0
2400
5E00
7E00
2000
3F00
ENDCHAR
STARTCHAR ADF8
ENCODING 12631
SWIDTH 1200 0
DWIDTH 12 0
BBX 10 6 1 1
BITMAP
7F80
0080
0100
0100
0200
FFC0
ENDCHAR
STARTCHAR ADF9
ENCODING 12632
SWIDTH 1200 0
DWIDTH 12 0
BBX 10 10 1 -2
BITMAP
3F80
0100
0100
FFC0
0000
7F00
0100
0100
0100
0100
ENDCHAR
STARTCHAR ADFC
ENCODING 12633
SWIDTH 1200 0
DWIDTH 12 0
BBX 10 9 1 -1
BITMAP
3F80
0080
0100
0100
FFC0
6000
2000
2000
1F80
ENDCHAR
STARTCHAR ADFF
ENCODING 12634
SWIDTH 1200 0
DWIDTH 12 0
BBX 10 9 1 -1
BITMAP
3F80
0100
0100
FFC0
0000
1F80
1000
1000
1F80
ENDCHAR
STARTCHAR AE00
ENCODING 12635
SWIDTH 1200 0
DWIDTH 12 0
BBX 11 9 1 -1
BITMAP
3F80
0080
0100
FFE0
0000
3F00
0100
1F00
1F80
ENDCHAR
STARTCHAR AE01
ENCODING 12636
SWIDTH 1200 0
DWIDTH 12 0
BBX 10 9 1 -1
BITMAP
3F80
0100
0100
FEC0
0100
3B80
7880
2080
3880
ENDCHAR
STARTCHAR AE08
ENCODING 12637
SWIDTH 1200 0
DWIDTH 12 0
BBX 10 10 1 -2
BITMAP
3F80
0100
0100
FEC0
0100
1F00
1100
1100
1F00
1000
ENDCHAR
STARTCHAR AE09
ENCODING 12638
SWIDTH 1200 0
DWIDTH 12 0
BBX 10 10 1 -2
BITMAP
3F80
0100
0100
FEC0
0100
1100
1F00
1100
1F00
0100
ENDCHAR
STARTCHAR AE0B
ENCODING 12639
SWIDTH 1200 0
DWIDTH 12 0
BBX 10 9 1 -1
BITMAP
3F80
0100
0100
FFC0
0000
0400
0C00
1200
2180
ENDCHAR
STARTCHAR AE0D
ENCODING 12640
SWIDTH 1200 0
DWIDTH 12 0
BBX 10 9 1 -1
BITMAP
3F80
0080
0100
FFC0
0400
0E00
1100
1100
0E00
ENDCHAR
STARTCHAR AE14
ENCODING 12641
SWIDTH 1200 0
DWIDTH 12 0
BBX 8 10 2 -1
BITMAP
03
01
FD
09
09
09
1F
E1
01
01
ENDCHAR
STARTCHAR AE30
ENCODING 12642
SWIDTH 1200 0
DWIDTH 12 0
BBX 8 10 2 -1
BITMAP
03
01
F9
11
21
21
41
81
01
01
ENDCHAR
STARTCHAR AE31
ENCODING 12643
SWIDTH 1200 0
DWIDTH 12 0
BBX 8 11 2 -2
BITMAP
03
F9
11
11
21
41
FF
01
01
01
01
ENDCHAR
STARTCHAR AE34
ENCODING 12644
SWIDTH 1200 0
DWIDTH 12 0
BBX 8 10 2 -1
BITMAP
03
01
F9
11
11
21
41
A1
20
3F
ENDCHAR
STARTCHAR AE37
ENCODING 12645
SWIDTH 1200 0
DWIDTH 12 0
BBX 8 10 2 -1
BITMAP
03
F9
11
21
21
41
BE
20
20
3F
ENDCHAR
STARTCHAR AE38
ENCODING 12646
SWIDTH 1200 0
DWIDTH 12 0
BBX 8 11 2 -2
BITMAP
03
F9
11
11
21
41
FE
02
3E
20
3F
ENDCHAR
STARTCHAR AE3A
ENCODING 12647
SWIDTH 1200 0
DWIDTH 12 0
BBX 9 11 1 -2
BITMAP
0180
7C80
0480
0880
1080
7880
8D80
7A80
2280
2B80
1000
ENDCHAR
STARTCHAR AE40
ENCODING 12648
SWIDTH 1200 0
DWIDTH 12 0
BBX 8 11 2 -2
BITMAP
01
F9
11
11
21
41
9F
11
12
1F
10
ENDCHAR
STARTCHAR AE41
ENCODING 12649
SWIDTH 1200 0
DWIDTH 12 0
BBX 8 11 2 -2
BITMAP
03
F9
11
11
21
43
91
1F
11
1F
11
ENDCHAR
STARTCHAR AE43
ENCODING 12650
SWIDTH 1200 0
DWIDTH 12 0
BBX 8 10 2 -1
BITMAP
03
F9
11
11
21
41
8D
0C
12
21
ENDCHAR
STARTCHAR AE45
ENCODING 12651
SWIDTH 1200 0
DWIDTH 12 0
BBX 8 11 2 -2
BITMAP
02
09
71
11
21
41
81
1E
11
11
0E
ENDCHAR
STARTCHAR AE46
ENCODING 12652
SWIDTH 1200 0
DWIDTH 12 0
BBX 9 10 1 -1
BITMAP
0180
7C80
0880
0880
1080
6080
A380
1C00
0700
1880
ENDCHAR
STARTCHAR AE4A
ENCODING 12653
SWIDTH 1200 0
DWIDTH 12 0
BBX 9 10 2 -1
BITMAP
0300
F900
1100
1100
2100
4100
FF00
0200
1400
7F80
ENDCHAR
STARTCHAR AE4C
ENCODING 12654
SWIDTH 1200 0
DWIDTH 12 0
BBX 11 11 1 -2
BITMAP
0300
0100
7F00
2500
2500
49E0
8900
1100
2100
0100
0100
ENDCHAR
STARTCHAR AE4D
ENCODING 12655
SWIDTH 1200 0
DWIDTH 12 0
BBX 9 11 1 -2
BITMAP
0300
1100
7D00
2500
4980
9100
3F00
0100
0100
0100
0100
ENDCHAR
STARTCHAR AE4E
ENCODING 12656
SWIDTH 1200 0
DWIDTH 12 0
BBX 9 11 1 -2
BITMAP
0300
1100
7D00
2500
4980
9100
0100
3F00
0900
0900
0900
ENDCHAR
STARTCHAR AE50
ENCODING 12657
SWIDTH 1200 0
DWIDTH 12 0
BBX 11 10 1 -1
BITMAP
0300
0100
7D00
2900
49E0
9100
2100
1100
1000
1F80
ENDCHAR
STARTCHAR AE54
ENCODING 12658
SWIDTH 1200 0
DWIDTH 12 0
BBX 8 10 2 -1
BITMAP
02
22
FA
4A
93
22
7E
02
3E
3F
ENDCHAR
STARTCHAR AE56
ENCODING 12659
SWIDTH 1200 0
DWIDTH 12 0
BBX 9 11 1 -2
BITMAP
0300
0100
7D00
2900
4980
9100
7F00
1500
6500
5F00
2400
ENDCHAR
STARTCHAR AE5C
ENCODING 12660
SWIDTH 1200 0
DWIDTH 12 0
BBX 8 10 2 -1
BITMAP
02
22
FA
4A
93
22
5F
12
12
1E
ENDCHAR
STARTCHAR AE5D
ENCODING 12661
SWIDTH 1200 0
DWIDTH 12 0
BBX 8 11 2 -2
BITMAP
06
22
FA
4A
93
26
52
1E
12
1E
02
ENDCHAR
STARTCHAR AE5F
ENCODING 12662
SWIDTH 1200 0
DWIDTH 12 0
BBX 10 10 2 -1
BITMAP
0600
0200
FA00
4A00
93C0
1200
2A00
1800
2400
4200
ENDCHAR
STARTCHAR AE60
ENCODING 12663
SWIDTH 1200 0
DWIDTH 12 0
BBX 10 10 1 -1
BITMAP
0300
1300
7D00
2500
4980
9100
2900
1100
2A80
0040
ENDCHAR
STARTCHAR AE61
ENCODING 12664
SWIDTH 1200 0
DWIDTH 12 0
BBX 9 11 2 -2
BITMAP
0600
2200
FA00
4A00
9380
2200
4200
1E00
1200
1200
0C00
ENDCHAR
STARTCHAR AE65
ENCODING 12665
SWIDTH 1200 0
DWIDTH 12 0
BBX 8 10 2 -1
BITMAP
06
22
FA
4A
93
22
7E
20
3E
3F
ENDCHAR
STARTCHAR AE68
ENCODING 12666
SWIDTH 1200 0
DWIDTH 12 0
BBX 9 11 1 -2
BITMAP
0180
0280
FA80
2A80
4A80
5380
A280
2280
0280
0280
0080
ENDCHAR
STARTCHAR AE69
ENCODING 12667
SWIDTH 1200 0
DWIDTH 12 0
BBX 9 11 1 -2
BITMAP
0680
0280
7E80
2A80
5380
9280
2280
3F80
0080
0080
0080
ENDCHAR
STARTCHAR AE6C
ENCODING 12668
SWIDTH 1200 0
DWIDTH 12 0
BBX 10 10 1 -1
BITMAP
0180
0280
FE80
2A80
4A80
9380
2280
0A80
0A80
0FC0
ENDCHAR
STARTCHAR AE70
ENCODING 12669
SWIDTH 1200 0
DWIDTH 12 0
BBX 10 10 1 -1
BITMAP
0080
0280
3A80
2A80
5380
A280
1F80
0080
0F80
0FC0
ENDCHAR
STARTCHAR AE78
ENCODING 12670
SWIDTH 1200 0
DWIDTH 12 0
BBX 9 11 1 -2
BITMAP
0080
0280
7A80
4A80
5380
A280
0280
0F80
0880
0F80
0800
ENDCHAR
STARTCHAR AE79
ENCODING 12833
SWIDTH 1200 0
DWIDTH 12 0
BBX 9 11 1 -2
BITMAP
0180
0280
3A80
2A80
5380
A380
0A80
0F80
0880
0F80
0800
ENDCHAR
STARTCHAR AE7B
ENCODING 12834
SWIDTH 1200 0
DWIDTH 12 0
BBX 9 11 1 -2
BITMAP
0580
0280
7E80
2A80
4B80
9280
0480
0400
0700
0880
1000
ENDCHAR
STARTCHAR AE7C
ENCODING 12835
SWIDTH 1200 0
DWIDTH 12 0
BBX 10 10 1 -1
BITMAP
0180
0280
3E80
2A80
5380
9280
3180
0900
1700
20C0
ENDCHAR
STARTCHAR AE7D
ENCODING 12836
SWIDTH 1200 0
DWIDTH 12 0
BBX 9 11 1 -2
BITMAP
0580
0280
7E80
2A80
5380
9280
2080
0600
0980
0880
0700
ENDCHAR
STARTCHAR AE84
ENCODING 12837
SWIDTH 1200 0
DWIDTH 12 0
BBX 11 11 1 -2
BITMAP
0300
0100
7F00
2540
2580
4900
9160
0180
0100
0100
0100
ENDCHAR
STARTCHAR AE85
ENCODING 12838
SWIDTH 1200 0
DWIDTH 12 0
BBX 10 11 1 -2
BITMAP
0300
0100
7D40
2580
4900
9180
7F00
0100
0100
0100
0100
ENDCHAR
STARTCHAR AE8C
ENCODING 12839
SWIDTH 1200 0
DWIDTH 12 0
BBX 10 10 1 -1
BITMAP
0100
FD00
25C0
4900
1140
2180
3F00
0200
1F00
1F80
ENDCHAR
STARTCHAR AEBC
ENCODING 12840
SWIDTH 1200 0
DWIDTH 12 0
BBX 8 10 2 -1
BITMAP
03
01
FD
29
4F
91
21
21
01
01
ENDCHAR
STARTCHAR AEBD
ENCODING 12841
SWIDTH 1200 0
DWIDTH 12 0
BBX 8 10 2 -1
BITMAP
03
ED
59
4F
91
21
7F
01
01
01
ENDCHAR
STARTCHAR AEBE
ENCODING 12842
SWIDTH 1200 0
DWIDTH 12 0
BBX 8 11 2 -2
BITMAP
03
ED
59
4F
91
21
1F
71
11
11
01
ENDCHAR
STARTCHAR AEC0
ENCODING 12843
SWIDTH 1200 0
DWIDTH 12 0
BBX 9 10 2 -1
BITMAP
0300
0100
7D00
4900
4F00
9100
3100
1100
1000
1F80
ENDCHAR
STARTCHAR AEC4
ENCODING 12844
SWIDTH 1200 0
DWIDTH 12 0
BBX 10 10 1 -1
BITMAP
0080
7680
1A80
2780
4880
9080
1F80
0100
0F80
0FC0
ENDCHAR
STARTCHAR AECC
ENCODING 12845
SWIDTH 1200 0
DWIDTH 12 0
BBX 8 11 2 -2
BITMAP
01
ED
59
4F
91
21
5F
11
11
1F
10
ENDCHAR
STARTCHAR AECD
ENCODING 12846
SWIDTH 1200 0
DWIDTH 12 0
BBX 8 11 2 -2
BITMAP
03
ED
59
4F
91
23
52
1F
11
1F
10
ENDCHAR
STARTCHAR AECF
ENCODING 12847
SWIDTH 1200 0
DWIDTH 12 0
BBX 8 10 2 -1
BITMAP
01
FD
29
4F
91
21
09
04
0A
31
ENDCHAR
STARTCHAR AED0
ENCODING 12848
SWIDTH 1200 0
DWIDTH 12 0
BBX 9 10 2 -1
BITMAP
0300
2500
7900
4F00
9100
2100
6300
1200
2B00
4C80
ENDCHAR
STARTCHAR AED1
ENCODING 12849
SWIDTH 1200 0
DWIDTH 12 0
BBX 8 10 2 -1
BITMAP
03
ED
59
4F
91
21
4E
11
11
0E
ENDCHAR
STARTCHAR AED8
ENCODING 12850
SWIDTH 1200 0
DWIDTH 12 0
BBX 9 11 1 -2
BITMAP
0100
0280
FA80
4A80
5280
9E80
2280
0280
0280
0080
0080
ENDCHAR
STARTCHAR AED9
ENCODING 12851
SWIDTH 1200 0
DWIDTH 12 0
BBX 9 11 1 -2
BITMAP
0180
0280
7A80
4A80
9680
2280
0280
3F80
0080
0080
0080
ENDCHAR
STARTCHAR AEDC
ENCODING 12852
SWIDTH 1200 0
DWIDTH 12 0
BBX 9 10 1 -1
BITMAP
0180
0280
FA80
4A80
5680
A280
0280
1280
1000
1F80
ENDCHAR
STARTCHAR AEE8
ENCODING 12853
SWIDTH 1200 0
DWIDTH 12 0
BBX 9 11 1 -2
BITMAP
0180
0280
3A80
2A80
5680
9280
2F80
0880
0880
0F80
0800
ENDCHAR
STARTCHAR AEEB
ENCODING 12854
SWIDTH 1200 0
DWIDTH 12 0
BBX 9 11 1 -2
BITMAP
0180
0280
7A80
4A80
9680
2280
0480
0400
0A00
1180
2000
ENDCHAR
STARTCHAR AEED
ENCODING 12855
SWIDTH 1200 0
DWIDTH 12 0
BBX 9 10 1 -1
BITMAP
0180
0280
7A80
4A80
9680
2280
0780
0880
0880
0700
ENDCHAR
STARTCHAR AEF4
ENCODING 12856
SWIDTH 1200 0
DWIDTH 12 0
BBX 9 10 1 -1
BITMAP
0180
0080
7C80
2780
2480
4880
9380
0080
0080
0080
ENDCHAR
STARTCHAR AEF8
ENCODING 12857
SWIDTH 1200 0
DWIDTH 12 0
BBX 9 10 2 -1
BITMAP
0300
0100
7900
5700
9100
2700
4100
2100
2000
3F80
ENDCHAR
STARTCHAR AEFC
ENCODING 12858
SWIDTH 1200 0
DWIDTH 12 0
BBX 10 10 1 -1
BITMAP
0080
7680
1A80
2580
4B80
9080
1F80
0100
0F80
0FC0
ENDCHAR
STARTCHAR AF07
ENCODING 12859
SWIDTH 1200 0
DWIDTH 12 0
BBX 8 11 2 -2
BITMAP
03
A5
7D
4B
4F
91
09
08
0E
31
40
ENDCHAR
STARTCHAR AF08
ENCODING 12860
SWIDTH 1200 0
DWIDTH 12 0
BBX 8 10 2 -1
BITMAP
03
FD
4B
4D
91
27
22
12
32
4D
ENDCHAR
STARTCHAR AF0D
ENCODING 12861
SWIDTH 1200 0
DWIDTH 12 0
BBX 8 10 2 -1
BITMAP
03
FD
4F
91
27
01
3F
20
3E
3F
ENDCHAR
STARTCHAR AF10
ENCODING 12862
SWIDTH 1200 0
DWIDTH 12 0
BBX 9 11 1 -2
BITMAP
0100
0280
FA80
4A80
5680
9E80
2280
0280
0280
0080
0080
ENDCHAR
STARTCHAR AF2C
ENCODING 12863
SWIDTH 1200 0
DWIDTH 12 0
BBX 11 8 0 0
BITMAP
7FC0
0880
1080
1080
0C00
0400
0400
FFE0
ENDCHAR
STARTCHAR AF2D
ENCODING 12864
SWIDTH 1200 0
DWIDTH 12 0
BBX 10 10 1 -2
BITMAP
7780
1100
0900
0800
FFC0
7F00
0100
0100
0100
0100
ENDCHAR
STARTCHAR AF30
ENCODING 12865
SWIDTH 1200 0
DWIDTH 12 0
BBX 10 9 1 -1
BITMAP
F780
1100
2500
0400
FFC0
0000
2000
2000
1F80
ENDCHAR
STARTCHAR AF32
ENCODING 12866
SWIDTH 1200 0
DWIDTH 12 0
BBX 10 9 1 -1
BITMAP
3780
1080
1D00
0500
FFC0
6080
2700
2480
3500
ENDCHAR
STARTCHAR AF34
ENCODING 12867
SWIDTH 1200 0
DWIDTH 12 0
BBX 10 10 1 -2
BITMAP
7780
1100
0500
0400
FFC0
7F00
0200
3F00
2000
3F00
ENDCHAR
STARTCHAR AF3C
ENCODING 12868
SWIDTH 1200 0
DWIDTH 12 0
BBX 10 11 1 -2
BITMAP
0780
3100
1100
0400
0800
FFC0
1F00
1100
1100
1F00
1000
ENDCHAR
STARTCHAR AF3D
ENCODING 12869
SWIDTH 1200 0
DWIDTH 12 0
BBX 10 10 1 -2
BITMAP
3780
1100
1500
0400
FFC0
1100
1F00
1100
1F00
1100
ENDCHAR
STARTCHAR AF3F
ENCODING 12870
SWIDTH 1200 0
DWIDTH 12 0
BBX 11 9 1 -1
BITMAP
3380
1080
0500
0500
FFE0
0C00
0400
0B00
3080
ENDCHAR
STARTCHAR AF41
ENCODING 12871
SWIDTH 1200 0
DWIDTH 12 0
BBX 11 9 1 -1
BITMAP
0780
3100
1500
0400
FFE0
0400
1B00
1100
0E00
ENDCHAR
STARTCHAR AF42
ENCODING 12872
SWIDTH 1200 0
DWIDTH 12 0
BBX 10 9 1 -1
BITMAP
7F80
1C80
1500
FFC0
0000
3F00
0400
0A00
3100
ENDCHAR
STARTCHAR AF43
ENCODING 12873
SWIDTH 1200 0
DWIDTH 12 0
BBX 10 11 1 -2
BITMAP
7000
1380
1900
0500
FFC0
0000
0C00
7F80
0C00
1300
2080
ENDCHAR
STARTCHAR AF48
ENCODING 12874
SWIDTH 1200 0
DWIDTH 12 0
BBX 11 11 1 -2
BITMAP
0300
0100
6500
2500
3500
11E0
1700
E900
0100
0100
0100
ENDCHAR
STARTCHAR AF49
ENCODING 12875
SWIDTH 1200 0
DWIDTH 12 0
BBX 9 11 2 -2
BITMAP
0600
0600
4A00
4A00
5B80
1200
EE00
FE00
0200
0200
0200
ENDCHAR
STARTCHAR AF50
ENCODING 12876
SWIDTH 1200 0
DWIDTH 12 0
BBX 9 10 1 -1
BITMAP
0300
1F00
2500
2D00
0D80
FB00
3F00
0200
1F00
1F80
ENDCHAR
STARTCHAR AF5C
ENCODING 12877
SWIDTH 1200 0
DWIDTH 12 0
BBX 10 10 1 -1
BITMAP
0300
0F00
2500
3D00
0DC0
BB00
4000
0900
1900
2680
ENDCHAR
STARTCHAR AF5D
ENCODING 12878
SWIDTH 1200 0
DWIDTH 12 0
BBX 9 11 2 -2
BITMAP
0600
0600
4A00
7A00
5B80
1E00
E200
0800
1600
1200
0C00
ENDCHAR
STARTCHAR AF64
ENCODING 12879
SWIDTH 1200 0
DWIDTH 12 0
BBX 8 11 2 -2
BITMAP
03
05
DD
55
75
37
3D
C5
05
05
01
ENDCHAR
STARTCHAR AF65
ENCODING 12880
SWIDTH 1200 0
DWIDTH 12 0
BBX 9 11 1 -2
BITMAP
0680
0280
FE80
5A80
1B80
1680
6A80
3F80
0080
0080
0080
ENDCHAR
STARTCHAR AF79
ENCODING 12881
SWIDTH 1200 0
DWIDTH 12 0
BBX 8 11 2 -2
BITMAP
0D
05
FD
55
27
3D
C5
0E
11
11
0E
ENDCHAR
STARTCHAR AF80
ENCODING 12882
SWIDTH 1200 0
DWIDTH 12 0
BBX 8 11 2 -2
BITMAP
03
01
CD
49
69
29
3D
C1
01
01
01
ENDCHAR
STARTCHAR AF84
ENCODING 12883
SWIDTH 1200 0
DWIDTH 12 0
BBX 9 10 2 -1
BITMAP
0300
0100
ED00
4900
5100
5700
E900
1100
1000
1F80
ENDCHAR
STARTCHAR AF88
ENCODING 12884
SWIDTH 1200 0
DWIDTH 12 0
BBX 9 11 2 -2
BITMAP
0300
FD00
2500
5900
5900
F700
3F00
0100
3F00
1000
1F80
ENDCHAR
STARTCHAR AF90
ENCODING 12885
SWIDTH 1200 0
DWIDTH 12 0
BBX 9 10 1 -1
BITMAP
0180
0280
3680
2480
0880
9F80
6000
1F00
1100
1F00
ENDCHAR
STARTCHAR AF91
ENCODING 12886
SWIDTH 1200 0
DWIDTH 12 0
BBX 9 11 1 -2
BITMAP
0180
1E80
3280
1C80
2C80
FB80
0880
0F80
0880
0F80
0080
ENDCHAR
STARTCHAR AF95
ENCODING 12887
SWIDTH 1200 0
DWIDTH 12 0
BBX 8 11 2 -2
BITMAP
02
01
6D
49
11
7F
81
0E
11
11
0E
ENDCHAR
STARTCHAR AF9C
ENCODING 12888
SWIDTH 1200 0
DWIDTH 12 0
BBX 11 8 1 0
BITMAP
F380
1040
2080
2080
5280
5200
1200
FFE0
ENDCHAR
STARTCHAR AFB8
ENCODING 12889
SWIDTH 1200 0
DWIDTH 12 0
BBX 11 10 1 -2
BITMAP
3B80
1080
1100
0100
FFE0
0400
0400
0400
0400
0400
ENDCHAR
STARTCHAR AFB9
ENCODING 12890
SWIDTH 1200 0
DWIDTH 12 0
BBX 11 11 1 -2
BITMAP
0380
3900
1100
1000
FFE0
0400
0400
3F00
0100
0100
0100
ENDCHAR
STARTCHAR AFBC
ENCODING 12891
SWIDTH 1200 0
DWIDTH 12 0
BBX 11 10 1 -1
BITMAP
7B80
1100
1100
1000
FFE0
0400
6400
2400
2400
3F80
ENDCHAR
STARTCHAR AFC0
ENCODING 12892
SWIDTH 1200 0
DWIDTH 12 0
BBX 11 10 0 -1
BITMAP
3BC0
0880
0880
0800
FFE0
0400
3F80
0100
1F00
1F80
ENDCHAR
STARTCHAR AFC7
ENCODING 12893
SWIDTH 1200 0
DWIDTH 12 0
BBX 10 11 1 -2
BITMAP
0780
3100
1100
1000
FFC0
0300
1880
4F00
3500
2D00
1200
ENDCHAR
STARTCHAR AFC8
ENCODING 12894
SWIDTH 1200 0
DWIDTH 12 0
BBX 11 11 1 -2
BITMAP
0380
3080
1000
1000
FFE0
0400
1F00
1100
1100
1F00
1000
ENDCHAR
STARTCHAR AFC9
ENCODING 12895
SWIDTH 1200 0
DWIDTH 12 0
BBX 10 11 1 -2
BITMAP
7800
1380
1100
1100
FF40
0880
1100
1F00
1100
1F00
1100
ENDCHAR
STARTCHAR AFCB
ENCODING 12896
SWIDTH 1200 0
DWIDTH 12 0
BBX 10 11 1 -2
BITMAP
7F80
1100
1100
2200
FFC0
0800
0800
0400
0C00
1300
6000
ENDCHAR
STARTCHAR AFCD
ENCODING 12897
SWIDTH 1200 0
DWIDTH 12 0
BBX 11 10 1 -1
BITMAP
7800
0980
1080
1080
FF60
0480
1A00
2100
3100
1E00
ENDCHAR
STARTCHAR AFCE
ENCODING 12898
SWIDTH 1200 0
DWIDTH 12 0
BBX 10 11 1 -2
BITMAP
7700
1080
1100
1100
FEC0
0500
3F80
0400
0A00
1180
2000
ENDCHAR
STARTCHAR AFD4
ENCODING 12899
SWIDTH 1200 0
DWIDTH 12 0
BBX 9 11 1 -2
BITMAP
0180
0080
6480
2480
0080
FC80
1780
1080
1080
0080
0080
ENDCHAR
STARTCHAR AFDC
ENCODING 12900
SWIDTH 1200 0
DWIDTH 12 0
BBX 9 11 1 -2
BITMAP
0180
5E80
2480
2480
F880
1380
3F80
0100
3F00
1000
1F80
ENDCHAR
STARTCHAR AFE8
ENCODING 12901
SWIDTH 1200 0
DWIDTH 12 0
BBX 9 10 1 -1
BITMAP
0180
6C80
2480
4480
F880
1380
0100
1100
2B00
4400
ENDCHAR
STARTCHAR AFE9
ENCODING 12902
SWIDTH 1200 0
DWIDTH 12 0
BBX 9 11 1 -2
BITMAP
0180
EE80
2480
2480
F880
1380
1080
0700
0880
0880
0700
ENDCHAR
STARTCHAR AFF0
ENCODING 12903
SWIDTH 1200 0
DWIDTH 12 0
BBX 9 11 1 -2
BITMAP
0180
0280
FA80
2A80
0A80
FA80
1E80
1280
1280
0280
0080
ENDCHAR
STARTCHAR AFF1
ENCODING 12904
SWIDTH 1200 0
DWIDTH 12 0
BBX 8 11 2 -2
BITMAP
03
05
F5
95
A5
D5
0D
7F
01
01
01
ENDCHAR
STARTCHAR AFF4
ENCODING 12905
SWIDTH 1200 0
DWIDTH 12 0
BBX 10 10 1 -1
BITMAP
0100
0280
7E80
2A80
2A80
F280
1E80
0A80
0880
0FC0
ENDCHAR
STARTCHAR AFF8
ENCODING 12906
SWIDTH 1200 0
DWIDTH 12 0
BBX 9 10 1 -1
BITMAP
0080
FE80
2A80
4A80
F280
2280
1F80
0080
0F80
0F80
ENDCHAR
STARTCHAR B000
ENCODING 12907
SWIDTH 1200 0
DWIDTH 12 0
BBX 9 11 1 -2
BITMAP
0100
0280
6A80
2A80
4A80
F280
0680
0F80
0880
0F00
0800
ENDCHAR
STARTCHAR B001
ENCODING 12908
SWIDTH 1200 0
DWIDTH 12 0
BBX 8 11 2 -2
BITMAP
01
05
D5
55
9D
ED
11
1F
11
1F
11
ENDCHAR
STARTCHAR B004
ENCODING 12909
SWIDTH 1200 0
DWIDTH 12 0
BBX 9 11 2 -2
BITMAP
0100
0500
D500
9500
AD00
D500
0900
1200
3200
4500
0080
ENDCHAR
STARTCHAR B00C
ENCODING 12910
SWIDTH 1200 0
DWIDTH 12 0
BBX 10 11 0 -2
BITMAP
00C0
0340
1240
1240
1240
FC40
0840
0840
0840
0040
0040
ENDCHAR
STARTCHAR B010
ENCODING 12911
SWIDTH 1200 0
DWIDTH 12 0
BBX 8 10 2 -1
BITMAP
03
FD
49
49
4F
B1
01
21
20
3F
ENDCHAR
STARTCHAR B014
ENCODING 12912
SWIDTH 1200 0
DWIDTH 12 0
BBX 8 10 2 -1
BITMAP
01
FD
29
49
F7
11
7E
02
3E
3F
ENDCHAR
STARTCHAR B01C
ENCODING 12913
SWIDTH 1200 0
DWIDTH 12 0
BBX 9 10 1 -1
BITMAP
0080
7E80
1280
2480
FF80
0880
0F80
0880
0900
0F80
ENDCHAR
STARTCHAR B01D
ENCODING 12914
SWIDTH 1200 0
DWIDTH 12 0
BBX 9 11 1 -2
BITMAP
0080
7E80
1280
1480
FB80
0880
0880
0F80
0880
0F80
0880
ENDCHAR
STARTCHAR B028
ENCODING 12915
SWIDTH 1200 0
DWIDTH 12 0
BBX 10 11 1 -2
BITMAP
7780
1100
1100
2100
1EC0
F300
1200
1200
1200
1200
0200
ENDCHAR
STARTCHAR B044
ENCODING 12916
SWIDTH 1200 0
DWIDTH 12 0
BBX 10 7 1 0
BITMAP
3380
1080
1100
1100
2100
0FC0
F800
ENDCHAR
STARTCHAR B045
ENCODING 12917
SWIDTH 1200 0
DWIDTH 12 0
BBX 9 10 2 -2
BITMAP
EF00
2200
4200
3F80
C000
FE00
0200
0200
0200
0200
ENDCHAR
STARTCHAR B048
ENCODING 12918
SWIDTH 1200 0
DWIDTH 12 0
BBX 10 9 1 -1
BITMAP
7780
1100
1100
0100
FFC0
6000
2000
2000
3F80
ENDCHAR
STARTCHAR B04A
ENCODING 12919
SWIDTH 1200 0
DWIDTH 12 0
BBX 9 10 2 -2
BITMAP
FF00
2100
2180
DE00
0E00
4000
4F00
4B00
6900
0600
ENDCHAR
STARTCHAR B04C
ENCODING 12920
SWIDTH 1200 0
DWIDTH 12 0
BBX 10 9 1 -1
BITMAP
7780
1080
1080
FFC0
0000
3F80
0100
1F00
1F80
ENDCHAR
STARTCHAR B04E
ENCODING 12921
SWIDTH 1200 0
DWIDTH 12 0
BBX 10 10 1 -2
BITMAP
7000
1380
2100
1FC0
E000
3B00
4D00
3500
3F00
0400
ENDCHAR
STARTCHAR B053
ENCODING 12922
SWIDTH 1200 0
DWIDTH 12 0
BBX 10 11 1 -2
BITMAP
7000
1380
1100
FF40
0080
0300
7E80
2500
4480
7480
0300
ENDCHAR
STARTCHAR B054
ENCODING 12923
SWIDTH 1200 0
DWIDTH 12 0
BBX 10 11 1 -2
BITMAP
3000
1380
1080
1100
FFC0
0000
1F00
1100
1100
1F00
1000
ENDCHAR
STARTCHAR B055
ENCODING 12924
SWIDTH 1200 0
DWIDTH 12 0
BBX 9 11 2 -2
BITMAP
2000
EF00
2100
4200
3F80
C600
2200
3E00
2200
3E00
2200
ENDCHAR
STARTCHAR B057
ENCODING 12925
SWIDTH 1200 0
DWIDTH 12 0
BBX 9 10 2 -1
BITMAP
F000
2700
2100
2200
0280
FD00
1800
1800
2400
4300
ENDCHAR
STARTCHAR B059
ENCODING 12926
SWIDTH 1200 0
DWIDTH 12 0
BBX 10 10 2 -1
BITMAP
9000
7700
2100
2100
3EC0
C900
3600
2200
2200
1C00
ENDCHAR
STARTCHAR B05D
ENCODING 13089
SWIDTH 1200 0
DWIDTH 12 0
BBX 10 9 1 -1
BITMAP
3380
1100
1000
FFC0
0000
7F00
3F00
2000
3F00
ENDCHAR
STARTCHAR B07C
ENCODING 13090
SWIDTH 1200 0
DWIDTH 12 0
BBX 8 11 2 -2
BITMAP
01
01
FD
25
49
89
91
21
01
01
01
ENDCHAR
STARTCHAR B07D
ENCODING 13091
SWIDTH 1200 0
DWIDTH 12 0
BBX 9 11 1 -2
BITMAP
0180
0080
7C80
2480
4880
9080
0000
3F80
0080
0080
0080
ENDCHAR
STARTCHAR B080
ENCODING 13092
SWIDTH 1200 0
DWIDTH 12 0
BBX 9 10 1 -1
BITMAP
0180
0080
7C80
2480
4880
9080
3080
1080
1000
1F80
ENDCHAR
STARTCHAR B084
ENCODING 13093
SWIDTH 1200 0
DWIDTH 12 0
BBX 9 10 2 -1
BITMAP
0300
0100
7D00
4900
8900
1100
3F00
0100
1F00
1F80
ENDCHAR
STARTCHAR B08C
ENCODING 13094
SWIDTH 1200 0
DWIDTH 12 0
BBX 8 11 2 -2
BITMAP
03
25
7D
49
91
11
3F
11
11
1F
10
ENDCHAR
STARTCHAR B08D
ENCODING 13095
SWIDTH 1200 0
DWIDTH 12 0
BBX 9 11 1 -2
BITMAP
0180
0080
7C80
2480
4880
9180
0880
0F80
0880
0F80
0880
ENDCHAR
STARTCHAR B08F
ENCODING 13096
SWIDTH 1200 0
DWIDTH 12 0
BBX 8 10 2 -1
BITMAP
03
01
F9
49
91
21
0D
08
16
21
ENDCHAR
STARTCHAR B091
ENCODING 13097
SWIDTH 1200 0
DWIDTH 12 0
BBX 9 11 1 -2
BITMAP
0180
0080
7E80
2480
4880
8880
1080
0700
0880
0880
0700
ENDCHAR
STARTCHAR B098
ENCODING 13098
SWIDTH 1200 0
DWIDTH 12 0
BBX 10 11 1 -2
BITMAP
0300
0100
C100
4100
4100
41C0
4D00
3100
0100
0100
0100
ENDCHAR
STARTCHAR B099
ENCODING 13099
SWIDTH 1200 0
DWIDTH 12 0
BBX 9 10 2 -1
BITMAP
0600
8200
8200
8680
FB00
0200
FE00
0200
0200
0200
ENDCHAR
STARTCHAR B09A
ENCODING 13100
SWIDTH 1200 0
DWIDTH 12 0
BBX 9 11 2 -2
BITMAP
0600
8200
8200
8680
FB00
0200
FE00
1200
1200
1200
0200
ENDCHAR
STARTCHAR B09C
ENCODING 13101
SWIDTH 1200 0
DWIDTH 12 0
BBX 10 10 1 -1
BITMAP
0300
8100
4100
4100
43C0
7D00
3100
1100
1000
1F80
ENDCHAR
STARTCHAR B09F
ENCODING 13102
SWIDTH 1200 0
DWIDTH 12 0
BBX 8 10 2 -1
BITMAP
06
02
82
82
9F
62
7F
20
20
3F
ENDCHAR
STARTCHAR B0A0
ENCODING 13103
SWIDTH 1200 0
DWIDTH 12 0
BBX 9 10 2 -1
BITMAP
0200
8200
8200
8780
FA00
0000
7E00
0200
3E00
3F00
ENDCHAR
STARTCHAR B0A1
ENCODING 13104
SWIDTH 1200 0
DWIDTH 12 0
BBX 9 10 2 -1
BITMAP
0600
0200
8200
8680
FB00
0000
7E00
B200
4200
7200
ENDCHAR
STARTCHAR B0A2
ENCODING 13105
SWIDTH 1200 0
DWIDTH 12 0
BBX 10 11 1 -2
BITMAP
0300
8100
4100
41C0
7F00
0000
3B00
0D00
3500
2F00
1400
ENDCHAR
STARTCHAR B0A8
ENCODING 13106
SWIDTH 1200 0
DWIDTH 12 0
BBX 9 11 2 -2
BITMAP
0200
8200
8200
8680
FB00
0200
3E00
2200
2200
3E00
2000
ENDCHAR
STARTCHAR B0A9
ENCODING 13107
SWIDTH 1200 0
DWIDTH 12 0
BBX 9 11 2 -2
BITMAP
0600
0200
8200
8280
8F00
F600
2200
3E00
2200
3E00
0200
ENDCHAR
STARTCHAR B0AB
ENCODING 13108
SWIDTH 1200 0
DWIDTH 12 0
BBX 9 10 2 -1
BITMAP
0600
0200
8200
8200
8F80
F200
0A00
0800
1400
2300
ENDCHAR
STARTCHAR B0AC
ENCODING 13109
SWIDTH 1200 0
DWIDTH 12 0
BBX 8 11 2 -2
BITMAP
06
02
82
82
8F
F2
22
22
36
49
90
ENDCHAR
STARTCHAR B0AD
ENCODING 13110
SWIDTH 1200 0
DWIDTH 12 0
BBX 8 11 2 -2
BITMAP
06
02
82
82
87
FA
08
34
22
22
1C
ENDCHAR
STARTCHAR B0AE
ENCODING 13111
SWIDTH 1200 0
DWIDTH 12 0
BBX 10 11 1 -2
BITMAP
0300
8100
4100
4140
5D80
2100
3F80
0400
0A00
1180
6000
ENDCHAR
STARTCHAR B0AF
ENCODING 13112
SWIDTH 1200 0
DWIDTH 12 0
BBX 9 11 2 -2
BITMAP
0600
8200
8200
8F80
F200
0E00
7F00
0800
1400
2300
4000
ENDCHAR
STARTCHAR B0B1
ENCODING 13113
SWIDTH 1200 0
DWIDTH 12 0
BBX 9 10 2 -1
BITMAP
0600
8200
8200
8780
FA00
0000
3E00
3F00
2000
3F00
ENDCHAR
STARTCHAR B0B3
ENCODING 13114
SWIDTH 1200 0
DWIDTH 12 0
BBX 10 11 1 -2
BITMAP
0300
C100
4100
41C0
7F00
0600
3FC0
0E00
1100
1100
0E00
ENDCHAR
STARTCHAR B0B4
ENCODING 13115
SWIDTH 1200 0
DWIDTH 12 0
BBX 9 11 1 -2
BITMAP
0880
0480
C480
4480
4480
4780
4480
7C80
0480
0480
0080
ENDCHAR
STARTCHAR B0B5
ENCODING 13116
SWIDTH 1200 0
DWIDTH 12 0
BBX 8 10 2 -1
BITMAP
03
09
89
89
8F
B9
FF
01
01
01
ENDCHAR
STARTCHAR B0B8
ENCODING 13117
SWIDTH 1200 0
DWIDTH 12 0
BBX 8 11 2 -1
BITMAP
02
0D
05
85
85
9F
E5
45
25
20
3F
ENDCHAR
STARTCHAR B0BC
ENCODING 13118
SWIDTH 1200 0
DWIDTH 12 0
BBX 9 11 2 -1
BITMAP
0200
0900
8900
8900
8F00
F900
0800
7E00
7E00
2000
3F80
ENDCHAR
STARTCHAR B0C4
ENCODING 13119
SWIDTH 1200 0
DWIDTH 12 0
BBX 8 11 2 -2
BITMAP
01
09
89
89
8F
B9
49
3F
21
22
3C
ENDCHAR
STARTCHAR B0C5
ENCODING 13120
SWIDTH 1200 0
DWIDTH 12 0
BBX 8 11 2 -2
BITMAP
03
09
89
89
8F
9B
E9
3F
21
3F
21
ENDCHAR
STARTCHAR B0C7
ENCODING 13121
SWIDTH 1200 0
DWIDTH 12 0
BBX 8 10 2 -1
BITMAP
09
05
85
85
8F
B5
4D
08
0E
31
ENDCHAR
STARTCHAR B0C8
ENCODING 13122
SWIDTH 1200 0
DWIDTH 12 0
BBX 9 10 2 -1
BITMAP
0900
0500
8500
8500
8700
BD00
6700
2200
3D00
4080
ENDCHAR
STARTCHAR B0C9
ENCODING 13123
SWIDTH 1200 0
DWIDTH 12 0
BBX 8 11 2 -2
BITMAP
03
09
89
89
8F
99
ED
0A
11
11
0E
ENDCHAR
STARTCHAR B0D0
ENCODING 13124
SWIDTH 1200 0
DWIDTH 12 0
BBX 10 11 1 -2
BITMAP
0300
0100
C100
4140
4180
4100
5F40
2180
0100
0100
0100
ENDCHAR
STARTCHAR B0D1
ENCODING 13125
SWIDTH 1200 0
DWIDTH 12 0
BBX 9 11 2 -2
BITMAP
0300
0100
8100
8180
8F00
7180
7E00
0200
0200
0200
0200
ENDCHAR
STARTCHAR B0D4
ENCODING 13126
SWIDTH 1200 0
DWIDTH 12 0
BBX 9 10 1 -1
BITMAP
0300
0100
C100
4180
4100
5F00
2180
1100
1000
1F80
ENDCHAR
STARTCHAR B0D8
ENCODING 13127
SWIDTH 1200 0
DWIDTH 12 0
BBX 10 10 2 -1
BITMAP
0100
0100
8140
8180
9F00
6180
7F00
0200
3F00
3F00
ENDCHAR
STARTCHAR B0E0
ENCODING 13128
SWIDTH 1200 0
DWIDTH 12 0
BBX 9 11 2 -2
BITMAP
0200
0200
8280
8300
8E00
F380
3E00
2200
2200
3E00
2000
ENDCHAR
STARTCHAR B0E5
ENCODING 13129
SWIDTH 1200 0
DWIDTH 12 0
BBX 9 11 2 -2
BITMAP
0600
0200
8200
8300
8600
FB80
0200
0C00
1200
1200
0C00
ENDCHAR
STARTCHAR B108
ENCODING 13130
SWIDTH 1200 0
DWIDTH 12 0
BBX 9 11 1 -2
BITMAP
0180
0080
C080
4080
4780
4080
4480
7880
0080
0080
0080
ENDCHAR
STARTCHAR B109
ENCODING 13131
SWIDTH 1200 0
DWIDTH 12 0
BBX 8 10 2 -1
BITMAP
03
01
81
87
81
F9
7F
01
01
01
ENDCHAR
STARTCHAR B10B
ENCODING 13132
SWIDTH 1200 0
DWIDTH 12 0
BBX 10 10 1 -1
BITMAP
0180
8080
4780
4080
4C80
3080
7900
0900
0A80
0840
ENDCHAR
STARTCHAR B10C
ENCODING 13133
SWIDTH 1200 0
DWIDTH 12 0
BBX 10 10 1 -1
BITMAP
0180
C080
4080
4780
4280
7C80
0080
1080
1000
1FC0
ENDCHAR
STARTCHAR B110
ENCODING 13134
SWIDTH 1200 0
DWIDTH 12 0
BBX 9 10 1 -1
BITMAP
0080
8080
4780
4080
4880
3F80
0080
3F80
1000
1F80
ENDCHAR
STARTCHAR B112
ENCODING 13135
SWIDTH 1200 0
DWIDTH 12 0
BBX 8 11 2 -2
BITMAP
03
01
8F
81
99
61
7F
15
65
5F
24
ENDCHAR
STARTCHAR B113
ENCODING 13136
SWIDTH 1200 0
DWIDTH 12 0
BBX 9 11 1 -2
BITMAP
0180
C080
4380
4080
7880
0100
3C80
0F80
3480
3F80
0480
ENDCHAR
STARTCHAR B118
ENCODING 13137
SWIDTH 1200 0
DWIDTH 12 0
BBX 9 11 1 -2
BITMAP
0080
8080
4780
4080
4480
7880
1F80
1180
1180
1F80
1000
ENDCHAR
STARTCHAR B119
ENCODING 13138
SWIDTH 1200 0
DWIDTH 12 0
BBX 9 10 1 -1
BITMAP
0180
8080
4780
4080
4280
7D80
0880
0F80
0880
0F80
ENDCHAR
STARTCHAR B11B
ENCODING 13139
SWIDTH 1200 0
DWIDTH 12 0
BBX 9 10 1 -1
BITMAP
0180
8080
4780
4080
4280
7C80
0480
0400
0B00
1080
ENDCHAR
STARTCHAR B11C
ENCODING 13140
SWIDTH 1200 0
DWIDTH 12 0
BBX 10 10 1 -1
BITMAP
0180
C080
4780
4080
4480
7880
1100
0900
1980
2240
ENDCHAR
STARTCHAR B11D
ENCODING 13141
SWIDTH 1200 0
DWIDTH 12 0
BBX 9 11 1 -2
BITMAP
0180
8080
4780
4080
4480
7880
0280
0500
0880
0880
0700
ENDCHAR
STARTCHAR B123
ENCODING 13142
SWIDTH 1200 0
DWIDTH 12 0
BBX 9 11 1 -2
BITMAP
0180
C080
4780
4080
7880
0600
0000
3F00
0B00
0900
0E00
ENDCHAR
STARTCHAR B124
ENCODING 13143
SWIDTH 1200 0
DWIDTH 12 0
BBX 9 10 1 -1
BITMAP
0180
0280
8280
4280
4E80
4280
4A80
7280
0280
0280
ENDCHAR
STARTCHAR B125
ENCODING 13144
SWIDTH 1200 0
DWIDTH 12 0
BBX 8 11 2 -2
BITMAP
03
05
85
9D
85
E5
07
39
01
01
01
ENDCHAR
STARTCHAR B128
ENCODING 13145
SWIDTH 1200 0
DWIDTH 12 0
BBX 10 10 1 -1
BITMAP
0180
0280
C280
4E80
4280
5A80
3280
0880
0800
0FC0
ENDCHAR
STARTCHAR B12C
ENCODING 13146
SWIDTH 1200 0
DWIDTH 12 0
BBX 8 10 2 -1
BITMAP
03
05
85
9D
85
E5
7E
02
3E
3F
ENDCHAR
STARTCHAR B134
ENCODING 13147
SWIDTH 1200 0
DWIDTH 12 0
BBX 8 10 2 -1
BITMAP
03
05
85
9D
85
E5
04
1F
11
1E
ENDCHAR
STARTCHAR B135
ENCODING 13148
SWIDTH 1200 0
DWIDTH 12 0
BBX 8 11 2 -2
BITMAP
03
05
85
9D
85
E5
00
11
1F
1F
01
ENDCHAR
STARTCHAR B137
ENCODING 13149
SWIDTH 1200 0
DWIDTH 12 0
BBX 9 10 1 -1
BITMAP
0180
0280
C280
4E80
4280
4A80
7480
0400
0600
1980
ENDCHAR
STARTCHAR B138
ENCODING 13150
SWIDTH 1200 0
DWIDTH 12 0
BBX 9 10 2 -1
BITMAP
0300
0500
8500
9D00
8500
E500
0600
1200
3600
4180
ENDCHAR
STARTCHAR B139
ENCODING 13151
SWIDTH 1200 0
DWIDTH 12 0
BBX 8 11 2 -2
BITMAP
03
05
85
9D
85
E5
01
04
1B
11
0E
ENDCHAR
STARTCHAR B140
ENCODING 13152
SWIDTH 1200 0
DWIDTH 12 0
BBX 8 10 2 -1
BITMAP
03
01
8B
85
81
87
89
F1
01
01
ENDCHAR
STARTCHAR B141
ENCODING 13153
SWIDTH 1200 0
DWIDTH 12 0
BBX 9 10 1 -1
BITMAP
0180
C080
4380
4080
4F80
3080
3F80
0080
0080
0080
ENDCHAR
STARTCHAR B144
ENCODING 13154
SWIDTH 1200 0
DWIDTH 12 0
BBX 9 10 2 -1
BITMAP
0300
0100
8F00
8100
8900
F700
0100
2100
2000
3F80
ENDCHAR
STARTCHAR B148
ENCODING 13155
SWIDTH 1200 0
DWIDTH 12 0
BBX 8 10 2 -1
BITMAP
01
01
8F
81
8F
E1
7E
02
3E
3F
ENDCHAR
STARTCHAR B150
ENCODING 13156
SWIDTH 1200 0
DWIDTH 12 0
BBX 8 11 2 -2
BITMAP
01
01
8F
81
91
E7
00
3E
22
3E
20
ENDCHAR
STARTCHAR B151
ENCODING 13157
SWIDTH 1200 0
DWIDTH 12 0
BBX 8 10 2 -1
BITMAP
03
01
8F
81
8F
E1
02
11
1F
1F
ENDCHAR
STARTCHAR B154
ENCODING 13158
SWIDTH 1200 0
DWIDTH 12 0
BBX 9 10 2 -1
BITMAP
0300
0100
8700
8100
9100
E700
2200
1200
3600
4D80
ENDCHAR
STARTCHAR B155
ENCODING 13159
SWIDTH 1200 0
DWIDTH 12 0
BBX 8 11 2 -2
BITMAP
03
01
8F
81
91
E7
01
1E
11
11
0E
ENDCHAR
STARTCHAR B158
ENCODING 13160
SWIDTH 1200 0
DWIDTH 12 0
BBX 8 11 2 -2
BITMAP
03
01
8F
81
8F
E1
01
7F
02
7E
02
ENDCHAR
STARTCHAR B15C
ENCODING 13161
SWIDTH 1200 0
DWIDTH 12 0
BBX 9 10 1 -1
BITMAP
0180
0280
C280
4E80
4280
4E80
4A80
3280
0280
0280
ENDCHAR
STARTCHAR B160
ENCODING 13162
SWIDTH 1200 0
DWIDTH 12 0
BBX 10 11 1 -2
BITMAP
0180
0680
8280
4E80
5E80
4A80
7280
1A80
0800
0800
07C0
ENDCHAR
STARTCHAR B178
ENCODING 13163
SWIDTH 1200 0
DWIDTH 12 0
BBX 11 8 1 0
BITMAP
2000
2000
2000
3F80
0000
0400
0400
FFE0
ENDCHAR
STARTCHAR B179
ENCODING 13164
SWIDTH 1200 0
DWIDTH 12 0
BBX 11 10 1 -2
BITMAP
2000
2000
1F80
0400
FFE0
0000
7F00
0100
0100
0100
ENDCHAR
STARTCHAR B17C
ENCODING 13165
SWIDTH 1200 0
DWIDTH 12 0
BBX 11 9 1 -1
BITMAP
2000
2000
1F80
0400
FFE0
0000
2000
2000
3F80
ENDCHAR
STARTCHAR B180
ENCODING 13166
SWIDTH 1200 0
DWIDTH 12 0
BBX 11 9 1 -1
BITMAP
2000
2000
1F80
FFE0
0000
7F00
0100
3F00
3F80
ENDCHAR
STARTCHAR B182
ENCODING 13167
SWIDTH 1200 0
DWIDTH 12 0
BBX 10 9 1 -1
BITMAP
2000
2000
1F80
FFC0
0000
3F80
7D00
2500
1F00
ENDCHAR
STARTCHAR B188
ENCODING 13168
SWIDTH 1200 0
DWIDTH 12 0
BBX 10 10 1 -2
BITMAP
2000
2000
1F80
0400
FFC0
0000
1F00
1100
1F00
1000
ENDCHAR
STARTCHAR B189
ENCODING 13169
SWIDTH 1200 0
DWIDTH 12 0
BBX 10 11 1 -2
BITMAP
2000
2000
1F80
0400
0400
FFC0
1100
1F00
1100
1F00
0100
ENDCHAR
STARTCHAR B18B
ENCODING 13170
SWIDTH 1200 0
DWIDTH 12 0
BBX 10 11 1 -2
BITMAP
4000
2000
2000
1F80
0800
FFC0
0800
0800
0E00
1100
2000
ENDCHAR
STARTCHAR B18D
ENCODING 13171
SWIDTH 1200 0
DWIDTH 12 0
BBX 11 10 1 -1
BITMAP
6000
2000
2000
1F80
0400
FFE0
1F00
1100
1100
0E00
ENDCHAR
STARTCHAR B192
ENCODING 13172
SWIDTH 1200 0
DWIDTH 12 0
BBX 11 10 1 -1
BITMAP
2000
2000
1F80
0400
0400
FFE0
3F00
0200
1200
7F80
ENDCHAR
STARTCHAR B193
ENCODING 13173
SWIDTH 1200 0
DWIDTH 12 0
BBX 10 10 1 -1
BITMAP
6000
2000
3F80
0400
FFC0
0C00
0000
7F80
1200
1E00
ENDCHAR
STARTCHAR B194
ENCODING 13174
SWIDTH 1200 0
DWIDTH 12 0
BBX 9 10 2 -1
BITMAP
0600
0200
8200
8200
7A00
1380
1E00
E200
0200
0200
ENDCHAR
STARTCHAR B198
ENCODING 13175
SWIDTH 1200 0
DWIDTH 12 0
BBX 10 10 1 -1
BITMAP
0300
8100
4100
4D00
3140
1F80
6100
1100
1000
1F80
ENDCHAR
STARTCHAR B19C
ENCODING 13176
SWIDTH 1200 0
DWIDTH 12 0
BBX 9 11 1 -2
BITMAP
0100
4100
4100
3900
1180
EF00
3F00
0100
3F00
1000
1F80
ENDCHAR
STARTCHAR B1A8
ENCODING 13177
SWIDTH 1200 0
DWIDTH 12 0
BBX 9 11 2 -2
BITMAP
0600
4200
4600
7A00
1380
1600
E800
1200
3600
4900
1000
ENDCHAR
STARTCHAR B1CC
ENCODING 13178
SWIDTH 1200 0
DWIDTH 12 0
BBX 9 10 1 -1
BITMAP
0180
8080
4080
4080
7E80
1080
1280
EC80
0080
0080
ENDCHAR
STARTCHAR B1D0
ENCODING 13179
SWIDTH 1200 0
DWIDTH 12 0
BBX 8 10 2 -1
BITMAP
03
81
41
41
39
13
ED
21
20
3F
ENDCHAR
STARTCHAR B1D4
ENCODING 13180
SWIDTH 1200 0
DWIDTH 12 0
BBX 9 10 1 -1
BITMAP
0180
C080
4080
7C80
1180
FE80
3F00
0100
1F00
1F80
ENDCHAR
STARTCHAR B1DC
ENCODING 13181
SWIDTH 1200 0
DWIDTH 12 0
BBX 8 11 2 -2
BITMAP
03
C1
41
45
39
11
FF
3F
23
3E
20
ENDCHAR
STARTCHAR B1DD
ENCODING 13182
SWIDTH 1200 0
DWIDTH 12 0
BBX 9 11 1 -2
BITMAP
0180
6080
2080
2E80
1880
FF80
0880
0F80
0880
0F80
0880
ENDCHAR
STARTCHAR B1DF
ENCODING 13345
SWIDTH 1200 0
DWIDTH 12 0
BBX 8 11 2 -2
BITMAP
03
C1
41
4D
31
1F
E1
04
0C
13
20
ENDCHAR
STARTCHAR B1E8
ENCODING 13346
SWIDTH 1200 0
DWIDTH 12 0
BBX 10 8 1 0
BITMAP
6000
2000
2000
3F80
0000
1000
1200
FFC0
ENDCHAR
STARTCHAR B1E9
ENCODING 13347
SWIDTH 1200 0
DWIDTH 12 0
BBX 10 10 1 -1
BITMAP
2000
2000
3F80
1200
FFC0
0000
7F00
0100
0100
0100
ENDCHAR
STARTCHAR B1EC
ENCODING 13348
SWIDTH 1200 0
DWIDTH 12 0
BBX 11 10 1 -1
BITMAP
4000
2000
2000
3F00
1200
FFE0
0000
2000
2000
3F80
ENDCHAR
STARTCHAR B1F0
ENCODING 13349
SWIDTH 1200 0
DWIDTH 12 0
BBX 11 9 1 -1
BITMAP
2000
2780
1E00
FFE0
0000
7F00
0100
3F00
3F80
ENDCHAR
STARTCHAR B1F9
ENCODING 13350
SWIDTH 1200 0
DWIDTH 12 0
BBX 10 10 1 -2
BITMAP
2000
2000
3F80
1200
FFC0
1100
1F00
1100
1F00
1100
ENDCHAR
STARTCHAR B1FB
ENCODING 13351
SWIDTH 1200 0
DWIDTH 12 0
BBX 10 10 1 -1
BITMAP
6000
2000
2000
1F80
1200
FEC0
0900
0800
0E00
3100
ENDCHAR
STARTCHAR B1FD
ENCODING 13352
SWIDTH 1200 0
DWIDTH 12 0
BBX 10 10 1 -2
BITMAP
2000
2000
1F00
1400
FCC0
0B00
3600
2200
2200
1C00
ENDCHAR
STARTCHAR B204
ENCODING 13353
SWIDTH 1200 0
DWIDTH 12 0
BBX 11 11 1 -2
BITMAP
4000
2000
2000
3F80
0000
FFE0
0400
0400
0400
0400
0400
ENDCHAR
STARTCHAR B205
ENCODING 13354
SWIDTH 1200 0
DWIDTH 12 0
BBX 11 10 1 -1
BITMAP
6000
2000
3F80
0000
FFE0
0400
0400
1B00
0100
0100
ENDCHAR
STARTCHAR B208
ENCODING 13355
SWIDTH 1200 0
DWIDTH 12 0
BBX 11 10 1 -1
BITMAP
6000
2000
3F80
0000
0000
FFE0
4400
2400
2400
3F80
ENDCHAR
STARTCHAR B20B
ENCODING 13356
SWIDTH 1200 0
DWIDTH 12 0
BBX 10 9 1 -1
BITMAP
6000
2000
3F80
FFC0
0800
0000
3F00
2000
3F00
ENDCHAR
STARTCHAR B20C
ENCODING 13357
SWIDTH 1200 0
DWIDTH 12 0
BBX 10 10 1 -1
BITMAP
6000
2000
3F80
0000
FFC0
0800
3F00
0200
3E00
3F00
ENDCHAR
STARTCHAR B214
ENCODING 13358
SWIDTH 1200 0
DWIDTH 12 0
BBX 11 10 1 -1
BITMAP
6000
2000
3F80
0000
FFE0
0400
0400
3F00
2300
3F00
ENDCHAR
STARTCHAR B215
ENCODING 13359
SWIDTH 1200 0
DWIDTH 12 0
BBX 10 11 1 -2
BITMAP
6000
2000
2000
3F80
FFC0
0800
2100
3F00
2100
3F00
2100
ENDCHAR
STARTCHAR B217
ENCODING 13360
SWIDTH 1200 0
DWIDTH 12 0
BBX 10 10 1 -2
BITMAP
6000
2000
3F80
0000
FFC0
0800
0800
0C00
1300
2080
ENDCHAR
STARTCHAR B219
ENCODING 13361
SWIDTH 1200 0
DWIDTH 12 0
BBX 10 9 1 -1
BITMAP
2000
2000
3F80
0000
FFC0
0800
1400
1200
0E00
ENDCHAR
STARTCHAR B220
ENCODING 13362
SWIDTH 1200 0
DWIDTH 12 0
BBX 9 10 1 -1
BITMAP
0180
4080
4080
7C80
0080
1C80
F080
1380
1080
1080
ENDCHAR
STARTCHAR B234
ENCODING 13363
SWIDTH 1200 0
DWIDTH 12 0
BBX 9 10 2 -1
BITMAP
0300
8100
8100
7900
0500
FF00
2100
1100
3300
4C80
ENDCHAR
STARTCHAR B23C
ENCODING 13364
SWIDTH 1200 0
DWIDTH 12 0
BBX 8 10 2 -1
BITMAP
03
05
85
85
95
65
F5
2D
25
05
ENDCHAR
STARTCHAR B258
ENCODING 13365
SWIDTH 1200 0
DWIDTH 12 0
BBX 9 10 1 -1
BITMAP
0180
C080
4080
4480
3880
0180
7E80
0880
0880
0880
ENDCHAR
STARTCHAR B25C
ENCODING 13366
SWIDTH 1200 0
DWIDTH 12 0
BBX 10 10 1 -1
BITMAP
0180
2080
2080
3E80
0080
FF80
0080
0880
0800
0FC0
ENDCHAR
STARTCHAR B260
ENCODING 13367
SWIDTH 1200 0
DWIDTH 12 0
BBX 10 10 1 -1
BITMAP
0080
6080
4080
3C80
FB80
0880
1F80
0080
0F80
0FC0
ENDCHAR
STARTCHAR B268
ENCODING 13368
SWIDTH 1200 0
DWIDTH 12 0
BBX 8 10 2 -1
BITMAP
03
41
41
7D
07
F9
01
1F
11
1E
ENDCHAR
STARTCHAR B269
ENCODING 13369
SWIDTH 1200 0
DWIDTH 12 0
BBX 8 10 2 -1
BITMAP
01
41
41
7D
03
FD
00
11
1F
1F
ENDCHAR
STARTCHAR B274
ENCODING 13370
SWIDTH 1200 0
DWIDTH 12 0
BBX 10 11 1 -2
BITMAP
6000
2000
2000
3F80
0000
FFC0
1200
1200
1200
1200
1200
ENDCHAR
STARTCHAR B275
ENCODING 13371
SWIDTH 1200 0
DWIDTH 12 0
BBX 8 11 2 -2
BITMAP
C0
40
40
7F
00
FF
24
FE
02
02
02
ENDCHAR
STARTCHAR B27C
ENCODING 13372
SWIDTH 1200 0
DWIDTH 12 0
BBX 10 9 1 -1
BITMAP
2000
2000
3F80
FFC0
1200
3E00
0100
3F00
1F00
ENDCHAR
STARTCHAR B284
ENCODING 13373
SWIDTH 1200 0
DWIDTH 12 0
BBX 11 9 0 -1
BITMAP
1000
1FC0
0000
FFE0
1100
0F80
0880
0880
0F80
ENDCHAR
STARTCHAR B285
ENCODING 13374
SWIDTH 1200 0
DWIDTH 12 0
BBX 10 11 2 -2
BITMAP
C000
4000
7F00
0000
FFC0
0400
4200
7E00
4200
7E00
0200
ENDCHAR
STARTCHAR B289
ENCODING 13375
SWIDTH 1200 0
DWIDTH 12 0
BBX 10 9 1 -1
BITMAP
2000
2000
3F80
0000
FFC0
1E00
1100
1100
0E00
ENDCHAR
STARTCHAR B290
ENCODING 13376
SWIDTH 1200 0
DWIDTH 12 0
BBX 10 7 1 0
BITMAP
2000
2000
2000
3F80
0000
0000
FFC0
ENDCHAR
STARTCHAR B291
ENCODING 13377
SWIDTH 1200 0
DWIDTH 12 0
BBX 10 10 1 -2
BITMAP
2000
2000
3F80
0000
FFC0
0000
7F00
0100
0100
0100
ENDCHAR
STARTCHAR B294
ENCODING 13378
SWIDTH 1200 0
DWIDTH 12 0
BBX 10 9 1 -1
BITMAP
2000
2000
3F80
0000
FFC0
4000
2000
2000
3F80
ENDCHAR
STARTCHAR B298
ENCODING 13379
SWIDTH 1200 0
DWIDTH 12 0
BBX 10 9 1 -1
BITMAP
6000
2000
3F80
FFC0
0000
7F00
0100
3F00
3F80
ENDCHAR
STARTCHAR B299
ENCODING 13380
SWIDTH 1200 0
DWIDTH 12 0
BBX 10 10 1 -2
BITMAP
2000
2000
3F80
FFC0
0000
3B80
0880
3080
3880
0080
ENDCHAR
STARTCHAR B29A
ENCODING 13381
SWIDTH 1200 0
DWIDTH 12 0
BBX 10 11 1 -2
BITMAP
6000
2000
2000
3F80
0000
FFC0
0F80
5500
2500
3F00
0400
ENDCHAR
STARTCHAR B2A0
ENCODING 13382
SWIDTH 1200 0
DWIDTH 12 0
BBX 10 10 1 -2
BITMAP
6000
2000
3F80
0000
FFC0
3F00
2200
2200
3E00
2000
ENDCHAR
STARTCHAR B2A1
ENCODING 13383
SWIDTH 1200 0
DWIDTH 12 0
BBX 10 10 1 -2
BITMAP
2000
2000
3F80
0000
FFC0
1100
1F00
1100
1F00
0100
ENDCHAR
STARTCHAR B2A3
ENCODING 13384
SWIDTH 1200 0
DWIDTH 12 0
BBX 10 10 1 -1
BITMAP
6000
2000
2000
3F00
0000
FFC0
0800
0C00
1200
2180
ENDCHAR
STARTCHAR B2A5
ENCODING 13385
SWIDTH 1200 0
DWIDTH 12 0
BBX 10 11 1 -2
BITMAP
2000
2000
3F80
0000
0000
FFC0
0E00
1100
1100
1100
0E00
ENDCHAR
STARTCHAR B2A6
ENCODING 13386
SWIDTH 1200 0
DWIDTH 12 0
BBX 10 11 1 -2
BITMAP
6000
2000
2180
1E00
0000
FFC0
0180
3E00
0C00
1300
2080
ENDCHAR
STARTCHAR B2AA
ENCODING 13387
SWIDTH 1200 0
DWIDTH 12 0
BBX 10 9 1 -1
BITMAP
2000
3F80
0000
FFC0
0000
4100
3E00
1200
7F80
ENDCHAR
STARTCHAR B2AC
ENCODING 13388
SWIDTH 1200 0
DWIDTH 12 0
BBX 9 10 1 -1
BITMAP
0180
8080
4080
4080
7C80
0080
0380
7C80
0080
0080
ENDCHAR
STARTCHAR B2B0
ENCODING 13389
SWIDTH 1200 0
DWIDTH 12 0
BBX 8 10 2 -1
BITMAP
03
01
41
41
7D
03
FD
21
20
3F
ENDCHAR
STARTCHAR B2B4
ENCODING 13390
SWIDTH 1200 0
DWIDTH 12 0
BBX 8 10 2 -1
BITMAP
02
81
81
F9
01
07
FF
02
3F
3F
ENDCHAR
STARTCHAR B2C8
ENCODING 13391
SWIDTH 1200 0
DWIDTH 12 0
BBX 9 10 1 -1
BITMAP
0180
0080
C080
4080
4080
4080
7E80
0080
0080
0080
ENDCHAR
STARTCHAR B2C9
ENCODING 13392
SWIDTH 1200 0
DWIDTH 12 0
BBX 9 11 1 -2
BITMAP
0180
8080
4080
4080
4E80
3080
3F80
0080
0080
0080
0080
ENDCHAR
STARTCHAR B2CC
ENCODING 13393
SWIDTH 1200 0
DWIDTH 12 0
BBX 9 10 2 -1
BITMAP
0300
0100
8100
8100
8500
F900
0100
2100
2000
3F80
ENDCHAR
STARTCHAR B2D0
ENCODING 13394
SWIDTH 1200 0
DWIDTH 12 0
BBX 10 10 1 -1
BITMAP
0180
C080
4080
4180
7E80
3F80
0100
1F80
1000
1FC0
ENDCHAR
STARTCHAR B2D2
ENCODING 13395
SWIDTH 1200 0
DWIDTH 12 0
BBX 8 11 2 -2
BITMAP
03
01
81
81
87
F9
1F
F5
45
77
04
ENDCHAR
STARTCHAR B2D8
ENCODING 13396
SWIDTH 1200 0
DWIDTH 12 0
BBX 8 11 2 -2
BITMAP
03
01
81
81
9D
61
3F
22
22
3E
20
ENDCHAR
STARTCHAR B2D9
ENCODING 13397
SWIDTH 1200 0
DWIDTH 12 0
BBX 8 11 2 -2
BITMAP
03
01
81
81
9D
63
21
3F
21
3F
21
ENDCHAR
STARTCHAR B2DB
ENCODING 13398
SWIDTH 1200 0
DWIDTH 12 0
BBX 8 10 2 -1
BITMAP
03
01
81
81
87
F9
09
08
0C
33
ENDCHAR
STARTCHAR B2DD
ENCODING 13399
SWIDTH 1200 0
DWIDTH 12 0
BBX 8 11 2 -2
BITMAP
03
01
81
81
85
F9
01
0E
11
11
0E
ENDCHAR
STARTCHAR B2E2
ENCODING 13400
SWIDTH 1200 0
DWIDTH 12 0
BBX 9 10 2 -1
BITMAP
0300
0100
8100
8100
8700
F900
7F00
0200
1400
7F80
ENDCHAR
STARTCHAR B2E4
ENCODING 13401
SWIDTH 1200 0
DWIDTH 12 0
BBX 10 11 1 -2
BITMAP
0300
0100
FD00
4100
4100
41C0
4300
7D00
0100
0100
0100
ENDCHAR
STARTCHAR B2E5
ENCODING 13402
SWIDTH 1200 0
DWIDTH 12 0
BBX 8 11 2 -2
BITMAP
06
02
F2
82
87
FA
00
FE
02
02
02
ENDCHAR
STARTCHAR B2E6
ENCODING 13403
SWIDTH 1200 0
DWIDTH 12 0
BBX 9 11 2 -2
BITMAP
0600
FA00
8200
8280
8700
FA00
0E00
7200
1200
1200
1200
ENDCHAR
STARTCHAR B2E8
ENCODING 13404
SWIDTH 1200 0
DWIDTH 12 0
BBX 9 10 1 -1
BITMAP
0300
0100
FD00
4100
4180
4300
7D00
1100
1000
1F80
ENDCHAR
STARTCHAR B2EB
ENCODING 13405
SWIDTH 1200 0
DWIDTH 12 0
BBX 10 10 1 -1
BITMAP
0200
FD00
4100
4100
4740
3980
1F00
1000
1000
1F80
ENDCHAR
STARTCHAR B2EC
ENCODING 13406
SWIDTH 1200 0
DWIDTH 12 0
BBX 10 10 1 -1
BITMAP
0200
FD00
4100
4100
45C0
3900
3F00
0100
1F00
1F80
ENDCHAR
STARTCHAR B2ED
ENCODING 13407
SWIDTH 1200 0
DWIDTH 12 0
BBX 11 11 1 -2
BITMAP
0180
F880
4080
40E0
5C80
2000
3F00
0900
3100
3900
0100
ENDCHAR
STARTCHAR B2EE
ENCODING 13408
SWIDTH 1200 0
DWIDTH 12 0
BBX 10 11 1 -2
BITMAP
0300
F900
4100
41C0
7F00
0100
3A80
0D00
3500
3F00
0400
ENDCHAR
STARTCHAR B2EF
ENCODING 13409
SWIDTH 1200 0
DWIDTH 12 0
BBX 10 11 2 -2
BITMAP
0600
F200
8200
8200
8FC0
F300
5900
1F00
6900
7F00
0900
ENDCHAR
STARTCHAR B2F3
ENCODING 13410
SWIDTH 1200 0
DWIDTH 12 0
BBX 9 10 2 -1
BITMAP
0200
1200
E200
8380
FA00
0E00
7F00
9600
6900
7A00
ENDCHAR
STARTCHAR B2F4
ENCODING 13411
SWIDTH 1200 0
DWIDTH 12 0
BBX 9 11 1 -2
BITMAP
0100
0100
FD00
4100
4180
4F00
3F00
1100
1100
1F00
1000
ENDCHAR
STARTCHAR B2F5
ENCODING 13412
SWIDTH 1200 0
DWIDTH 12 0
BBX 8 11 2 -2
BITMAP
06
1A
E2
82
87
FA
22
3E
22
3E
22
ENDCHAR
STARTCHAR B2F7
ENCODING 13413
SWIDTH 1200 0
DWIDTH 12 0
BBX 10 11 2 -2
BITMAP
0600
0200
E200
8200
83C0
FA00
0A00
0400
0A00
1100
2000
ENDCHAR
STARTCHAR B2F8
ENCODING 13414
SWIDTH 1200 0
DWIDTH 12 0
BBX 10 11 1 -2
BITMAP
0180
7C80
4080
40C0
4F80
3000
1100
1100
1B00
2480
C800
ENDCHAR
STARTCHAR B2F9
ENCODING 13415
SWIDTH 1200 0
DWIDTH 12 0
BBX 10 11 1 -2
BITMAP
0300
8500
7900
4140
4380
7D00
0000
0E00
1100
1100
0E00
ENDCHAR
STARTCHAR B2FA
ENCODING 13416
SWIDTH 1200 0
DWIDTH 12 0
BBX 9 10 2 -1
BITMAP
0300
0900
F100
8100
8F80
7100
7F00
0800
1400
2300
ENDCHAR
STARTCHAR B2FB
ENCODING 13417
SWIDTH 1200 0
DWIDTH 12 0
BBX 9 11 2 -2
BITMAP
0600
F200
8200
8680
FB00
0200
0C00
3E00
0C00
1300
2000
ENDCHAR
STARTCHAR B2FF
ENCODING 13418
SWIDTH 1200 0
DWIDTH 12 0
BBX 9 11 2 -2
BITMAP
0600
0200
E200
8200
8780
FA00
1E00
7F00
1400
1400
1C00
ENDCHAR
STARTCHAR B300
ENCODING 13419
SWIDTH 1200 0
DWIDTH 12 0
BBX 9 11 1 -2
BITMAP
0180
0280
9C80
6480
4480
4380
4680
7A80
0280
0280
0080
ENDCHAR
STARTCHAR B301
ENCODING 13420
SWIDTH 1200 0
DWIDTH 12 0
BBX 8 11 2 -2
BITMAP
03
09
E9
89
8F
99
E9
7F
01
01
01
ENDCHAR
STARTCHAR B304
ENCODING 13421
SWIDTH 1200 0
DWIDTH 12 0
BBX 9 11 1 -1
BITMAP
0100
0280
8280
7280
4280
5F80
6280
3280
1080
1000
0F80
ENDCHAR
STARTCHAR B308
ENCODING 13422
SWIDTH 1200 0
DWIDTH 12 0
BBX 10 11 1 -1
BITMAP
0100
0280
FA80
4280
4380
4E80
7F80
0080
1F80
0800
0FC0
ENDCHAR
STARTCHAR B310
ENCODING 13423
SWIDTH 1200 0
DWIDTH 12 0
BBX 8 11 2 -2
BITMAP
01
11
F9
89
9F
E9
09
3E
22
3F
20
ENDCHAR
STARTCHAR B311
ENCODING 13424
SWIDTH 1200 0
DWIDTH 12 0
BBX 8 11 2 -2
BITMAP
02
05
E5
85
87
9D
FF
11
11
1F
11
ENDCHAR
STARTCHAR B313
ENCODING 13425
SWIDTH 1200 0
DWIDTH 12 0
BBX 8 10 2 -1
BITMAP
09
05
E5
85
87
9D
ED
08
0E
31
ENDCHAR
STARTCHAR B314
ENCODING 13426
SWIDTH 1200 0
DWIDTH 12 0
BBX 9 10 2 -1
BITMAP
0300
0500
E500
8500
8F00
F500
2200
1200
2B00
4480
ENDCHAR
STARTCHAR B315
ENCODING 13427
SWIDTH 1200 0
DWIDTH 12 0
BBX 9 11 1 -2
BITMAP
0180
0280
FA80
4280
4380
4680
7A80
0500
0880
0880
0700
ENDCHAR
STARTCHAR B31C
ENCODING 13428
SWIDTH 1200 0
DWIDTH 12 0
BBX 9 10 2 -1
BITMAP
0600
0200
FA00
8380
8200
8200
8F80
7200
0200
0200
ENDCHAR
STARTCHAR B354
ENCODING 13429
SWIDTH 1200 0
DWIDTH 12 0
BBX 9 11 1 -2
BITMAP
0180
0080
FC80
4080
4780
4080
4080
5C80
2080
0080
0080
ENDCHAR
STARTCHAR B355
ENCODING 13430
SWIDTH 1200 0
DWIDTH 12 0
BBX 9 12 1 -3
BITMAP
0180
FC80
4080
4380
4080
7880
0000
3F80
0080
0080
0080
0080
ENDCHAR
STARTCHAR B356
ENCODING 13431
SWIDTH 1200 0
DWIDTH 12 0
BBX 9 10 1 -1
BITMAP
0180
8880
7080
4380
4080
7880
0000
3B80
0880
0880
ENDCHAR
STARTCHAR B358
ENCODING 13432
SWIDTH 1200 0
DWIDTH 12 0
BBX 8 10 2 -1
BITMAP
03
01
F1
8F
81
99
61
21
20
3F
ENDCHAR
STARTCHAR B35B
ENCODING 13433
SWIDTH 1200 0
DWIDTH 12 0
BBX 8 10 2 -1
BITMAP
03
11
E1
87
81
F1
00
3F
20
21
ENDCHAR
STARTCHAR B35C
ENCODING 13434
SWIDTH 1200 0
DWIDTH 12 0
BBX 9 10 1 -1
BITMAP
0080
8C80
7080
4380
4480
7880
3F00
0100
1F00
1F80
ENDCHAR
STARTCHAR B35E
ENCODING 13435
SWIDTH 1200 0
DWIDTH 12 0
BBX 9 11 1 -2
BITMAP
0180
FC80
4080
4380
4480
7880
3B80
0A80
3280
3B80
0200
ENDCHAR
STARTCHAR B35F
ENCODING 13436
SWIDTH 1200 0
DWIDTH 12 0
BBX 9 11 1 -2
BITMAP
0180
F880
4080
4380
4080
7D80
3C80
0F80
3480
3F80
0480
ENDCHAR
STARTCHAR B364
ENCODING 13437
SWIDTH 1200 0
DWIDTH 12 0
BBX 9 11 1 -2
BITMAP
0080
8C80
7080
4780
4080
7880
0080
1F00
1100
1F00
1000
ENDCHAR
STARTCHAR B365
ENCODING 13438
SWIDTH 1200 0
DWIDTH 12 0
BBX 9 11 1 -2
BITMAP
0180
8C80
7080
4380
4080
7980
1080
1F80
1080
1F80
1080
ENDCHAR
STARTCHAR B367
ENCODING 13601
SWIDTH 1200 0
DWIDTH 12 0
BBX 8 10 2 -1
BITMAP
03
79
81
8F
81
71
09
08
0E
31
ENDCHAR
STARTCHAR B369
ENCODING 13602
SWIDTH 1200 0
DWIDTH 12 0
BBX 9 11 1 -2
BITMAP
0180
FC80
4080
4780
4080
5880
2280
0500
0880
0880
0700
ENDCHAR
STARTCHAR B36B
ENCODING 13603
SWIDTH 1200 0
DWIDTH 12 0
BBX 9 11 1 -2
BITMAP
0180
F880
4080
4380
4080
7880
0E00
3F80
0400
0B00
1000
ENDCHAR
STARTCHAR B36E
ENCODING 13604
SWIDTH 1200 0
DWIDTH 12 0
BBX 10 10 1 -1
BITMAP
0180
9880
6080
4380
4480
7880
3F80
1100
0200
3FC0
ENDCHAR
STARTCHAR B370
ENCODING 13605
SWIDTH 1200 0
DWIDTH 12 0
BBX 9 10 1 -1
BITMAP
0180
0280
DA80
6280
5E80
4280
4A80
7280
0280
0080
ENDCHAR
STARTCHAR B371
ENCODING 13606
SWIDTH 1200 0
DWIDTH 12 0
BBX 8 11 2 -2
BITMAP
03
05
E5
9D
85
E5
05
7F
01
01
01
ENDCHAR
STARTCHAR B374
ENCODING 13607
SWIDTH 1200 0
DWIDTH 12 0
BBX 8 10 2 -1
BITMAP
03
05
E5
85
8D
95
65
25
20
3F
ENDCHAR
STARTCHAR B378
ENCODING 13608
SWIDTH 1200 0
DWIDTH 12 0
BBX 8 11 2 -2
BITMAP
01
05
E5
9D
85
E5
7F
01
3F
20
3F
ENDCHAR
STARTCHAR B380
ENCODING 13609
SWIDTH 1200 0
DWIDTH 12 0
BBX 8 11 2 -2
BITMAP
03
05
E5
85
9D
E5
04
1F
11
1F
10
ENDCHAR
STARTCHAR B381
ENCODING 13610
SWIDTH 1200 0
DWIDTH 12 0
BBX 8 10 2 -1
BITMAP
03
05
E5
9D
85
E5
02
11
1F
1F
ENDCHAR
STARTCHAR B383
ENCODING 13611
SWIDTH 1200 0
DWIDTH 12 0
BBX 8 11 2 -2
BITMAP
03
05
E5
9D
85
95
69
05
0A
11
60
ENDCHAR
STARTCHAR B384
ENCODING 13612
SWIDTH 1200 0
DWIDTH 12 0
BBX 8 11 2 -2
BITMAP
03
05
E5
9D
85
E5
03
12
36
49
10
ENDCHAR
STARTCHAR B385
ENCODING 13613
SWIDTH 1200 0
DWIDTH 12 0
BBX 8 10 2 -1
BITMAP
03
05
E5
9D
85
E5
0D
13
11
0E
ENDCHAR
STARTCHAR B38C
ENCODING 13614
SWIDTH 1200 0
DWIDTH 12 0
BBX 8 10 2 -1
BITMAP
03
01
F9
83
81
83
81
F9
01
01
ENDCHAR
STARTCHAR B390
ENCODING 13615
SWIDTH 1200 0
DWIDTH 12 0
BBX 8 10 2 -1
BITMAP
03
09
FF
81
81
97
61
21
20
3F
ENDCHAR
STARTCHAR B394
ENCODING 13616
SWIDTH 1200 0
DWIDTH 12 0
BBX 9 10 1 -1
BITMAP
0080
8C80
7380
4780
4480
7F80
0100
3F00
1000
1F80
ENDCHAR
STARTCHAR B3A0
ENCODING 13617
SWIDTH 1200 0
DWIDTH 12 0
BBX 9 10 2 -1
BITMAP
0300
1100
E700
8100
8B00
E500
2200
2200
3300
4480
ENDCHAR
STARTCHAR B3A1
ENCODING 13618
SWIDTH 1200 0
DWIDTH 12 0
BBX 9 11 1 -2
BITMAP
0080
8C80
7380
4080
4380
5880
2000
0700
0880
0880
0700
ENDCHAR
STARTCHAR B3A8
ENCODING 13619
SWIDTH 1200 0
DWIDTH 12 0
BBX 9 10 1 -1
BITMAP
0180
0280
D280
6E80
4280
4E80
4A80
7280
0280
0080
ENDCHAR
STARTCHAR B3AC
ENCODING 13620
SWIDTH 1200 0
DWIDTH 12 0
BBX 8 11 2 -2
BITMAP
03
05
E5
8D
9D
95
E5
05
20
20
3F
ENDCHAR
STARTCHAR B3C4
ENCODING 13621
SWIDTH 1200 0
DWIDTH 12 0
BBX 11 8 1 0
BITMAP
3F80
2000
2000
2000
3F80
0400
0400
FFE0
ENDCHAR
STARTCHAR B3C5
ENCODING 13622
SWIDTH 1200 0
DWIDTH 12 0
BBX 10 10 1 -2
BITMAP
3F00
2000
3F80
0400
FFC0
0000
3F00
0100
0100
0100
ENDCHAR
STARTCHAR B3C8
ENCODING 13623
SWIDTH 1200 0
DWIDTH 12 0
BBX 10 9 1 -1
BITMAP
3F00
2000
3F00
0400
FFC0
4000
2000
2000
3F80
ENDCHAR
STARTCHAR B3CB
ENCODING 13624
SWIDTH 1200 0
DWIDTH 12 0
BBX 10 9 1 -1
BITMAP
3F00
2000
3F00
0400
FFC0
6700
3800
2000
3F80
ENDCHAR
STARTCHAR B3CC
ENCODING 13625
SWIDTH 1200 0
DWIDTH 12 0
BBX 11 9 1 -1
BITMAP
7F00
2000
3F00
0400
FFE0
3F00
0100
3F00
3F80
ENDCHAR
STARTCHAR B3CE
ENCODING 13626
SWIDTH 1200 0
DWIDTH 12 0
BBX 10 10 1 -2
BITMAP
7F00
2000
3F00
0400
FFC0
0F80
4D00
3500
3F00
0400
ENDCHAR
STARTCHAR B3D0
ENCODING 13627
SWIDTH 1200 0
DWIDTH 12 0
BBX 10 9 1 -1
BITMAP
7F00
2000
3F00
0800
FFC0
0A00
0A00
3300
3C80
ENDCHAR
STARTCHAR B3D4
ENCODING 13628
SWIDTH 1200 0
DWIDTH 12 0
BBX 10 10 1 -2
BITMAP
3F00
2000
3F00
0400
FFC0
3E00
2200
2200
3E00
2000
ENDCHAR
STARTCHAR B3D5
ENCODING 13629
SWIDTH 1200 0
DWIDTH 12 0
BBX 11 10 1 -2
BITMAP
3F80
2000
1F80
0400
FFE0
2100
3F00
2100
3F00
2100
ENDCHAR
STARTCHAR B3D7
ENCODING 13630
SWIDTH 1200 0
DWIDTH 12 0
BBX 10 10 1 -2
BITMAP
3F00
2000
3F00
0400
FFC0
0800
0400
0A00
1100
6000
ENDCHAR
STARTCHAR B3D9
ENCODING 13631
SWIDTH 1200 0
DWIDTH 12 0
BBX 10 11 1 -2
BITMAP
0100
3F00
2000
3F80
0400
FFC0
0000
1E00
1100
1100
0E00
ENDCHAR
STARTCHAR B3DB
ENCODING 13632
SWIDTH 1200 0
DWIDTH 12 0
BBX 10 11 1 -2
BITMAP
3F00
2000
2000
1F00
FFC0
0000
0C00
7F80
0400
0A00
3180
ENDCHAR
STARTCHAR B3DD
ENCODING 13633
SWIDTH 1200 0
DWIDTH 12 0
BBX 10 9 1 -1
BITMAP
3F00
2000
3F00
0800
FFC0
0000
3F00
3F00
3F00
ENDCHAR
STARTCHAR B3E0
ENCODING 13634
SWIDTH 1200 0
DWIDTH 12 0
BBX 10 11 1 -2
BITMAP
0300
0100
FD00
4100
4100
4D00
31C0
1300
ED00
0100
0100
ENDCHAR
STARTCHAR B3E4
ENCODING 13635
SWIDTH 1200 0
DWIDTH 12 0
BBX 10 11 1 -2
BITMAP
0300
0500
7900
4100
3940
1180
EF00
0100
1000
1000
1F80
ENDCHAR
STARTCHAR B3E8
ENCODING 13636
SWIDTH 1200 0
DWIDTH 12 0
BBX 10 11 1 -2
BITMAP
0300
7D00
4100
25C0
1B00
ED00
3F00
0100
1F00
1000
0F80
ENDCHAR
STARTCHAR B3FC
ENCODING 13637
SWIDTH 1200 0
DWIDTH 12 0
BBX 9 11 1 -2
BITMAP
0180
0280
8A80
7280
4280
3380
1680
EA80
0280
0280
0080
ENDCHAR
STARTCHAR B410
ENCODING 13638
SWIDTH 1200 0
DWIDTH 12 0
BBX 9 10 1 -1
BITMAP
0280
7A80
4280
7A80
1380
1680
EA80
0900
1B00
2480
ENDCHAR
STARTCHAR B418
ENCODING 13639
SWIDTH 1200 0
DWIDTH 12 0
BBX 8 10 2 -1
BITMAP
03
01
7D
41
41
7D
11
13
ED
01
ENDCHAR
STARTCHAR B41C
ENCODING 13640
SWIDTH 1200 0
DWIDTH 12 0
BBX 8 10 2 -1
BITMAP
03
7D
41
41
7D
11
1D
E1
20
3F
ENDCHAR
ENDFONT
